/* XPM */
static char *a8hcq_vv5x7[] = {
/* columns rows colors chars-per-pixel */
"32 32 216 2 ",
"   c black",
".  c #0C0000",
"X  c #0F0C0E",
"o  c #13020D",
"O  c #220107",
"+  c #18221F",
"@  c #301B28",
"#  c #282327",
"$  c #32292A",
"%  c #31312E",
"&  c #322B35",
"*  c #373535",
"=  c #3D3C3D",
"-  c #6D1D05",
";  c #2C443B",
":  c #013A67",
">  c #23494D",
",  c #2D7D5D",
"<  c #327F5B",
"1  c #044465",
"2  c #005C6C",
"3  c #025E75",
"4  c #005F7A",
"5  c #345261",
"6  c #0E656F",
"7  c #11686F",
"8  c #18756B",
"9  c #026274",
"0  c #0B6471",
"q  c #187E72",
"w  c #287B60",
"e  c #484648",
"r  c #554F4E",
"t  c #4D4C51",
"y  c #574F53",
"u  c #555457",
"i  c #645C5E",
"p  c #75555E",
"a  c #6F675A",
"s  c #5F5F61",
"d  c #675F64",
"f  c #686668",
"g  c #76716F",
"h  c #636D72",
"j  c #787375",
"k  c #880000",
"l  c #AC0000",
"z  c #B30000",
"x  c #B51510",
"c  c #922100",
"v  c #9E3903",
"b  c #C60000",
"n  c #CF1F00",
"m  c #E20000",
"M  c #FE0E00",
"N  c #E01200",
"B  c #E81C00",
"V  c #D62804",
"C  c #DA3500",
"Z  c #E62400",
"A  c #E83600",
"S  c #FF3700",
"D  c #F23A00",
"F  c #FF3624",
"G  c #884410",
"H  c #B6440F",
"J  c #906B2D",
"K  c #D14A0D",
"L  c #E94700",
"P  c #F84800",
"I  c #F25302",
"U  c #FE5707",
"Y  c #ED4B13",
"T  c #DC6A14",
"R  c #E86603",
"E  c #FA6803",
"W  c #EF7C04",
"Q  c #FE7602",
"!  c #FF7806",
"~  c #EB7716",
"^  c #FE7415",
"/  c #C65F25",
"(  c #C55637",
")  c #EA5932",
"_  c #DB792F",
"`  c #E56132",
"'  c #8E7472",
"]  c #B6726C",
"[  c #E05C48",
"{  c #CC7742",
"}  c #F87D4E",
"|  c #C37670",
" . c #799B30",
".. c #78A828",
"X. c #75A632",
"o. c #7EA837",
"O. c #74A63C",
"+. c #7DAA39",
"@. c #188756",
"#. c #238556",
"$. c #238658",
"%. c #2C8558",
"&. c #258A5C",
"*. c #2C8B5D",
"=. c #338C5F",
"-. c #388F5D",
";. c #23995D",
":. c #3C935F",
">. c #0E8B6A",
",. c #198865",
"<. c #1E836E",
"1. c #189268",
"2. c #1E8472",
"3. c #089C76",
"4. c #129B75",
"5. c #2B8766",
"6. c #248B62",
"7. c #2D8965",
"8. c #24856C",
"9. c #298769",
"0. c #268B6B",
"q. c #2C8C69",
"w. c #358D63",
"e. c #3A8D63",
"r. c #368F6B",
"t. c #279064",
"y. c #2D9362",
"u. c #22946D",
"i. c #299969",
"p. c #339264",
"a. c #3A9160",
"s. c #369967",
"d. c #409D61",
"f. c #46966F",
"g. c #469670",
"h. c #489770",
"j. c #8BAE2F",
"k. c #99B427",
"l. c #92B32D",
"z. c #95B92D",
"x. c #84AB35",
"c. c #8BAE31",
"v. c #86B035",
"b. c #8AB233",
"n. c #91B932",
"m. c #A1BF28",
"M. c #F38402",
"N. c #FA830A",
"B. c #EE9B0E",
"V. c #FF9C01",
"C. c #FF970F",
"Z. c #F78914",
"A. c #FF901D",
"S. c #EDAB04",
"D. c #FCAA05",
"F. c #F8B900",
"G. c #F08A22",
"H. c #FF9E22",
"J. c #FB9E2C",
"K. c #FFAF2D",
"L. c #93C337",
"P. c #FFC206",
"I. c #FFDE1C",
"U. c #FFCC2C",
"Y. c #82807C",
"T. c #D69155",
"R. c #F49849",
"E. c #CB8A7E",
"W. c #F5996A",
"Q. c #FE9379",
"!. c #EBA37A",
"~. c #6D8A96",
"^. c #7BA19F",
"/. c #898687",
"(. c #99848C",
"). c #988F94",
"_. c #8A9A99",
"`. c #959494",
"'. c #9D9C9C",
"]. c #AA8F90",
"[. c #A8999F",
"{. c #A29EA2",
"}. c #A4A3A3",
"|. c #AAA7A9",
" X c #BFBEAE",
".X c #B6AAB1",
"XX c #B8B2B7",
"oX c #C59E8B",
"OX c #C99A93",
"+X c #FF9F8F",
"@X c #C2A496",
"#X c #CCAFAC",
"$X c #C2B6B9",
"%X c #C5BBBF",
"&X c #F8B4AF",
"*X c #EFC5B0",
"=X c #F8C4BC",
"-X c #C3BFC1",
";X c #D2BEC3",
":X c #80C7D4",
">X c #BFD0E6",
",X c #C9C6C8",
"<X c #DAC9CE",
"1X c #CDCED3",
"2X c #D4D3D4",
"3X c #DCDADB",
"4X c #EEDCCF",
"5X c #E3D2DA",
"6X c #E6E0DA",
"7X c #E6D9E2",
"8X c #D9E6EC",
"9X c #EFE8EB",
"0X c #FBE2EC",
"qX c #FFE9F4",
"wX c #F7FAF9",
"eX c #FFFFFF",
/* pixels */
"g.w.w.w.w.w.w.*.*.w.w.w.w.w.w.w.7.7.w.w.w.w.w.w.w.w.w.w.w.w.w.< ",
"g.w.w.w.w.w.&..X0X*.w.w.w.w.w.9.l.c.9.w.w.w.w.w.w.w.w.w.w.w.w.< ",
"g.w.w.w.w.w.w.; <X7.w.7.j.w.w.w.q o.j.9.w.w.w.w.w.w.w.w.w.w.w.< ",
"g.w.w.w.w.w.7.L.  0.9.l.O.w.w.w.w.8.8.a.6 6 w.e.w.0 0 6 w.w.w.< ",
"h.w.w.w.w.w.w.,.-Xa 0.X.^.*.w.w.w.w.w.w.1 b.6 w.3 n.z.0 w.w.w.< ",
"h.w.w.w.w.#.qX*.,.d <X@ *.w.w.w.7.w.w.6 8 9.z.3 z.O.+.: a.w.w.< ",
"h.w.w.w.w.$.,X5Xo G X s.w.w.w.&.&X=.9 z.b.7 q.: 0.x.0.1 a.w.w.< ",
"h.w.7.7.w.w.,...n.>.*X&.w.w.w.w.1.Z 6 4 q.:.: 1 a.q.: 8 a.w.w.< ",
"g.5.k.c.<.7.k.x.q y.G 9Xw.w.w.w.u.B R.i.w.*.s.d.w.w.d.:.w.9.q.< ",
"g.w.q o.j.7.<.8.w.p.$ !.w.w.w.w.w.4.D M &.&Xw.w.w.w.w.w.7.c.b., ",
"g.w.w.8.8.w.w.w.w.*.|.O 7.w.w.w.w.u.R ^ M %.w.w.w.w.w.w.c.O.2.< ",
"g.w.w.w.w.w.w.w.w.w.i.. #Xe.w.&.$.4.L P W.e.w.w.w.w.w.w.8.8.a.< ",
"h.w.w.w.w.w.w.w.w.w.t.j ' w.&.OXwXN Q J 1.w.w.w.w.w.w.w.w.w.w.< ",
"h.w.w.w.w.w.w.w.w.@.+XoXO 6.] wXC Q } u.w.w.w.w.w.w.w.w.w.w.w.< ",
"h.w.w.w.w.w.w.w.$.qXD =X* i.k 6XW P Q.q.w.w.w.w.w.w.w.w.w.w.w.< ",
"h.w.w.w.w.w.w.w.u.B ! Y :Xx z eXK V.I u.t.w.w.w.w.w.w.w.w.w.w.< ",
"g.w.w.w.w.w.w.w.w.3._ E H > F c eXR I S Y e.w.w.w.w.w.w.w.w.w.< ",
"g.w.w.w.w.w.7.w.6.Q.E K eX~.n V E.M.! ` u.w.w.w.w.w.w.w.w.w.w.< ",
"g.w.w.w.w.9.l.9.4.A A./ wX. (.m C M.V.[ w.t.w.w.w.w.w.w.w.w.w.< ",
"g.w.w.w.w.x.O.1.K ^ L qXl | - U N.U.L =X1.) w.w.w.w.w.w.w.w.w.< ",
"g.9.c.8.7.o.<.1.( H.K.A b H U N.B.Z.M.=XR.Q w.w.w.w.w.7.x.7.w.< ",
"g.9.x.x.9.9.&.&XU L ~ J.E H.Y P.F.P.G.P S 9.0.9.9.w.7.x.o.5.q.w ",
"h.w.8.x.9.w.w.@.oXI G.Z.~ D.B.F.C.S.D.T.0Xr.j.o.x.8.9.x.8.8.x. .",
"g.w.w.8.w.w.=.i.V N.R U.Z.R I.D.E D.I >.@.&.<.x.x.k.7.8.7.k.v.8 ",
"g.w.w.:.a.:.y.p  X{ / T L H.W T.}.@XT.@XXX[.=.<.<.8.w.w.w.8.8.< ",
"g.w.a.3 3 2 %X  + ~.5 ].U v & >X_.1XeX= s {.(.;X=.w.w.w.w.w.a.< ",
"f.=.3 m.l.i./.* = % a h ~.h 8X% f 1Xu ).f }.'.|.#.&.&.*.*.w.w.< ",
"g.-.7 9 s.@ # = f X t g r Y.e '.`.r -X'.,X,X`.3X$X.X$X' _.*.w.< ",
"h.w.a.a.w.y.;.2X}.j $ f u f i r '.3X|././.= XX}.t 1Xg 7X7X=.w.< ",
"h.w.w.w.*.).y # i y.s.p.@.eX2X%Xu d /.'.`.7X{.'.eXeX6X4X*.w.w.< ",
"h.w.w.w.w.@.$X(.p.w.w.w.w.#.$.&.y.y.*.*.*.$.@.3X& [.%.#.w.w.w.< ",
"g.w.w.w.w.w.*.*.w.w.w.w.w.w.w.w.w.w.w.w.w.w.w.$.p.*.w.w.w.w.w.< "
};
