/* XPM */
static char *aff8t_najnw[] = {
/* columns rows colors chars-per-pixel */
"32 32 177 2 ",
"   c black",
".  c #0D070A",
"X  c #10050A",
"o  c #160D0F",
"O  c #14130D",
"+  c #18100A",
"@  c #160912",
"#  c #1E0F14",
"$  c #161512",
"%  c #191613",
"&  c #1C1A15",
"*  c #1B1118",
"=  c #1A1C18",
"-  c #20150E",
";  c #231516",
":  c #211B13",
">  c #2A1F15",
",  c #22151F",
"<  c #221C1B",
"1  c #291C1D",
"2  c #25231D",
"3  c #2B241E",
"4  c #2F2C1C",
"5  c #342B1E",
"6  c #36301E",
"7  c #3B351D",
"8  c #261B23",
"9  c #281B26",
"0  c #272621",
"q  c #2A2424",
"w  c #2D2B24",
"e  c #2E2B2A",
"r  c #312623",
"t  c #332C24",
"y  c #3A2E23",
"u  c #30252A",
"i  c #332D29",
"p  c #3A2F2C",
"a  c #2E3027",
"s  c #373126",
"d  c #3C3223",
"f  c #35332B",
"g  c #3C352D",
"h  c #3E3C2F",
"j  c #392F30",
"k  c #343331",
"l  c #3A3730",
"z  c #3D3A32",
"x  c #3E3C39",
"c  c #483726",
"v  c #443926",
"b  c #4C3E26",
"n  c #41352B",
"m  c #433B2C",
"M  c #493D2D",
"N  c #413630",
"B  c #423C34",
"V  c #493C33",
"C  c #443C3B",
"Z  c #4A4125",
"A  c #4C422C",
"S  c #504229",
"D  c #524B2D",
"F  c #5C4A2F",
"G  c #444134",
"H  c #4B4233",
"J  c #484936",
"K  c #444239",
"L  c #4B453A",
"P  c #47493A",
"I  c #4D4B3F",
"U  c #534533",
"Y  c #534C35",
"T  c #5E4B33",
"R  c #53453B",
"E  c #554D3B",
"W  c #594F3C",
"Q  c #565030",
"!  c #5B5134",
"~  c #5F5937",
"^  c #5B543B",
"/  c #5E5A3B",
"(  c #685E32",
")  c #655E3D",
"_  c #6E5D3D",
"`  c #6D603C",
"'  c #736333",
"]  c #74693D",
"[  c #4D4545",
"{  c #4F4A45",
"}  c #544E43",
"|  c #594F41",
" . c #594F4B",
".. c #555041",
"X. c #5D5242",
"o. c #5E5942",
"O. c #5D574B",
"+. c #575652",
"@. c #585354",
"#. c #595855",
"$. c #5A5158",
"%. c #5F5C5A",
"&. c #605741",
"*. c #625B42",
"=. c #6A5D42",
"-. c #635D49",
";. c #675E53",
":. c #696444",
">. c #6A624E",
",. c #746747",
"<. c #776944",
"1. c #706449",
"2. c #706A4C",
"3. c #796F4B",
"4. c #77704F",
"5. c #7C7049",
"6. c #6A6152",
"7. c #63615D",
"8. c #766C59",
"9. c #757157",
"0. c #7C7355",
"q. c #636261",
"w. c #6E6562",
"e. c #6D6C6B",
"r. c #736B61",
"t. c #7F7D7D",
"y. c #847440",
"u. c #8A7F46",
"i. c #847849",
"p. c #817D6E",
"a. c #837D77",
"s. c #8B824A",
"d. c #998C4C",
"f. c #A09550",
"g. c #AA9C5C",
"h. c #958E65",
"j. c #898474",
"k. c #958F7C",
"l. c #A69D67",
"z. c #B9AD6E",
"x. c #BBB472",
"c. c #C5B35D",
"v. c #858286",
"b. c #8A8785",
"n. c #8D8C8B",
"m. c #92908E",
"M. c #959391",
"N. c #9C9C9B",
"B. c #A09B95",
"V. c #A09E9E",
"C. c #A4A08B",
"Z. c #A6A39E",
"A. c #A39FA0",
"S. c #ABA3A8",
"D. c #ACACAB",
"F. c #B9B5A2",
"G. c #B5B3B3",
"H. c #BAB6B4",
"J. c #BBB9B7",
"K. c #BCBCBB",
"L. c #C5C1BE",
"P. c #C3C1C2",
"I. c #C8C7C6",
"U. c #C8C7C8",
"Y. c #C8C8C8",
"T. c #D1CECD",
"R. c #D4D4D4",
"E. c #DFDEDD",
"W. c #E2E2E2",
"Q. c #E8E7E8",
"!. c #EDEDEC",
"~. c #EDECED",
"^. c #F0EFF1",
"/. c #F2F2F2",
"(. c #F5F5F5",
"). c #FEFEFF",
"_. c white",
/* pixels */
"_._._._._._._._._._._._._._._._._._._._._._._._._._._._._._._._.",
"_._._._._._._._._._._._._._._._._._._._._._._._._._._._._._._._.",
"_._._._._._._._._._._._._._._._._._._._.J.D._._._._._._._._._._.",
"_._._._._._._._._._._._._._._._._._.G.z w : f U._._._._._._._._.",
"_._._._._._._._._._._._._._._._.W.%.g y m E g 2 x e._._._._._._.",
"_._._._._._._._._._._._._._._._.n.7 g.' U _ U g 3 = K._._._._._.",
"_._._._._._._._._._._._._._._.e.2 f.c.d.n U L g B w < N._._._._.",
"_._._._._._._._._._._._._._._.G.y F g.,.y m } K f f < n._._._._.",
"_._._._._._._._._._._._._._._.q :.n ! i.M } Y B f C w O (._._._.",
"_._._._._._._._._._._._._._./.2 5 F ] b A t =.Y K t e $ ~._._._.",
"_._._._._._._._._._._._._._._.j.D z.y.x.U g r } G f i O ~._._._.",
"_._._._._._._._._._._._._._._. .g U c ) 5.` l.H { g f % ~._._._.",
"_._._._._._._._._._._._._._._.j A M S b s.( 3.T g P l % /._._._.",
"_._._._._._._._._._._._._._.h.X.R M =.=.=.y ! v t f e 0 7._._._.",
"_._._._._._._._._._._._._._.F.7.U w ^ T H d E E G k e e   ~._._.",
"_._._._._._._._._._._._._._._.2 ! U ^ g A s B n E K g < P._._._.",
"_._._._._._._._._._._._._._.M.e A u.M D ^ s E &...K t 0 q._._._.",
"_._._._._._._._._._._._._._.q.i ! <.! Z *.m A V 4 f t q x _._._.",
"_._._._._._._._._._._._._.~.v.f / L ~ v Y H H g w I w t & G._._.",
"_._._._._._._._._._._._._._.G.< m n Z M 4 y 5.v m { i t & D._._.",
"~.(._._._._._._._._.L.T.C.8.E t Y p &.N ) U 5.d L L B e 2 e._._.",
"_.H.n.I./.~.Q.R.Z.Z.k.4.8.X.| B w s Q , 3 W - ;.6 o.m w e O R._.",
"_._.W.b.B 9.C C L O.2.6.X.a.K J q m t ^ g y >.i 5 A ,.2 a < M._.",
"_._._._.J.a.w.X.0.1.8.C p.r.[ z q z m m y m t r L m X.f e 3 7._.",
"_._._._._._.R.H.Z.S.B.H.T.(.g g 2 q u U 1 B W > -.h 3 k w q #._.",
"_._._._._._._._._._._._._.t.2 h e 8 B r 9 m d ; } L B w e 2 e._.",
"_._._._._._._._._._._._._.W.< f e 1 t q 9 V A # :.I L g e 0 +._.",
"_._._._._._._._._._._._._.b.< q i r 8 9 1 V ! 8 s I G l i < m._.",
"_._._._._._._._._._._._._.(.A.. @.. $.* X @ o + o 3 w & & % e._.",
"_._._._._._._._._._._._._._._._._._._._./.P.^.~.~._.H./.V.E.Y._.",
"_._._._._._._._._._._._._._._._._._._._._._._._._._._._._._._._.",
"_._._._._._._._._._._._._._._._._._._._._._._._._._._._._._._._."
};
