/* XPM */
static char *ab2xx_3umkw[] = {
/* columns rows colors chars-per-pixel */
"32 32 196 2 ",
"   c #320018",
".  c #4E0000",
"X  c #520000",
"o  c #5B0202",
"O  c #650000",
"+  c #6C0E00",
"@  c #760000",
"#  c #7B0000",
"$  c #6F1509",
"%  c #701001",
"&  c #7A2021",
"*  c #001E6B",
"=  c #321061",
"-  c #002C66",
";  c #00376E",
":  c #003D68",
">  c #0E7F5D",
",  c #2B7D5D",
"<  c #317F5B",
"1  c #074567",
"2  c #015C74",
"3  c #00567B",
"4  c #005B79",
"5  c #06636D",
"6  c #0B636F",
"7  c #0E7E69",
"8  c #0B6471",
"9  c #086873",
"0  c #116E70",
"q  c #077C77",
"w  c #157D73",
"e  c #257A62",
"r  c #850102",
"t  c #8C0002",
"y  c #8A010A",
"u  c #96260D",
"i  c #803218",
"p  c #953811",
"a  c #A23600",
"s  c #9F420D",
"d  c #995B12",
"f  c #A24B0C",
"g  c #A35609",
"h  c #A34714",
"j  c #A75B16",
"k  c #B46E11",
"l  c #9F4927",
"z  c #B56D28",
"x  c #BB7A3B",
"c  c #AB7646",
"v  c #BA7D43",
"b  c #779B30",
"n  c #6CA23A",
"m  c #77A637",
"M  c #7EA835",
"N  c #74A63D",
"B  c #7CAB39",
"V  c #1C845D",
"C  c #26865F",
"Z  c #2B885E",
"A  c #2E945E",
"S  c #3D935F",
"D  c #0D8064",
"F  c #158566",
"G  c #1D8967",
"H  c #12856E",
"J  c #1F826E",
"K  c #1A8969",
"L  c #1B8271",
"P  c #248665",
"I  c #2A8765",
"U  c #258963",
"Y  c #2D8964",
"T  c #24856B",
"R  c #298769",
"E  c #258B6B",
"W  c #2A8A6A",
"Q  c #358D63",
"!  c #388E63",
"~  c #369063",
"^  c #3A9361",
"/  c #3F9D61",
"(  c #43995C",
")  c #429F61",
"_  c #AA8700",
"`  c #AC8E00",
"'  c #B28D01",
"]  c #BB830F",
"[  c #AC9301",
"{  c #AF9900",
"}  c #B39301",
"|  c #BC9B00",
" . c #B2960A",
".. c #B7980A",
"X. c #BA9B0C",
"o. c #B38014",
"O. c #BA891B",
"+. c #BB9B11",
"@. c #B99A14",
"#. c #BCA501",
"$. c #BEAA00",
"%. c #BBA214",
"&. c #BEA71B",
"*. c #BE9F27",
"=. c #85AC2C",
"-. c #8EAE2F",
";. c #8FB02E",
":. c #93B22D",
">. c #94B92E",
",. c #9BBA29",
"<. c #83AB34",
"1. c #8AAD32",
"2. c #82B232",
"3. c #8BB031",
"4. c #BCA222",
"5. c #A3BD26",
"6. c #C7981B",
"7. c #C1A207",
"8. c #C7BA07",
"9. c #C8A218",
"0. c #D0A813",
"q. c #C9B517",
"w. c #D1B71A",
"e. c #E3AD18",
"r. c #C48E26",
"t. c #C69334",
"y. c #C9A727",
"u. c #C5AA23",
"i. c #C4A32C",
"p. c #C7AC2C",
"a. c #CAB628",
"s. c #CBB32D",
"d. c #D3B12C",
"f. c #D2BB2D",
"g. c #C9A833",
"h. c #CFB333",
"j. c #C9B835",
"k. c #CCB139",
"l. c #D2B535",
"z. c #D3BD35",
"x. c #D4BB3D",
"c. c #E0AB25",
"v. c #E6B738",
"b. c #CFC720",
"n. c #D7C127",
"m. c #DDD02A",
"M. c #CEC230",
"N. c #DDC532",
"B. c #BA8343",
"V. c #B79448",
"C. c #84A779",
"Z. c #D9AB49",
"A. c #CBB249",
"S. c #D8B242",
"D. c #D5BB43",
"F. c #DABA49",
"G. c #CABB51",
"H. c #D1B653",
"J. c #DCB955",
"K. c #E4B946",
"L. c #E2AF5D",
"P. c #EBB458",
"I. c #CEBB62",
"U. c #DDBB65",
"Y. c #E1BC61",
"T. c #BBC155",
"R. c #DCC44B",
"E. c #D3C152",
"W. c #E2C046",
"Q. c #E2C24C",
"!. c #EAC156",
"~. c #F0CE5D",
"^. c #FFD55E",
"/. c #DAC064",
"(. c #D8C46D",
"). c #DBCA79",
"_. c #E5C361",
"`. c #E2CE6C",
"'. c #E6C877",
"]. c #EAD076",
"[. c #005480",
"{. c #0869FB",
"}. c #E9B488",
"|. c #C2CA9A",
" X c #EACA8B",
".X c #E9D28C",
"XX c #F4D583",
"oX c #F6D68D",
"OX c #EACB90",
"+X c #E4D49A",
"@X c #F4D497",
"#X c #EFDDAE",
"$X c #F2DCB1",
"%X c #FAE7B9",
"&X c #FDEAC5",
"*X c #FFFFC8",
/* pixels */
"Q Q Q Q Q Q Q Q Q Q Q Q Q Q Q Q Y Y Q Q Q Q Q Q Q Q Q Q Q Q Q < ",
"Q Q Q Q Q Q Q Q Q Q Q Q Y Q Q P =.=.R Q Q Q Q Q Q Q Q Q Q Q Q < ",
"Q Q Q Q Q Q Q Q Y Q Q Y -.Y V %X$X&X=.Y Q Q Q Q Q Q Q ! Q Q Q < ",
"Q Q Q Q Q Q Y -.1.T I -.N H S.7.h.' .XQ 6 6 Q ! Q 8 8 8 ! Q Q < ",
"Q Q Q Q Q Q Q L <.M H m 7 S.7.f.q.f.' XX1 2.5 ^ 2 >.>.9 Q Q Q < ",
"Q Q Q Q Q Q Q Q 7 ).!.XXH 9.8.h O r.| W.9 I.^.[.>.N B : ~ Q Q < ",
"Q Q Q Q Q Q Q P C.} _ [ K.{ a = {.  k [ Q...} e.E 1.E 1 ^ Q Q < ",
"Q Q R R Q Q T =.T.} R.' } E.m.s O ] R.R.` %.E.0.^ W - 0 ^ Q ~ < ",
"Q R 5.<.L Q ,.<.q } l.[ &.9.u.z.y.W.` s...+.v.v.Q Q ) S Q R R < ",
"Q Q w -.:.R J T Z |.@X} d. .b.l O t.&.X.d.c.I T Q Q Q Q R 1.:., ",
"Q Q Q J T Q Q Q Q C > oX .z.*.u t h j.d.u.U Q Q Q Q Q Q :.B L < ",
"Q Q Q Q Q Q Q Q Q Q Q F i.| f # @ @ ] ' '.! Q Q Q Q Q Q R R ~ < ",
"Q Q Q Q Q Q Q Q Q Q Q E g.w.g r t @ o.a./.! Q Q Q Q Q Q Q Q Q < ",
"Q Q Q Q Q Q Q Q Q Q Q E i.a.z r @ @ Z.%.Y.! Q Q Q Q Q Q Q Q Q < ",
"Q Q Q Q Q Q Q Q Q Q Q E 9.$.j r r # r.{ /.! Q Q Q Q Q Q Q Q Q < ",
"Q Q Q Q Q Q Q Q Q Q Q E u.| g @ # @ o.} /.! Q Q Q Q Q Q Q Q Q < ",
"Q Q Q Q Q Q Q U U U Q E 4.q.x t t @ K.} U.! Q U U Q Q Q Q Q Q < ",
"Q Q Q Q Q Q F  XZ.L.G E d.M.g # @ @ o.n.(.! F U.P.U Q Q Q Q Q < ",
"Q Q Q Q Q R 2.l + o K.H i.#.j t y @ O.} _.K V.& $ }.Q Q Q Q Q < ",
"Q Q Y Q Y <.B D *Xx.} s.x.8.k # # # 6.$.D.(.g.`.*XY Q Q Y Q Q < ",
"Q R ;.L Q <.T Q V `.' q.h.j p r y # j d N.H.g.&XC Q Q R M Q Q < ",
"Q R 3.m R Y Q ^ 2 ~.u.g.% X o O O O o . i H.k.%XP Q Y <.M Y R e ",
"Q Q R :.R Q Q ^ 6 2 F.k.c v x B.B.v B.x c x..Xn M L Y 1.R T B b ",
"Q Q Q W Q Q Q S ( A J.X.s.z.x.s.%.R.p.R.u.| @X<.<.:.R R Y -.3.e ",
"Q Q Q S S S ^ 3 4 0 K u.+.s.` p.D.@.} x.} '.C T R R Q Q Q R R < ",
"Q Q ^ 4 9 8 0 >.,.* (.F.k.H.H.A.J.F.F.J.F.x.#XV Q Q Q Q Q Q Q < ",
"Q ! 2 5.<.E : >.K ).X. .@X<.m M T Q Q P G.+.*.%XQ Q Q Q Q Q Q < ",
"Q S 8 8 ~ 3.; / - ].X.'.Q Y Y Q Q Q Q Q U G.g.%XQ Q Q Q Q Q Q < ",
"Q Q Q Q Q Q Q Q P D.} U.Y Q Q Q Q Q Q Q U A.X.oXQ Q Q Q Q Q Q < ",
"Q Q Q Q Q Q Q Q U '.OX&XQ Q Q Q Q Q Q Q C +X XoXQ Q Q Q Q Q Q < ",
"Q Q Q Q Q Q Q Q Q Y Y Z Q Q Q Q Q Q Q Q Q Y Y Y Q Q Q Q Q Q Q < ",
"Q Q Q Q Q Q Q Q Q Q Q Q Q Q Q Q Q Q Q Q Q Q Q Q Q Q Q Q Q Q Q < "
};
