/* XPM */
static char *adfa2_f1q0t[] = {
/* columns rows colors chars-per-pixel */
"32 32 71 1 ",
"  c #2B7D5E",
". c #2F7E5C",
"X c #327F5B",
"o c #044366",
"O c #064766",
"+ c #084A66",
"@ c #084C67",
"# c #0C4D64",
"$ c #004269",
"% c #01446A",
"& c #064A68",
"* c #074E69",
"= c #105263",
"- c #126A6F",
"; c #146A6C",
": c #136C6F",
"> c #146E6E",
", c #196F6B",
"< c #186F6D",
"1 c #1B706B",
"2 c #1B746B",
"3 c #18706C",
"4 c #1A746D",
"5 c #086373",
"6 c #0D6671",
"7 c #0C6872",
"8 c #116970",
"9 c #257A62",
"0 c #6D9738",
"q c #74A33D",
"w c #73A43F",
"e c #77A63D",
"r c #7BA73A",
"t c #79A73C",
"y c #76A83E",
"u c #7BA83A",
"i c #7DA939",
"p c #7DAD3B",
"a c #79AB3E",
"s c #7BAC3C",
"d c #3B935F",
"f c #3C935F",
"g c #2B8767",
"h c #2C8767",
"j c #2B8867",
"k c #2F8A66",
"l c #27866A",
"z c #24856C",
"x c #2A8768",
"c c #2B8868",
"v c #2C8968",
"b c #338B63",
"n c #348B63",
"m c #338C63",
"M c #368D63",
"N c #318A64",
"B c #338C64",
"V c #348C64",
"C c #388D61",
"Z c #379163",
"A c #359265",
"S c #399061",
"D c #3B9461",
"F c #3C9562",
"G c #6CA243",
"H c #6FA441",
"J c #81AB36",
"K c #83AE37",
"L c #86AD34",
"P c #81AE38",
"I c #86B036",
/* pixels */
"MMMMMMMMMMMMMMMMNbMMMMMMMMMMMMMX",
"MMMMMMMMMMMMbMMMJrcMMMMMMMMMMMMX",
"MMMMMMnMMbnCuNMMgtrkMMMMMnMMMMMX",
"MMMMMMMrrkMiGNMMMkkM-1MMb;<>CMMX",
"MMMMMMMkewkwjMMMMMMb=a>M>Ly7SMMX",
"MMMMMMMMNNMNMMMMMMn>2Ma7PwG&SMMX",
"MMMMMMMnnMMMMMMMMM;Kw:B+Atx#SMMX",
"MMNNMMNiuvMMMMMMMM-8BMO#Dko4CMVX",
"MbLecMJezMMMMMMMMMSSMMDDMMDSMNBX",
"MnhirNckMMMMMMMMMMMMMMMMMMMMMiu ",
"MMMkkMMMMMMMMMMMMMMMMMMMMMMCiGcX",
"MMMMMMMMMMMMMMMMMMMMMMMMMMMMkNMX",
"MMMMMMMMMMMMMMMMMMMMMMMMMMMMMMMX",
"MMMMMMMMMMMMMMMMMMMMMMMMMMMMMMMX",
"MMMMMMMMMMMMMMMMMMMMMMMMMMMMMMMX",
"MMMMMMMMMMMMMMMMMMMMMMMMMMMMMMMX",
"MMMMMMMMMMMMMMMMMMMMMMMMMMMMMMMX",
"MMMMMMNMMMMMMMMMMMMMMMMMMMMMMMMX",
"MMMMMMrkMMMMMMMMMMMMMMMMMMMMMMMX",
"MMMVMuHNMMMMMb;>CMMMMMMMMMMMMMMX",
"MnukMwkMM;>3M,iy7SMMMMMMMMMMeNVX",
"MnuwkNMM-Leh#swea7SMMMBNNnMuGNB.",
"MMNrkMMM--Zr@ax%&@DMMMieelMrcNu0",
"MMMNMMMSfdMNSNMSSSMMMMNirickMJy9",
"MMMCCSM56>SMMMkkkMMMMMMccvMMMcvX",
"MMM68-<IP$FMmnitivMMMMMMMMMMMMMX",
"MM;IeN#pc+DMMuwwxMMMMMMMMMMMMMMX",
"MM;>Cq*ZO4SMMNNNMMMMMMMMMMMMMMMX",
"MMMMMMMMMMMMMMMMMMMMMMMMMMMMMMMX",
"MMMMMMMMMMMMMMMMMMMMMMMMMMMMMMMX",
"MMMMMMMMMMMMMMMMMMMMMMMMMMMMMMMX",
"MMMMMMMMMMMMMMMMMMMMMMMMMMMMMMMX"
};
