/* XPM */
static char *as5i1_a5mzb[] = {
/* columns rows colors chars-per-pixel */
"64 64 99 2 ",
"   c #1F625E",
".  c #296E55",
"X  c #21625E",
"o  c #2E7052",
"O  c #307052",
"+  c #044365",
"@  c #074967",
"#  c #0A4D66",
"$  c #00436C",
"%  c #044A6A",
"&  c #094D68",
"*  c #0D5366",
"=  c #0C5268",
"-  c #115665",
";  c #135A65",
":  c #1C5E60",
">  c #0F676F",
",  c #176065",
"<  c #1A6063",
"1  c #146C6D",
"2  c #196F6B",
"3  c #1F7567",
"4  c #16706D",
"5  c #1B726B",
"6  c #1E786C",
"7  c #0C6672",
"8  c #0E6971",
"9  c #116B70",
"0  c #206660",
"q  c #247666",
"w  c #267965",
"e  c #2B7B63",
"r  c #217569",
"t  c #5D8237",
"y  c #5C8238",
"u  c #74A53E",
"i  c #79A73C",
"p  c #76A83E",
"a  c #7CA93A",
"s  c #358F5F",
"d  c #3C8E5E",
"f  c #3E905C",
"g  c #1F846F",
"h  c #2E8464",
"j  c #2E8966",
"k  c #27856A",
"l  c #298769",
"z  c #2A8969",
"x  c #318663",
"c  c #368D63",
"v  c #318964",
"b  c #338B64",
"n  c #338B65",
"m  c #358C64",
"M  c #348D64",
"N  c #3A8D60",
"B  c #3B8E60",
"V  c #388C62",
"C  c #318F68",
"Z  c #379061",
"A  c #369166",
"S  c #399161",
"D  c #3A9462",
"F  c #389464",
"G  c #3C9861",
"H  c #5F9547",
"J  c #5B9449",
"K  c #5A974C",
"L  c #5D9B4B",
"P  c #5E9C4B",
"I  c #5B994C",
"U  c #408F5B",
"Y  c #408F5E",
"T  c #42915A",
"R  c #40905C",
"E  c #629746",
"W  c #669D43",
"Q  c #649B46",
"!  c #679F46",
"~  c #699E43",
"^  c #6A9F43",
"/  c #639D49",
"(  c #649F48",
")  c #66A145",
"_  c #6BA143",
"`  c #6CA143",
"'  c #6FA441",
"]  c #68A145",
"[  c #6CA144",
"{  c #6BA444",
"}  c #71A340",
"|  c #70A341",
" . c #72A540",
".. c #74AA42",
"X. c #84AB35",
"o. c #82AF37",
"O. c #86AC35",
"+. c #81AD39",
"@. c #85B036",
/* pixels */
"c c c c c c c c c c c c c c c c c c c c c c c c c c c c c c c c c c c c c c c c c c c c c c c c c c c c c c c c c c c c c c A o ",
"c c c c c c c c c c c c c c c c c c c c c c c c c c c c c c c c d N N d v c c c c c c c c c c c c c c c c c c c c c c c c c A o ",
"c c c c c c c c c c c c c c c c c c c c c c c c c M c c c c M N X.i i u l M c c c c c c c c c c c c c c c c c c c c c c c c A o ",
"c c c c c c c c c c c c c c c c c c c c c c c c N N M c c c M N u ] } _ j N v c c c c c c c c c c c c c c c c c c c c c c c A o ",
"c c c c c c c c c c c c M M c c c M c c c c v d a [ v c c c c c l v a  .a u h c c c c c c c c c c c c c c c c c c c c c c c A o ",
"c c c c c c c c c c c c c M d N N d v c c M d T u ( v c c c c c c d  .] _ ( j c v v v v c c c c c c v v v v v v c c c c c c A o ",
"c c c c c c c c c c c c v Y a u i } l c M d a u u ! v c c c c c c c j j j j c h 2 2 1 5 N c c c c M > 2 2 2 2 5 c c c c c c A o ",
"c c c c c c c c c c c c M d _ !  .` M d v N u ` ] L v c c c c c c c c c c c c x 1 2 w e v v c c x x q w w w 4 3 c c c c c c A o ",
"c c c c c c c c c c c c c M v c i u u } z N i ! j v c c c c c c c c c c c c c x # X a Q 1 5 S M 8 5 o.u u ^ 8 3 c c c c c c A o ",
"c c c c c c c c c c c c c c c N ` ! ) / j d ` P v c c c c c c c c c c c c M v h * 0 { K q e v x q e i } u ! 8 5 c c c c c c A o ",
"c c c c c c c c c c c c c c c c v v v M M c v v c c c c c c c c c c c c c v 1 2 4 5 M R i W 9 r o.} ' ` u ^ % ; Z c c c c c A o ",
"c c c c c c c c c c c c c c c c c c c c c c c c c c c c c c c c c c c c x x q q q e h d ` L 8 5 p ) u ' ) L % ; Z c c c c c A o ",
"c c c c c c c c c c c c c c v v v M c c c c c c c c c c c c c c c c c v 1 r +.u u Q 2 3 Z h # - F c a ` z x # ; Z c c c c c A o ",
"c c c c c c c c c c c c M M d N N N v c c c c c c c c c c c c c c c c v 1 r  .) ` I 5 r M e # ; D c  .! l h = , Z c c c c c A o ",
"c c c c c c c c c c c c v d i u u u l c c c c c c c c c c c c c c c c v 9 4 1 4 v v S x # # * - D M v h + * 5 3 c c c c c c A o ",
"c c c M c M M c M c c c v d u } } _ z c c c c c c c c c c c c c c c c v 2 5 5 3 c c c h * * * ; D c c v # ; 5 3 c c c c c c A o ",
"c c c d O.a a ` v c v T a i u _ g j c c c c c c c c c c c c c c c c c c S S S S c c c c D D D D c c c c G D S S c c c c c c A o ",
"c c c d i ` u ) v M v f u } u ` j c c c c c c c c c c c c c c c c c c c c c c c c c c c c c c c c c c c c c c c M c M M M M A o ",
"c c c M k v u u a ` v v l l l l c c c c c c c c c c c c c c c c c c c c c c c c c c c c c c c c c c c c c c c c v T a a a } C o ",
"c c c c c N u ` } / M M c c c c c c c c c c c c c c c c c c c c c c c c c c c c c c c c c c c c c c c c c c c c v f }  .u ! v o ",
"c c c c c M l z z j c c c c c c c c c c c c c c c c c c c c c c c c c c c c c c c c c c c c c c c c c c c c c R a u u ( l j A o ",
"c c c c c c c c c c c c c c c c c c c c c c c c c c c c c c c c c c c c c c c c c c c c c c c c c c c c c c c d ` _ ` / v c A o ",
"c c c c c c c c c c c c c c c c c c c c c c c c c c c c c c c c c c c c c c c c c c c c c c c c c c c c c c c c v v v v c c A o ",
"c c c c c c c c c c c c c c c c c c c c c c c c c c c c c c c c c c c c c c c c c c c c c c c c c c c c c c c c c c c c c c A o ",
"c c c c c c c c c c c c c c c c c c c c c c c c c c c c c c c c c c c c c c c c c c c c c c c c c c c c c c c c c c c c c c A o ",
"c c c c c c c c c c c c c c c c c c c c c c c c c c c c c c c c c c c c c c c c c c c c c c c c c c c c c c c c c c c c c c A o ",
"c c c c c c c c c c c c c c c c c c c c c c c c c c c c c c c c c c c c c c c c c c c c c c c c c c c c c c c c c c c c c c A o ",
"c c c c c c c c c c c c c c c c c c c c c c c c c c c c c c c c c c c c c c c c c c c c c c c c c c c c c c c c c c c c c c A o ",
"c c c c c c c c c c c c c c c c c c c c c c c c c c c c c c c c c c c c c c c c c c c c c c c c c c c c c c c c c c c c c c A o ",
"c c c c c c c c c c c c c c c c c c c c c c c c c c c c c c c c c c c c c c c c c c c c c c c c c c c c c c c c c c c c c c A o ",
"c c c c c c c c c c c c c c c c c c c c c c c c c c c c c c c c c c c c c c c c c c c c c c c c c c c c c c c c c c c c c c A o ",
"c c c c c c c c c c c c c c c c c c c c c c c c c c c c c c c c c c c c c c c c c c c c c c c c c c c c c c c c c c c c c c A o ",
"c c c c c c c c c c c c c c c c c c c c c c c c c c c c c c c c c c c c c c c c c c c c c c c c c c c c c c c c c c c c c c A o ",
"c c c c c c c c c c c c c c c c c c c c c c c c c c c c c c c c c c c c c c c c c c c c c c c c c c c c c c c c c c c c c c A o ",
"c c c c c c c c c c c c c c c c c c c c c c c c c c c c c c c c c c c c c c c c c c c c c c c c c c c c c c c c c c c c c c A o ",
"c c c c c c c c c c c M c c c c c c c c c c c c c c c c c c c c c c c c c c c c c c c c c c c c c c c c c c c c c c c c c c A o ",
"c c c c c c c c c M v T i ` j c c c c c c c c c c c c c c c c c c c c c c c c c c c c c c c c c c c c c c c c c c c c c c c A o ",
"c c c c c c c c M c c T u ) j c c c c c c c c c c c c M M v v v c c c c c c c c c c c c c c c c c c c c c c c c c c c c c c A o ",
"c c c c c c c c M d u  . .] v c c c c c c c c c c c c h 2 2 2 5 S c c c c c c c c c c c c c c c c c c c c c c c c c c c c c A o ",
"c c c c d N c c M d u ` ] / v c c c v v v v v v c c v h 3 r r r c v c c c c c c c c c c c c c c c c c c c c c c d d c c c c A o ",
"c c c N i _ j c v d u ) v c c c c v 1 5 5 5 2 3 S x 2 w u }  .^ 7 5 S c c c c c c c c c c c c c c c c c c c v f u ( v c c c A o ",
"c c c N i ] c N M f ` / v c c c v v 5 r r r 5 r v h 5 e u  . ._ 1 r M v c M c c c c c c c c c c c c c c M c d T u ! v c c c A o ",
"c c c M i } } ) v M c c M c c v 1 3 a  .u ] j h # X  .} }  . .u  .] 8 5 S c c c c c c c v M M M M c c c M d u `  .! v c v M A o ",
"c c M d u ` u ) v c c c c c c M 1 3 i _ ` ] v x # X u ` [ ` ^ _ ` ! 7 5 S c c c c c c M N N N N N N M c v N i } ` / M M N N A O ",
"c c c M v N i ) v c c c c c c M 2 5 2 5 M N a E &   p / v h & * * * * - D M c c c c v T u u u u u ` l c v N i ) v v v U u u ..t ",
"c c c c M d i ) v c c c c c c v 1 5 2 5 c d a E % X u ! v h # * * * * - D c c c c c M f u  .}  . ._ l M M d i ) v M j d u u ..y ",
"c c c c c v j v c c c c c c c c N N N N c v j v S Z j v c c S S S S S S c c c c c c c M z N u ' '  .u  .z v j v M T i u  .( z . ",
"c c c c c c c c c c c c c c S S S S S S c c c c c c c c c c c c c c c c c c c c c c c c M Y a i i i i u z c c c M U a i i ` C o ",
"c c c c c c c c c c c c c x 1 1 1 1 1 2 S c c c c c c c c c c c c c c c c c c c c c c c c v l l l l l l c c c c c v l l l j A o ",
"c c c c c c N N N N N N S v 8 9 9 2 5 5 S c c c c c c M j j j j j j c c c c c c c c c c c c c c c c c c c c c c c c c c c c A o ",
"c c c c c v 1 1 1 1 1 2 1 q @.a +.u $ - D M c c c c v T a i i i i u l c c c c c c c c c c c c c c c c c c c c c c c c c c c A o ",
"c c c c M v 2 2 2 5 5 5 4 w p }  .^ $ ; D c c c M c v d  .` `  .} _ j c c c c c c c c c c c c c c c c c c c c c c c c c c c A o ",
"c c c v 1 r +.u u ] c h # : i _ z v @ ; D c c c M T u u } } u _ l v M c c c c c c c c c c c c c c c c c c c c c c c c c c c A o ",
"c c c v 1 r p ` ' ( s x # < i ] l x # ; D c c c c f } ` ` ` ` ] z c c c c c c c c c c c c c c c c c c c c c c c c c c c c c A o ",
"c c c v 1 5 5 3 c T p H & ; D v # * 5 5 S c c c c c c c c c c c c c c c c c c c c c c c c c c c c c c c c c c c c c c c c c A o ",
"c c c v 2 5 5 3 c d  .J = , S v # ; 6 3 S c c c c c c c c c c c c c c c c c c c c c c c c c c c c c c c c c c c c c c c c c A o ",
"c c c c M M M M c c c c M v c c M M c M c c c c c c c c c c c c c c c c c c c c c c c c c c c c c c c c c c c c c c c c c c A o ",
"c c c c c c c c c c c c c c c c c c c c c c c c c c c c c c c c c c c c c c c c c c c c c c c c c c c c c c c c c c c c c c A o ",
"c c c c c c c c c c c c c c c c c c c c c c c c c c c c c c c c c c c c c c c c c c c c c c c c c c c c c c c c c c c c c c A o ",
"c c c c c c c c c c c c c c c c c c c c c c c c c c c c c c c c c c c c c c c c c c c c c c c c c c c c c c c c c c c c c c A o ",
"c c c c c c c c c c c c c c c c c c c c c c c c c c c c c c c c c c c c c c c c c c c c c c c c c c c c c c c c c c c c c c A o ",
"c c c c c c c c c c c c c c c c c c c c c c c c c c c c c c c c c c c c c c c c c c c c c c c c c c c c c c c c c c c c c c A o ",
"c c c c c c c c c c c c c c c c c c c c c c c c c c c c c c c c c c c c c c c c c c c c c c c c c c c c c c c c c c c c c c A o ",
"c c c c c c c c c c c c c c c c c c c c c c c c c c c c c c c c c c c c c c c c c c c c c c c c c c c c c c c c c c c c c c A o "
};
