/* XPM */
static char *aedh4_6qq3i[] = {
/* columns rows colors chars-per-pixel */
"64 64 238 2 ",
"   c #010001",
".  c #020709",
"X  c #140A06",
"o  c #1F221B",
"O  c #36270B",
"+  c #312419",
"@  c #1F2420",
"#  c #2B2522",
"$  c #35382B",
"%  c #570000",
"&  c #5E1714",
"*  c #690104",
"=  c #780303",
"-  c #760911",
";  c #4B3012",
":  c #772617",
">  c #732D18",
",  c #43192D",
"<  c #4A342B",
"1  c #583828",
"2  c #643E3C",
"3  c #1C402E",
"4  c #274132",
"5  c #374733",
"6  c #714E17",
"7  c #6D511E",
"8  c #4B4535",
"9  c #564837",
"0  c #565133",
"q  c #714D30",
"w  c #051147",
"e  c #171D59",
"r  c #0D256F",
"t  c #2A3A73",
"y  c #1A5E59",
"u  c #335152",
"i  c #1E695E",
"p  c #3E654B",
"a  c #266759",
"s  c #386D57",
"d  c #2E7052",
"f  c #347959",
"g  c #0A4C66",
"h  c #044968",
"j  c #065265",
"k  c #0D5365",
"l  c #0B5269",
"z  c #135A65",
"x  c #145965",
"c  c #304C6C",
"v  c #0F676F",
"b  c #196768",
"n  c #146B6D",
"m  c #1B736B",
"M  c #1A736C",
"N  c #0E6870",
"B  c #106B70",
"V  c #147377",
"C  c #247666",
"Z  c #2D7167",
"A  c #267965",
"S  c #2A7C64",
"D  c #217469",
"F  c #5A5244",
"G  c #7D5C56",
"H  c #4D6B4F",
"J  c #477858",
"K  c #597A5B",
"L  c #6F6B48",
"P  c #75775B",
"I  c #53746B",
"U  c #70776D",
"Y  c #870306",
"T  c #8B0003",
"R  c #930000",
"E  c #850717",
"W  c #950914",
"Q  c #911419",
"!  c #A90606",
"~  c #AA141D",
"^  c #8B291A",
"/  c #9B1B24",
"(  c #A81B26",
")  c #8E2F27",
"_  c #B6262A",
"`  c #B92E34",
"'  c #BE3137",
"]  c #CA2E36",
"[  c #C3343B",
"{  c #8A4C1B",
"}  c #85631F",
"|  c #8F4E2E",
" . c #A85C3B",
".. c #8A6827",
"X. c #997929",
"o. c #867532",
"O. c #A7782B",
"+. c #C25D34",
"@. c #975D47",
"#. c #876848",
"$. c #976245",
"%. c #8E785B",
"&. c #AF7150",
"*. c #87746B",
"=. c #D67C53",
"-. c #5D8238",
";. c #639D39",
":. c #6AA13A",
">. c #74A53E",
",. c #79A73C",
"<. c #76A93E",
"1. c #7CA93A",
"2. c #2D885E",
"3. c #34835E",
"4. c #348C5D",
"5. c #3C8E5E",
"6. c #3E905C",
"7. c #1F846F",
"8. c #2D8465",
"9. c #2E8A65",
"0. c #27856A",
"q. c #298769",
"w. c #2B8A69",
"e. c #328663",
"r. c #368D63",
"t. c #398D61",
"y. c #398E61",
"u. c #338D69",
"i. c #3B8A69",
"p. c #2C9466",
"a. c #359165",
"s. c #369166",
"d. c #3A9261",
"f. c #339369",
"g. c #39976A",
"h. c #3A8975",
"j. c #3C9674",
"k. c #2CA474",
"l. c #5C9549",
"z. c #5D9B4B",
"x. c #438B5C",
"c. c #568E56",
"v. c #41915B",
"b. c #679C44",
"n. c #659E46",
"m. c #639E49",
"M. c #6B875C",
"N. c #798659",
"B. c #66A046",
"V. c #6CA242",
"C. c #66A44B",
"Z. c #71A441",
"A. c #77AA45",
"S. c #458866",
"D. c #588865",
"F. c #43956C",
"G. c #58926D",
"H. c #449879",
"J. c #678769",
"K. c #6F8F72",
"L. c #53A27A",
"P. c #B78926",
"I. c #AE8B31",
"U. c #82AD37",
"Y. c #85B036",
"T. c #B6A23C",
"R. c #C6952C",
"E. c #CA9930",
"W. c #8E8D4E",
"Q. c #958B45",
"!. c #B58F49",
"~. c #B9A744",
"^. c #8B9272",
"/. c #AB8B6D",
"(. c #B99576",
"). c #8CA27D",
"_. c #CC835C",
"`. c #EB895B",
"'. c #C7AA43",
"]. c #D7B950",
"[. c #D28F65",
"{. c #E38F64",
"}. c #E99567",
"|. c #F69A6B",
" X c #FD9D6C",
".X c #E79D70",
"XX c #FBA878",
"oX c #F7CD51",
"OX c #F8CD5D",
"+X c #FFE45A",
"@X c #FFCF61",
"#X c #FFD564",
"$X c #FEDC62",
"%X c #FFE466",
"&X c #16348E",
"*X c #233D8C",
"=X c #213D91",
"-X c #314D9C",
";X c #3F5BAA",
":X c #3562B6",
">X c #51648C",
",X c #6E7A86",
"<X c #415AAC",
"1X c #516DB4",
"2X c #3E6FC6",
"3X c #5875C7",
"4X c #6F8C8F",
"5X c #61A689",
"6X c #5B82D6",
"7X c #93928D",
"8X c #AAA484",
"9X c #B2B292",
"0X c #95A2A7",
"qX c #B0B2AD",
"wX c #CBB38D",
"eX c #C8B996",
"rX c #E8B386",
"tX c #F8BE8E",
"yX c #B2CC95",
"uX c #BEC1A0",
"iX c #DAC89C",
"pX c #F1C696",
"aX c #CDCBA5",
"sX c #C6C6BC",
"dX c #EAD5A6",
"fX c #FCD7A5",
"gX c #DFE0B7",
"hX c #FBEAB8",
"jX c #FFF2BE",
"kX c #CBD0D4",
"lX c #E1E5C2",
"zX c #FFF7C5",
"xX c #FFFAC4",
"cX c #D9DFE2",
"vX c #D8E8F1",
"bX c #E4E7EA",
"nX c #ECFEFF",
"mX c #FCFEFC",
/* pixels */
"r.r.r.r.r.r.r.r.r.r.r.r.r.r.r.r.r.r.r.r.r.r.r.r.r.r.r.r.r.r.r.r.r.r.r.r.r.r.r.r.r.r.r.r.r.r.r.r.r.r.r.r.r.r.r.r.r.r.r.r.r.r.a.d ",
"r.r.r.r.r.r.r.r.r.r.r.r.r.r.r.r.r.r.r.r.r.r.r.r.r.r.r.r.r.r.r.r.5.t.t.5.r.r.r.r.r.r.r.r.r.r.r.r.r.r.r.r.r.r.r.r.r.r.r.r.r.r.a.d ",
"r.r.r.r.r.r.r.r.r.r.r.r.r.r.r.r.r.r.r.r.r.r.r.r.r.r.r.r.r.r.r.t.U.,.,.>.q.r.r.r.r.r.r.r.r.r.r.r.r.r.r.r.r.r.r.r.r.r.r.r.r.r.a.d ",
"r.r.r.r.r.r.r.r.r.r.r.r.r.r.r.r.r.r.r.r.r.r.r.r.t.t.r.r.r.r.r.t.>.B.Z.V.9.t.r.r.r.r.r.r.r.r.r.r.r.r.r.r.r.r.r.r.r.r.r.r.r.r.a.d ",
"r.r.r.r.r.r.r.r.r.r.r.r.r.r.r.r.r.r.r.r.r.r.e.5.1.V.r.r.r.r.r.r.q.e.1.Z.1.>.8.r.r.r.r.r.r.r.r.r.r.r.r.r.r.r.r.r.r.r.r.r.r.r.a.d ",
"r.r.r.r.r.r.r.r.r.r.r.r.r.r.5.t.t.5.e.r.r.r.5.v.>.m.e.r.r.r.r.r.r.5.Z.B.V.m.9.r.r.e.r.r.r.r.r.r.r.r.e.e.e.e.e.r.r.r.r.r.r.r.a.d ",
"r.r.r.r.r.r.r.r.r.r.r.r.r.v.1.>.,.Z.q.r.r.5.1.>.>.n.e.r.r.r.r.r.r.r.9.9.9.9.r.8.n n n m t.r.r.r.r.r.v n n n n m r.r.r.r.r.r.a.d ",
"r.r.r.r.r.r.r.r.r.r.r.r.r.5.V.n.Z.V.r.5.r.t.>.V.B.z.e.r.r.r.r.r.r.r.r.r.r.r.r.e.n m A S e.r.r.r.e.e.C A A A n m r.r.r.r.r.r.a.d ",
"r.r.r.r.r.r.r.r.r.r.r.r.r.r.e.r.,.>.>.Z.q.t.,.n.9.r.r.r.r.r.r.r.r.r.r.r.r.r.r.e.g a 1.n.n M d.r.N m U.>.>.n.N D r.r.r.r.r.r.a.d ",
"r.r.r.r.r.r.r.r.r.r.r.r.r.r.r.t.V.n.B.m.9.5.V.z.e.r.r.r.r.r.r.r.r.r.r.r.r.r.e.8.k i V.l.C S e.8.C S ,.Z.>.n.N m r.r.r.r.r.r.a.d ",
"r.r.r.r.r.r.r.r.r.r.r.r.r.r.r.r.e.e.r.r.r.r.e.e.r.r.r.r.r.r.r.r.r.r.r.r.r.e.n n n m r.v.,.n.N D U.Z.V.V.>.n.h z a.r.r.r.r.r.a.d ",
"r.r.r.r.r.r.r.r.r.r.r.r.r.r.r.r.r.r.r.r.r.r.r.r.r.r.r.r.r.r.r.r.r.r.r.r.e.e.C C C S 8.5.V.z.N m <.B.>.V.B.z.h z a.r.r.r.r.r.a.d ",
"r.r.r.r.r.r.r.r.r.r.r.r.r.r.r.r.r.r.r.r.r.r.r.r.r.r.r.r.r.r.r.r.r.r.r.e.n D U.>.>.m.n m r.8.g k d.r.1.V.q.e.g z a.r.r.r.r.r.a.d ",
"r.r.r.r.r.r.r.r.r.r.r.r.r.r.5.t.t.t.r.r.r.r.r.r.r.r.r.r.r.r.r.r.r.r.r.r.n m B.z.B.c.V m r.S g z d.r.Z.n.q.8.l b a.r.r.r.r.r.a.d ",
"r.r.r.r.r.r.r.r.r.r.r.r.e.5.,.>.>.>.q.r.r.r.r.r.r.r.r.r.r.r.r.r.r.r.r.r.V Z ^.W.W.Q.W.K h l k x d.r.e.8.h k M m r.r.r.r.r.r.a.d ",
"r.r.r.r.r.r.r.r.r.r.r.r.r.5.>.Z.Z.V.q.r.r.r.r.r.r.r.r.r.r.r.r.r.r.r.r.j.P ].oX$X$XOXE.R.o.u l z d.r.r.r.g z M m r.r.r.r.r.r.a.d ",
"r.r.r.5.Y.1.1.V.e.r.r.v.1.,.>.V.7.9.r.r.r.r.r.r.r.r.r.r.r.r.r.r.r.r.e.Q.%X@XOXOXOX#X].I.R.P.5.d.r.r.r.r.d.d.d.d.r.r.r.r.r.r.a.d ",
"r.r.r.5.,.V.>.B.e.r.e.6.>.Z.>.V.9.r.r.r.r.r.r.r.r.r.r.r.r.r.r.r.r.9.M.#X@X#X#X#X$X%X'.P.P.E.o.u.r.r.r.r.r.r.r.r.r.r.r.r.r.r.a.d ",
"r.r.r.r.0.r.>.>.1.V.e.e.q.q.q.q.r.r.r.r.r.r.r.r.r.r.r.r.r.r.r.r.r.u.!.OXOX].'.I.!.{ { { { { 6 J f.r.r.r.r.r.r.r.r.v.1.1.1.Z.u.d ",
"r.r.r.r.r.t.>.V.Z.m.r.r.r.r.r.r.r.r.r.r.r.r.r.r.r.r.r.r.r.r.r.r.r.G.oX'.O.) ( W W W Y = = * * , j.r.r.r.r.r.r.r.e.6.Z.Z.>.n.r.d ",
"r.r.r.r.r.r.q.w.w.9.r.r.r.r.r.r.r.r.r.r.r.r.r.r.r.r.r.r.r.r.r.r.r.K +.E - ) | ..X.I.~.~.'.T.I...N.c.H.r.r.r.r.v.1.>.>.n.q.9.a.d ",
"r.r.r.r.r.r.r.r.r.r.r.r.r.r.r.r.r.r.r.r.r.r.r.r.r.r.r.r.r.r.r.r.H.< ) ~.$X'.X.X.7 ; O O O ; 7 X.P.O...S.r.r.r.5.V.V.V.m.r.r.a.d ",
"r.r.r.r.r.r.r.r.r.r.r.r.r.r.r.r.r.r.r.r.r.r.r.r.r.r.r.r.r.r.r.h.L ].+XI.;             1 +       7 P.R.L f.r.r.r.e.e.e.e.r.r.a.d ",
"r.r.r.r.r.r.r.r.r.r.r.r.r.r.r.r.r.r.r.r.r.r.r.r.r.r.r.r.r.9.D.~.].}     # /.. o . X [./.+ }.  X O 0 f F.r.r.r.r.r.r.r.r.r.r.a.d ",
"r.r.r.r.r.r.r.r.r.r.r.r.r.r.r.r.r.r.r.r.r.r.r.r.r.r.r.9.9.j.W.oXO.7 ;   9 | 1 # X pXeXW.hXrX    D.e.a.r.r.r.r.r.r.r.r.r.r.r.a.d ",
"r.r.r.r.r.r.r.r.r.r.r.r.r.r.r.r.r.r.r.r.r.r.r.r.r.r.r.9XeX9X^.0 ; 7 9 . @ &.zX9 pXxXsXU hX%.  @ j.r.r.r.r.r.r.r.r.r.r.r.r.r.a.d ",
"r.r.r.r.r.r.r.r.r.r.r.r.r.r.r.r.r.r.r.r.r.r.r.r.r.9.K.xXfXzXhXgXaX9X< # . + iXhXjXdXbX8XiXX 3 F.r.r.r.r.r.r.r.r.r.r.r.r.r.r.a.d ",
"r.r.r.r.r.r.r.r.r.r.r.r.r.r.r.r.r.r.r.r.r.r.r.r.9.D.hXjX#.=.tXfXjXxX&.% 1 _.%.jXaXiXiXxX8Xs g.r.r.r.r.r.r.r.r.r.r.r.r.r.r.r.a.d ",
"r.r.r.r.r.r.r.r.r.r.r.r.r.r.r.r.r.r.r.r.r.r.r.r.f hXjX).2.S.K $.{..X$.% $.XX) aX0XbXqXdXG.a.r.r.r.r.r.r.r.r.r.r.r.r.r.r.r.r.a.d ",
"r.r.r.r.r.r.r.r.r.r.r.r.r.r.r.r.r.r.r.r.r.r.r.2.9XxX/.f r.r.p.4 q XX| Y | .X$.< wXhXeXs r.r.r.r.r.r.r.r.r.r.r.r.r.r.r.r.r.r.a.d ",
"r.r.r.r.r.r.r.r.r.r.r.r.r.r.r.r.r.r.r.r.r.r.r.K.hXtXI 9.r.f.F ^ `.&./ W $.[.& + p.N.M.p.e.J.D.r.r.r.r.r.r.r.r.r.r.r.r.r.r.r.a.d ",
"r.r.r.r.r.r.r.r.r.r.r.r.r.r.r.r.r.r.r.r.r.r.f jXhXfX!.9.f.k.= > : / ] ( &..X% #.r.9.9.e.uX(.L 9.r.r.r.r.r.r.r.r.r.r.r.r.r.r.a.d ",
"r.r.r.r.r.r.r.r.r.r.r.r.r.r.r.r.r.r.r.r.r.r.i.8XhXfX#.j.p = R ~ [ ' _ ~ > * : XXK.p.j.K.rXq {.*.9.r.r.r.r.r.r.r.r.r.r.r.r.r.a.d ",
"r.r.r.r.r.r.r.r.r.r.r.r.r.r.r.r.r.r.a.r.r.r.r.3.K.M.5 0 ~ W T W [ ` ] & T * |  X(.P /..X|. .| P p.r.r.r.r.r.r.r.r.r.r.r.r.r.a.d ",
"r.r.r.r.r.r.r.r.r.r.r.r.r.r.r.r.r.a.H 3.r.r.r.r.9.p.) ] [ [ Q E _ [ * ^ 8 k.f =.|. X`._.0 #.L x.r.r.r.r.r.r.r.r.r.r.r.r.r.r.a.d ",
"r.r.r.r.r.r.r.r.r.r.r.r.r.r.r.r.r.S.; S.r.r.r.r.r.f.& ] ' [ [ / = W - 9 g.r.f.L &.L D.e.f.f.p.r.r.r.r.r.r.r.r.r.r.r.r.r.r.r.a.d ",
"r.r.r.r.r.r.r.r.r.r.e.v.,.V.9.r.g.5 8X9X9.r.r.r.r.g.c W _ W T T ! = : e.r.r.r.g.9.9.r.r.r.r.r.r.r.r.r.r.r.r.r.r.r.r.r.r.r.r.a.d ",
"r.r.r.r.r.r.r.r.r.r.r.v.>.B.9.f.S.8 XXpXS.r.r.t.4.I -X-X- ! R R , w 2 L.2.r.r.r.r.r.r.r.r.r.r.r.r.r.r.r.r.r.r.r.r.r.r.r.r.r.a.d ",
"r.r.r.r.r.r.r.r.r.v.>.Z.Z.B.9.F.# {. X}./.j.p.I >X3Xt 1X:Xe * t 2X&Xr 7XL.4.r.r.r.r.r.r.r.r.r.r.r.r.r.r.r.r.r.r.r.r.r.r.r.r.a.d ",
"r.r.r.r.5.t.r.r.r.5.>.V.B.m.i.8 o 8 H &. X^.x.qX<X1X=Xe >X6X:X1X1X;X=Xr 4XS.r.r.r.r.r.r.r.r.r.r.r.r.r.r.r.r.r.r.5.5.r.r.r.r.a.d ",
"r.r.r.t.,.V.9.r.r.5.>.B.e.a.d &.$ a.V Z &.|.G mX>X-X*X&Xw t 3X1X1X-X&Xr cX4X2.r.r.r.r.r.r.r.r.r.r.r.r.r.r.r.r.6.>.n.e.r.r.r.a.d ",
"r.r.r.t.,.B.r.t.r.6.V.m.e.r.d 0 H.9.m m i {.> nXqXr &Xr I lX>X;X3X=Xc sXmX5X2.r.r.r.r.r.r.r.r.r.r.r.r.r.r.r.5.v.>.n.e.r.r.r.a.d ",
"r.r.r.r.,.Z.Z.B.e.r.r.r.r.r.a.f.n D 1.Z.V.W.> vXnXkX,XK.A.A.yX7Xt c mXnXvXI a.r.r.r.r.r.r.r.r.r.r.r.r.r.r.5.>.V.Z.n.r.r.r.r.a.d ",
"r.r.r.5.>.V.>.B.e.r.r.r.r.r.r.r.n m ,.V.V.C.K 5 4X0XyX:.V.:.;.9XqXmXmX*. .$.u.r.r.r.r.r.t.t.t.t.t.t.r.r.r.t.,.Z.V.m.r.r.t.t.a.d ",
"r.r.r.r.e.t.,.B.e.r.r.r.r.r.r.r.n M n m r.5.<.m.h y >.n.r.8.h l 4XU ,XF hXfXP f.r.r.r.v.>.>.Z.>.>.V.q.r.r.t.,.B.e.e.e.v.>.>.A.-.",
"r.r.r.r.r.5.,.B.e.r.r.r.r.r.r.r.n M M m r.5.1.m.h a >.n.r.8.g k j x j j G.xXdXs f.a.f.F.A.V.Z.Z.Z.V.q.r.r.5.,.B.e.r.9.6.>.>.A.-.",
"r.r.r.r.r.e.9.e.r.r.r.r.r.r.r.r.t.t.t.t.r.e.9.r.a.r.9.9.r.r.d.d.d.d.d.d.2.J.xXwXK d $ q 8 S.>.V.V.Z.>.Z.w.r.9.e.r.v.,.>.Z.m.w.d ",
"r.r.r.r.r.r.r.r.r.r.r.r.r.r.d.d.d.d.d.d.r.r.r.r.r.r.r.r.r.r.r.r.r.r.r.r.r.3.eXxXrX. @.q < J 1.,.,.,.,.>.q.r.r.r.r.v.1.,.,.V.u.d ",
"r.r.r.r.r.r.r.r.r.r.r.r.r.e.n n n n n n d.r.r.r.r.r.r.r.r.r.r.r.r.r.r.r.r.9.).jX(.X q 8 J f.q.q.q.q.q.q.r.r.r.r.r.e.q.q.q.9.a.d ",
"r.r.r.r.r.r.t.t.t.t.t.t.d.e.N B B n m m d.r.r.r.r.r.r.r.9.9.9.9.9.9.r.r.r.f.H /.1 o J F.a.r.r.r.r.r.r.r.r.r.r.r.r.r.r.r.r.r.a.d ",
"r.r.r.r.r.e.n n n n n n n C Y.1.U.>.h k d.r.r.r.r.r.r.v.1.,.,.,.,.>.q.r.r.r.J.p 3.g.r.r.r.r.r.r.r.r.r.r.r.r.r.r.r.r.r.r.r.r.a.d ",
"r.r.r.r.r.e.n n M M m M n A <.Z.Z.n.h z d.r.r.r.r.r.e.5.Z.V.V.Z.Z.V.q.r.r.r.3.r.r.r.r.r.r.r.r.r.r.r.r.r.r.r.r.r.r.r.r.r.r.r.a.d ",
"r.r.r.e.n D U.>.>.B.r.8.g z ,.V.q.r.h z d.r.r.r.r.v.>.>.Z.Z.>.V.q.e.r.r.r.r.r.r.r.r.r.r.r.r.r.r.r.r.r.r.r.r.r.r.r.r.r.r.r.r.a.d ",
"r.r.r.r.n D <.V.V.m.4.e.g b ,.B.q.e.g z d.r.r.r.r.6.Z.V.V.V.V.B.w.r.r.r.r.r.r.r.r.r.r.r.r.r.r.r.r.r.r.r.r.r.r.r.r.r.r.r.r.r.a.d ",
"r.r.r.r.n M m m r.v.<.l.g z d.r.g k M m d.r.r.r.r.r.r.r.r.r.r.r.r.r.r.r.r.r.r.r.r.r.r.r.r.r.r.r.r.r.r.r.r.r.r.r.r.r.r.r.r.r.a.d ",
"r.r.r.r.n m m m r.5.Z.l.l b d.r.g z m m d.r.r.r.r.r.r.r.r.r.r.r.r.r.r.r.r.r.r.r.r.r.r.r.r.r.r.r.r.r.r.r.r.r.r.r.r.r.r.r.r.r.a.d ",
"r.r.r.r.r.r.r.r.r.r.r.r.r.r.r.r.r.r.r.r.r.r.r.r.r.r.r.r.r.r.r.r.r.r.r.r.r.r.r.r.r.r.r.r.r.r.r.r.r.r.r.r.r.r.r.r.r.r.r.r.r.r.a.d ",
"r.r.r.r.r.r.r.r.r.r.r.r.r.r.r.r.r.r.r.r.r.r.r.r.r.r.r.r.r.r.r.r.r.r.r.r.r.r.r.r.r.r.r.r.r.r.r.r.r.r.r.r.r.r.r.r.r.r.r.r.r.r.a.d ",
"r.r.r.r.r.r.r.r.r.r.r.r.r.r.r.r.r.r.r.r.r.r.r.r.r.r.r.r.r.r.r.r.r.r.r.r.r.r.r.r.r.r.r.r.r.r.r.r.r.r.r.r.r.r.r.r.r.r.r.r.r.r.a.d ",
"r.r.r.r.r.r.r.r.r.r.r.r.r.r.r.r.r.r.r.r.r.r.r.r.r.r.r.r.r.r.r.r.r.r.r.r.r.r.r.r.r.r.r.r.r.r.r.r.r.r.r.r.r.r.r.r.r.r.r.r.r.r.a.d ",
"r.r.r.r.r.r.r.r.r.r.r.r.r.r.r.r.r.r.r.r.r.r.r.r.r.r.r.r.r.r.r.r.r.r.r.r.r.r.r.r.r.r.r.r.r.r.r.r.r.r.r.r.r.r.r.r.r.r.r.r.r.r.a.d ",
"r.r.r.r.r.r.r.r.r.r.r.r.r.r.r.r.r.r.r.r.r.r.r.r.r.r.r.r.r.r.r.r.r.r.r.r.r.r.r.r.r.r.r.r.r.r.r.r.r.r.r.r.r.r.r.r.r.r.r.r.r.r.a.d ",
"r.r.r.r.r.r.r.r.r.r.r.r.r.r.r.r.r.r.r.r.r.r.r.r.r.r.r.r.r.r.r.r.r.r.r.r.r.r.r.r.r.r.r.r.r.r.r.r.r.r.r.r.r.r.r.r.r.r.r.r.r.r.a.d ",
"r.r.r.r.r.r.r.r.r.r.r.r.r.r.r.r.r.r.r.r.r.r.r.r.r.r.r.r.r.r.r.r.r.r.r.r.r.r.r.r.r.r.r.r.r.r.r.r.r.r.r.r.r.r.r.r.r.r.r.r.r.r.a.d "
};
