/* XPM */
static char *adi98_mu2bv[] = {
/* columns rows colors chars-per-pixel */
"64 64 240 2 ",
"   c #000001",
".  c #030409",
"X  c #0E0712",
"o  c #2A1B12",
"O  c #321D19",
"+  c #1D201E",
"@  c #2D2106",
"#  c #36260C",
"$  c #35251B",
"%  c #060B32",
"&  c #1D2E2C",
"*  c #2C3028",
"=  c #440204",
"-  c #5B0605",
";  c #4E1717",
":  c #680004",
">  c #790105",
",  c #73140D",
"<  c #7A0719",
"1  c #4B3313",
"2  c #4D3425",
"3  c #56352A",
"4  c #743423",
"5  c #753327",
"6  c #1F523D",
"7  c #2B4735",
"8  c #614A1B",
"9  c #52523A",
"0  c #6A4635",
"q  c #744B32",
"w  c #7B6025",
"e  c #786831",
"r  c #6D7636",
"t  c #321C49",
"y  c #1C2C59",
"u  c #011B71",
"i  c #11276A",
"p  c #2F3261",
"a  c #395444",
"s  c #1F665F",
"d  c #37684B",
"f  c #25655A",
"g  c #3D6F55",
"h  c #2E7052",
"j  c #357758",
"k  c #0A4D66",
"l  c #044968",
"z  c #0D5365",
"x  c #0C5268",
"c  c #115665",
"v  c #135A65",
"b  c #165B66",
"n  c #314F75",
"m  c #186867",
"M  c #146B6D",
"N  c #1D7766",
"B  c #16706D",
"V  c #1B736B",
"C  c #0E6870",
"Z  c #116B70",
"A  c #26666C",
"S  c #247666",
"D  c #267965",
"F  c #2A7C64",
"G  c #217569",
"H  c #4D5542",
"J  c #6A5A4A",
"K  c #785542",
"L  c #54674C",
"P  c #596D52",
"I  c #4A785B",
"U  c #63784B",
"Y  c #697457",
"T  c #797052",
"R  c #485279",
"E  c #4E7671",
"W  c #6D7170",
"Q  c #8A0407",
"!  c #950407",
"~  c #8E0714",
"^  c #950918",
"/  c #851618",
"(  c #A90D10",
")  c #95211C",
"_  c #A61923",
"`  c #9B2228",
"'  c #B4252C",
"]  c #BD3238",
"[  c #C80E1A",
"{  c #C42631",
"}  c #C5343B",
"|  c #884C1B",
" . c #8B511D",
".. c #8F4E2C",
"X. c #834932",
"o. c #975738",
"O. c #A75A38",
"+. c #B35136",
"@. c #8A6C26",
"#. c #9F7E2C",
"$. c #A87A2E",
"%. c #845541",
"&. c #886449",
"*. c #8F7352",
"=. c #A46545",
"-. c #B37250",
";. c #D27B51",
":. c #5D8238",
">. c #6FAB3E",
",. c #74A53E",
"<. c #79A73C",
"1. c #76A83E",
"2. c #7CA93A",
"3. c #2B865D",
"4. c #37845C",
"5. c #318B5E",
"6. c #3C8E5E",
"7. c #3D905C",
"8. c #1F846F",
"9. c #2E8464",
"0. c #2D8A65",
"q. c #27856A",
"w. c #298769",
"e. c #2B8B69",
"r. c #318663",
"t. c #368D63",
"y. c #378967",
"u. c #398D61",
"i. c #398E61",
"p. c #2A9366",
"a. c #2E9166",
"s. c #369166",
"d. c #3A9262",
"f. c #34936A",
"g. c #3B936B",
"h. c #38986B",
"j. c #398A75",
"k. c #3D9673",
"l. c #32A576",
"z. c #5D984A",
"x. c #4B875B",
"c. c #408F5C",
"v. c #41905B",
"b. c #728B4C",
"n. c #659E46",
"m. c #699E43",
"M. c #639D49",
"N. c #66A046",
"B. c #6CA242",
"V. c #71A440",
"C. c #74A941",
"Z. c #7AB142",
"A. c #458B66",
"S. c #548667",
"D. c #419867",
"F. c #478972",
"G. c #509271",
"H. c #688D6F",
"J. c #779576",
"K. c #B58829",
"L. c #B09135",
"P. c #B89333",
"I. c #82AD37",
"U. c #85B036",
"Y. c #CA861C",
"T. c #C8952B",
"R. c #C69732",
"E. c #908D4D",
"W. c #B19353",
"Q. c #B9A940",
"!. c #909171",
"~. c #AC9073",
"^. c #B5A17B",
"/. c #CD865F",
"(. c #DA845A",
"). c #E7885D",
"_. c #C2A944",
"`. c #D2B047",
"'. c #E7BC4C",
"]. c #D89268",
"[. c #CD9170",
"{. c #E89668",
"}. c #FA9969",
"|. c #EA9D71",
" X c #D5A97F",
".X c #E9A576",
"XX c #FAAB7A",
"oX c #D9C357",
"OX c #EBC951",
"+X c #F7CD5D",
"@X c #F7D558",
"#X c #FBCD61",
"$X c #FFD765",
"%X c #FFDC64",
"&X c #122F8C",
"*X c #133188",
"=X c #253F91",
"-X c #30478B",
";X c #284695",
":X c #335CB1",
">X c #3360B4",
",X c #406989",
"<X c #6D7789",
"1X c #425DA9",
"2X c #4B6AAB",
"3X c #5974BC",
"4X c #4E70C6",
"5X c #5A7ACA",
"6X c #778A8E",
"7X c #49A184",
"8X c #67A485",
"9X c #97958E",
"0X c #90A78B",
"qX c #B2AD8E",
"wX c #97B6AA",
"eX c #ABAAA4",
"rX c #C6AF8A",
"tX c #C9BA97",
"yX c #EDB98A",
"uX c #DFCE9E",
"iX c #FFC794",
"pX c #CAC9A5",
"aX c #D2D2AF",
"sX c #EAD8A9",
"dX c #FBDBA8",
"fX c #FFE2AD",
"gX c #F9E9B8",
"hX c #FFF4BE",
"jX c #B5B8C1",
"kX c #BBCACC",
"lX c #D0D4D3",
"zX c #FFF5C2",
"xX c #FFFBC4",
"cX c #E9E7DC",
"vX c #FFFFD1",
"bX c #D2D8E3",
"nX c #DFE5E3",
"mX c #E5EEF0",
"MX c #E5F7FE",
"NX c white",
/* pixels */
"t.t.t.t.t.t.t.t.t.t.t.t.t.t.t.t.t.t.t.t.t.t.t.t.t.t.t.t.t.t.t.t.t.t.t.t.t.t.t.t.t.t.t.t.t.t.t.t.t.t.t.t.t.t.t.t.t.t.t.t.t.t.s.h ",
"t.t.t.t.t.t.t.t.t.t.t.t.t.t.t.t.t.t.t.t.t.t.t.t.t.t.t.t.t.t.t.t.6.u.u.6.t.t.t.t.t.t.t.t.t.t.t.t.t.t.t.t.t.t.t.t.t.t.t.t.t.t.s.h ",
"t.t.t.t.t.t.t.t.t.t.t.t.t.t.t.t.t.t.t.t.t.t.t.t.t.t.t.t.t.t.t.u.I.<.<.,.w.t.t.t.t.t.t.t.t.t.t.t.t.t.t.t.t.t.t.t.t.t.t.t.t.t.s.h ",
"t.t.t.t.t.t.t.t.t.t.t.t.t.t.t.t.t.t.t.t.t.t.t.t.u.u.t.t.t.t.t.u.,.N.V.B.0.u.t.t.t.t.t.t.t.t.t.t.t.t.t.t.t.t.t.t.t.t.t.t.t.t.s.h ",
"t.t.t.t.t.t.t.t.t.t.t.t.t.t.t.t.t.t.t.t.t.t.r.6.2.B.t.t.t.t.t.t.w.r.2.V.2.,.9.t.t.t.t.t.t.t.t.t.t.t.t.t.t.t.t.t.t.t.t.t.t.t.s.h ",
"t.t.t.t.t.t.t.t.t.t.t.t.t.t.6.u.u.6.r.t.t.t.6.v.,.M.r.t.t.t.t.t.t.6.V.N.B.M.0.t.t.r.t.t.t.t.t.t.t.t.r.r.r.r.r.t.t.t.t.t.t.t.s.h ",
"t.t.t.t.t.t.t.t.t.t.t.t.t.c.2.,.<.V.w.t.t.6.2.,.,.n.r.t.t.t.t.t.t.t.0.0.0.0.t.9.M M M V u.t.t.t.t.t.C M M M M V t.t.t.t.t.t.s.h ",
"t.t.t.t.t.t.t.t.t.t.t.t.t.6.B.n.V.B.t.6.t.u.,.B.N.z.r.t.t.t.t.t.t.t.t.t.t.t.t.r.M B D F r.t.t.t.r.r.S D D D B N t.t.t.t.t.t.s.h ",
"t.t.t.t.t.t.t.t.t.t.t.t.t.t.r.t.<.,.,.V.w.u.<.N.0.t.t.t.t.t.t.t.t.t.t.t.t.t.t.r.k f 2.n.M V d.t.C V I.,.,.m.C N t.t.t.t.t.t.s.h ",
"t.t.t.t.t.t.t.t.t.t.t.t.t.t.t.u.B.n.N.M.0.6.B.z.r.t.t.t.t.t.t.t.t.t.t.t.t.t.r.9.z s B.z.S F r.r.S F <.V.,.n.C V t.t.t.t.t.t.s.h ",
"t.t.t.t.t.t.t.t.t.t.t.t.t.t.t.t.r.r.t.t.t.t.r.t.t.t.t.t.t.t.t.t.t.t.t.t.t.r.M M B V t.v.<.m.Z G I.V.B.B.,.m.l b d.t.t.t.t.t.s.h ",
"t.t.t.t.t.t.t.t.t.t.t.t.t.t.t.t.t.t.t.t.t.t.t.t.t.t.t.t.t.t.t.t.t.t.t.t.r.r.S S S F 9.6.B.z.C V 1.N.V.B.N.z.l b d.t.t.t.t.t.s.h ",
"t.t.t.t.t.t.t.t.t.t.t.t.t.t.t.t.t.t.t.t.t.t.t.t.t.t.t.t.t.t.t.t.t.t.t.r.M G I.,.,.n.M N d.9.k c d.t.2.B.w.r.k b d.t.t.t.t.t.s.h ",
"t.t.t.t.t.t.t.t.t.t.t.t.t.t.6.u.u.u.r.t.t.t.0.e.e.e.0.0.t.t.t.t.t.t.t.t.M G V.N.B.z.V G t.F k v d.t.V.n.w.9.x m d.t.t.t.t.t.s.h ",
"t.t.t.t.t.t.t.t.t.t.t.t.r.6.<.,.,.,.w.t.e.x.E.E.E.E.!.H.y.s.t.t.t.t.t.t.M B M B r.t.d.r.k k z c d.t.r.9.l z V N t.t.t.t.t.t.s.h ",
"t.t.t.t.t.t.t.t.t.t.t.t.t.6.,.V.V.B.w.y.e K.T.'.%X%X@X'.W.F.t.t.t.t.t.t.M V V N t.t.t.9.z z z v d.t.t.t.k v V N t.t.t.t.t.t.s.h ",
"t.t.t.6.U.2.2.B.r.t.t.v.2.<.,.B.8.w.r.@.T.K.P.%X+X+X#X#X%X`.F t.t.t.t.t.d.d.d.d.t.t.t.t.d.d.d.d.t.t.t.t.d.d.d.d.t.t.t.t.t.t.s.h ",
"t.t.t.6.<.B.,.N.r.t.r.7.,.B.,.B.0.t.U T.P.P.P.%X%X$X$X$X#X%XE.e.t.t.t.t.t.t.t.t.t.t.t.t.t.t.t.t.t.t.t.t.t.t.t.t.t.t.t.t.t.t.s.h ",
"t.t.t.t.q.t.,.,.2.B.r.r.w.w.w.w.t.g.1  . . .| | $.P._.`.+X+X_.x.t.t.t.t.t.t.t.t.t.t.t.t.t.t.t.t.t.t.t.t.t.t.t.t.t.v.2.2.2.V.a.h ",
"t.t.t.t.t.u.,.B.V.M.t.t.t.t.t.t.h.a : : > > > ~ ~ ^ _ ` o.Q.OX!.0.t.t.t.t.t.t.t.t.t.t.t.t.t.t.t.t.t.t.t.t.t.t.t.r.7.V.V.,.n.t.h ",
"t.t.t.t.t.t.w.e.e.0.t.t.t.t.k.S.b.e #.L._._.Q.L.K.@...X./ < +.&.a.t.t.t.t.t.t.t.t.t.t.t.t.t.t.t.t.t.t.t.t.t.t.v.2.,.,.M.w.0.s.h ",
"t.t.t.t.t.t.t.t.t.t.t.t.t.k.e $.K.$.w 8 # @ # 1 8 @.#.L.@XoXX., 7Xt.t.t.t.t.t.t.t.t.t.t.t.t.t.t.t.t.t.t.t.t.t.6.B.B.B.M.t.t.s.h ",
"t.t.t.t.t.t.t.t.t.t.t.t.t.g Y.T.@..     X q             @ @.@X@XE.E s.t.t.t.u.t.t.t.t.t.t.t.t.t.t.t.t.t.t.t.t.t.r.r.r.r.t.t.s.h ",
"t.t.t.t.t.t.t.t.t.t.t.t.t.D.4.r # o   /.2 K yXO   + . J J   . 1 `.'.Y t.t.t.t.t.t.t.t.t.t.t.t.t.t.t.t.t.t.t.t.t.t.t.t.t.t.t.s.h ",
"t.t.t.t.t.t.t.t.t.t.t.t.t.t.t.t.x.*   =.zXqX!.fX2 O $ o.&.  # 1 K.R.`.A.0.0.t.t.t.t.t.t.t.t.t.t.t.t.t.t.t.t.t.t.t.t.t.t.t.t.s.h ",
"t.t.t.t.t.t.t.t.t.t.t.t.t.t.t.t.h.7 . o vX!.eXzXdXT uX(.3   * w 1 1 W eXqXtXS.t.t.t.t.t.t.t.t.t.t.t.t.t.t.t.t.t.t.t.t.t.t.t.s.h ",
"t.t.t.t.t.t.t.t.t.t.t.t.t.t.t.t.t.g.d   ^.rXbXsXhXgXhX3   & ; 9XpXaXgXhXdXhXqX3.t.t.t.t.t.t.t.t.t.t.t.t.t.t.t.t.t.t.t.t.t.t.s.h ",
"t.t.t.t.t.t.t.t.t.t.t.t.t.t.t.t.t.t.s.F.Y xXsXuXpXgXtXO.=.= 5 xXzXdXiX|.q sXxX!.3.t.t.t.t.t.t.t.t.t.t.t.t.t.t.t.t.t.t.t.t.t.s.h ",
"t.t.t.t.t.t.t.t.t.t.t.t.t.t.t.t.t.t.t.s.u.pXtXnXlXqX%.{.].- 4 .X{.-.P A.0.S.fXhXJ.0.t.t.t.t.t.t.t.t.t.t.t.t.t.t.t.t.t.t.t.t.s.h ",
"t.t.t.t.t.t.t.t.t.t.t.t.t.t.t.t.t.t.t.0.s.j !.gXsXJ q ]./.: / .X-.o l.t.t.t.T hXsXh t.t.t.t.t.t.t.t.t.t.t.t.t.t.t.t.t.t.t.t.s.h ",
"t.t.t.t.t.t.t.t.t.t.t.t.t.t.t.t.t.t.A.H.r.t.I !.4.6 = -.~.> ' X.{.O.3 g.t.t.j.].zXqXr.t.t.t.t.t.t.t.t.t.t.t.t.t.t.t.t.t.t.t.s.h ",
"t.t.t.t.t.t.t.t.t.t.t.t.t.t.t.t.t.a.P -.aXG.5.0.a.Y : =.yX~ ' ' 5 4 > 4.f.0.T iXgXzXH.t.t.t.t.t.t.t.t.t.t.t.t.t.t.t.t.t.t.t.s.h ",
"t.t.t.t.t.t.t.t.t.t.t.t.t.t.t.t.t.H.(.q  X!.F.a.j..X=.: 4 ~ ' ] } { Q Q 9 k.U .XzXrXG.t.t.u.t.t.t.t.t.t.t.t.t.t.t.t.t.t.t.t.s.h ",
"t.t.t.t.t.t.t.t.t.t.t.t.t.t.t.t.t.S.O.X.}.|.[.T !.}.;.= ! - ' ] ] _ ! Q ( 5 7 Y J.j t.t.t.t.s.t.t.t.t.t.t.t.t.t.t.t.t.t.t.t.s.h ",
"t.t.t.t.t.t.t.t.t.t.t.t.t.t.t.t.t.t.T &.9 W.;.}.}.).P l.d ) - ' ] ^ < ' } } [ p.0.t.t.t.t.s.d A.t.t.t.t.t.t.t.t.t.t.t.t.t.t.s.h ",
"t.t.t.t.t.t.t.t.t.t.t.t.t.t.t.t.t.t.a.f.f.t.S.P *.o.t.t.h.I , / > / ' } ] } ~ f.t.t.t.t.t.G.$ P s.t.t.t.t.t.t.t.t.t.t.t.t.t.s.h ",
"t.t.t.t.t.t.t.t.t.t.r.v.<.B.0.t.t.t.t.t.t.t.t.s.0.g.s.t.t.l.; , ! ! Q ! _ ( t D.t.t.t.t.0.J.pX2 h.t.t.t.t.t.t.t.t.t.t.t.t.t.s.h ",
"t.t.t.t.t.t.t.t.t.t.t.v.,.N.0.t.t.t.t.t.t.t.t.t.t.t.t.t.t.h.T % t > ! ! ! p :X,X4.d.t.t.y.tXXX&.g g.t.t.t.t.t.t.t.t.t.t.t.t.s.h ",
"t.t.t.t.t.t.t.t.t.c.,.V.V.N.r.t.t.t.t.t.t.t.t.t.t.t.t.9.B wXy &X>X:X- ; ;X5Xy 5X2XE g.f.J.|.}.XX$ I s.t.t.t.t.t.t.t.t.t.t.t.s.h ",
"t.t.t.t.6.u.t.t.t.6.,.B.N.M.r.t.t.t.t.t.t.t.t.t.t.t.t.F 6Xi =X;X3X3X>X5X3Xy *X1X4X6X8XH.XX(.L 9 O $ A.t.t.t.t.t.6.6.t.t.t.t.s.h ",
"t.t.t.u.<.B.0.t.t.6.,.N.r.t.t.t.t.t.M V V V B N d.r.M E nXn *X=X3X2X4X-X% u ;X;X-XcX9X;.{.I h.p.H -.7 g.t.t.t.7.,.M.r.t.t.t.s.h ",
"t.t.t.u.<.N.t.u.t.7.B.M.r.t.t.t.t.r.V G G G V G t.9.V y.MXbX<Xu 5X4XR aX6Xi &Xu W NX0 }.I a.t.t.h.Y 6 s.t.t.6.v.,.n.r.t.t.t.s.h ",
"t.t.t.t.<.V.V.N.r.t.t.t.t.t.t.t.M G 2.V.,.N.0.9.k f C.U kXMXNXW n R kXj.D.A.<XjXMXMX%.*.a.t.t.t.t.s.s.t.t.6.,.B.V.n.t.t.t.t.s.h ",
"t.t.t.6.,.B.,.N.r.t.t.t.t.t.t.t.M N 2.B.B.N.r.r.k f >.*.O.K mXNXlXeXC m 7.5.8XwX0Xa 9 f.t.u.u.u.u.t.t.t.t.u.<.V.B.M.t.t.u.u.s.h ",
"t.t.t.t.r.u.<.N.r.t.t.t.t.t.t.t.M B V B t.u.2.n.l s b.yXzX*.W W 6XA k c d.t.5.5.5.s.f.7.,.,.V.,.,.B.w.t.t.u.<.N.r.r.r.v.,.,.C.:.",
"t.t.t.t.t.6.<.N.r.t.t.t.t.t.t.t.M V V V g.A.Z.M.l A ^.vX0XN l c x z z c d.t.t.t.t.t.t.v.,.V.V.V.V.B.w.t.t.6.<.N.r.t.0.7.,.,.C.:.",
"t.t.t.t.t.r.0.r.t.t.t.t.t.t.t.t.u.u.5.g.a K & f x.~.hX0X3.t.d.d.d.d.d.d.t.t.t.t.t.t.t.t.w.u.,.B.B.V.,.V.e.t.0.r.t.v.<.,.V.M.e.h ",
"t.t.t.t.t.t.t.t.t.t.t.t.t.t.d.d.d.d.7.A.9 2 -.X *.xXgXj t.t.t.t.t.t.t.t.t.t.t.t.t.t.t.t.t.c.2.<.<.<.<.,.w.t.t.t.t.c.2.<.<.B.a.h ",
"t.t.t.t.t.t.t.t.t.t.t.t.t.r.M M M M M M A.H 0 1 2 vXtX0.t.t.t.t.t.t.t.t.t.t.t.t.t.t.t.t.t.t.w.w.w.w.w.w.t.t.t.t.t.r.w.w.w.0.s.h ",
"t.t.t.t.t.t.u.u.u.u.u.u.d.r.C Z Z M V V d.g.A.7 # *.T 0.0.0.0.0.0.0.t.t.t.t.t.t.t.t.t.t.t.t.t.t.t.t.t.t.t.t.t.t.t.t.t.t.t.t.s.h ",
"t.t.t.t.t.r.M M M M M M M S U.2.I.,.l c d.t.t.h.t.d Y 7.2.<.<.<.<.,.w.t.t.t.t.t.t.t.t.t.t.t.t.t.t.t.t.t.t.t.t.t.t.t.t.t.t.t.s.h ",
"t.t.t.t.t.r.M M B V V V B D 1.V.V.m.l v d.t.t.t.t.t.9.6.V.B.B.V.V.B.w.t.t.t.t.t.t.t.t.t.t.t.t.t.t.t.t.t.t.t.t.t.t.t.t.t.t.t.s.h ",
"t.t.t.r.M G I.,.,.N.t.9.k b <.B.w.t.l v d.t.t.t.t.v.,.,.V.V.,.B.w.r.t.t.t.t.t.t.t.t.t.t.t.t.t.t.t.t.t.t.t.t.t.t.t.t.t.t.t.t.s.h ",
"t.t.t.t.M G 1.B.B.M.5.r.k m <.N.w.r.k v d.t.t.t.t.7.V.B.B.B.B.N.e.t.t.t.t.t.t.t.t.t.t.t.t.t.t.t.t.t.t.t.t.t.t.t.t.t.t.t.t.t.s.h ",
"t.t.t.t.M V V N t.v.1.z.k v d.t.k z V V d.t.t.t.t.t.t.t.t.t.t.t.t.t.t.t.t.t.t.t.t.t.t.t.t.t.t.t.t.t.t.t.t.t.t.t.t.t.t.t.t.t.s.h ",
"t.t.t.t.M V V N t.6.V.z.x m d.t.k v N N d.t.t.t.t.t.t.t.t.t.t.t.t.t.t.t.t.t.t.t.t.t.t.t.t.t.t.t.t.t.t.t.t.t.t.t.t.t.t.t.t.t.s.h ",
"t.t.t.t.t.t.t.t.t.t.t.t.t.t.t.t.t.t.t.t.t.t.t.t.t.t.t.t.t.t.t.t.t.t.t.t.t.t.t.t.t.t.t.t.t.t.t.t.t.t.t.t.t.t.t.t.t.t.t.t.t.t.s.h ",
"t.t.t.t.t.t.t.t.t.t.t.t.t.t.t.t.t.t.t.t.t.t.t.t.t.t.t.t.t.t.t.t.t.t.t.t.t.t.t.t.t.t.t.t.t.t.t.t.t.t.t.t.t.t.t.t.t.t.t.t.t.t.s.h ",
"t.t.t.t.t.t.t.t.t.t.t.t.t.t.t.t.t.t.t.t.t.t.t.t.t.t.t.t.t.t.t.t.t.t.t.t.t.t.t.t.t.t.t.t.t.t.t.t.t.t.t.t.t.t.t.t.t.t.t.t.t.t.s.h ",
"t.t.t.t.t.t.t.t.t.t.t.t.t.t.t.t.t.t.t.t.t.t.t.t.t.t.t.t.t.t.t.t.t.t.t.t.t.t.t.t.t.t.t.t.t.t.t.t.t.t.t.t.t.t.t.t.t.t.t.t.t.t.s.h ",
"t.t.t.t.t.t.t.t.t.t.t.t.t.t.t.t.t.t.t.t.t.t.t.t.t.t.t.t.t.t.t.t.t.t.t.t.t.t.t.t.t.t.t.t.t.t.t.t.t.t.t.t.t.t.t.t.t.t.t.t.t.t.s.h ",
"t.t.t.t.t.t.t.t.t.t.t.t.t.t.t.t.t.t.t.t.t.t.t.t.t.t.t.t.t.t.t.t.t.t.t.t.t.t.t.t.t.t.t.t.t.t.t.t.t.t.t.t.t.t.t.t.t.t.t.t.t.t.s.h ",
"t.t.t.t.t.t.t.t.t.t.t.t.t.t.t.t.t.t.t.t.t.t.t.t.t.t.t.t.t.t.t.t.t.t.t.t.t.t.t.t.t.t.t.t.t.t.t.t.t.t.t.t.t.t.t.t.t.t.t.t.t.t.s.h ",
"t.t.t.t.t.t.t.t.t.t.t.t.t.t.t.t.t.t.t.t.t.t.t.t.t.t.t.t.t.t.t.t.t.t.t.t.t.t.t.t.t.t.t.t.t.t.t.t.t.t.t.t.t.t.t.t.t.t.t.t.t.t.s.h "
};
