/* XPM */
static char *akumr_hc767[] = {
/* columns rows colors chars-per-pixel */
"64 64 179 2 ",
"   c #1F130D",
".  c #221D13",
"X  c #1C241B",
"o  c #262617",
"O  c #262618",
"+  c #3B2211",
"@  c #111F34",
"#  c #1B302C",
"$  c #0E2135",
"%  c #112739",
"&  c #283825",
"*  c #373A2A",
"=  c #252C34",
"-  c #293537",
";  c #223339",
":  c #482F1C",
">  c #543D25",
",  c #41373E",
"<  c #29442D",
"1  c #294731",
"2  c #324C38",
"3  c #275339",
"4  c #36563B",
"5  c #594225",
"6  c #5C442B",
"7  c #484F38",
"8  c #534C34",
"9  c #6B4C2D",
"0  c #764F2D",
"q  c #73552D",
"w  c #7C5B2D",
"e  c #6B4D32",
"r  c #60493D",
"t  c #714E34",
"y  c #69553A",
"u  c #795937",
"i  c #243E41",
"p  c #393C4B",
"a  c #214E45",
"s  c #2D5D41",
"d  c #2A5A48",
"f  c #2C6244",
"g  c #2B654D",
"h  c #396748",
"j  c #28695A",
"k  c #2A6B5D",
"l  c #366A52",
"z  c #2E7655",
"x  c #2B775D",
"c  c #307656",
"v  c #327A55",
"b  c #37795D",
"n  c #0F5366",
"m  c #115666",
"M  c #145C66",
"N  c #195D63",
"B  c #115969",
"V  c #295F64",
"C  c #176166",
"Z  c #196365",
"A  c #1D6A64",
"S  c #176E6D",
"D  c #196D6B",
"F  c #1B726C",
"G  c #246E66",
"H  c #257767",
"J  c #297661",
"K  c #277965",
"L  c #2C7C63",
"P  c #227668",
"I  c #227969",
"U  c #307E61",
"Y  c #415C42",
"T  c #484C5A",
"R  c #685942",
"E  c #4C6B4D",
"W  c #72654C",
"Q  c #496667",
"!  c #586A78",
"~  c #6B727C",
"^  c #895C1D",
"/  c #96611F",
"(  c #855D25",
")  c #8A5D24",
"_  c #845E2B",
"`  c #905F21",
"'  c #855E33",
"]  c #8D6225",
"[  c #84602C",
"{  c #8F6029",
"}  c #936423",
"|  c #9B6626",
" . c #92642A",
".. c #9C6D2B",
"X. c #846135",
"o. c #8A623B",
"O. c #89653E",
"+. c #996C36",
"@. c #9E7133",
"#. c #A26C29",
"$. c #A5722E",
"%. c #AB752E",
"&. c #A47334",
"*. c #AB7632",
"=. c #AB7834",
"-. c #A2753C",
";. c #AB7738",
":. c #AC793C",
">. c #836648",
",. c #946B41",
"<. c #9F7341",
"1. c #A77741",
"2. c #AA7B43",
"3. c #A67D52",
"4. c #5A873E",
"5. c #73A53F",
"6. c #2E805F",
"7. c #33835D",
"8. c #3B855C",
"9. c #3C8F5F",
"0. c #3E905E",
"q. c #2E8465",
"w. c #318664",
"e. c #398361",
"r. c #368D63",
"t. c #398E61",
"y. c #3A9163",
"u. c #528F4E",
"i. c #56944E",
"p. c #5A954B",
"a. c #5B9B4D",
"s. c #4B9556",
"d. c #43915B",
"f. c #41915C",
"g. c #4A9458",
"h. c #529451",
"j. c #579A50",
"k. c #649D47",
"l. c #669F47",
"z. c #619D4A",
"x. c #649F48",
"c. c #66A047",
"v. c #6DA242",
"b. c #6CA244",
"n. c #64A048",
"m. c #70A341",
"M. c #71A441",
"N. c #AD854C",
"B. c #AE906C",
"V. c #BCA377",
"C. c #6D7582",
"Z. c #76778E",
"A. c #747C8F",
"S. c #787891",
"D. c #7E9D98",
"F. c #898F8F",
"G. c #898EA1",
"H. c #8E98A7",
"J. c #909FAB",
"K. c #9E9DB8",
"L. c #A09EB6",
"P. c #92A8B1",
"I. c #BAAAA3",
"U. c #C8B38D",
"Y. c #D3B48C",
"T. c #E4CFA3",
"R. c #EBDBAB",
"E. c #AFAFCB",
"W. c #B1AFC3",
"Q. c #B8BBD3",
"!. c #BFC3D9",
"~. c #CEC4C2",
"^. c #CFC8C3",
"/. c #C6CAE9",
"(. c #CED3EB",
"). c #D3D4EB",
"_. c #D8D9EF",
"`. c #CFD3F2",
"'. c #D7D8F2",
/* pixels */
"r.r.r.r.r.r.r.r.r.r.r.r.r.r.r.r.r.r.r.r.r.r.r.r.r.r.r.r.r.r.r.r.r.r.r.r.r.r.r.r.r.r.r.r.r.r.r.r.r.r.r.r.r.r.r.r.r.r.r.r.r.r.r.c ",
"r.r.r.r.r.r.r.r.r.r.r.r.r.r.r.r.r.r.r.r.r.r.r.r.r.r.r.r.r.r.r.t.f.f.f.0.r.r.r.r.r.r.r.r.r.r.r.r.r.r.r.r.r.r.r.r.r.r.r.r.r.r.r.c ",
"r.r.r.r.r.r.r.r.r.r.r.r.r.r.r.r.r.r.r.r.r.r.r.r.r.r.r.r.r.r.r.d.v.M.M.x.r.r.r.r.r.r.r.r.r.r.r.r.r.r.r.r.r.r.r.r.r.r.r.r.r.r.r.c ",
"r.r.r.r.r.r.r.r.r.r.r.r.r.r.r.r.r.r.r.r.r.r.r.t.f.9.r.r.r.r.r.f.z.l.m.c.f.0.r.r.r.r.r.r.r.r.r.r.r.r.r.r.r.r.r.r.r.r.r.r.r.r.r.c ",
"r.r.r.r.r.r.r.r.r.r.r.r.r.r.r.r.r.r.r.r.r.r.r.d.M.z.t.r.r.r.r.r.r.d.M.M.5.l.r.r.r.r.r.r.r.r.r.r.r.r.r.r.r.r.r.r.r.r.r.r.r.r.r.c ",
"r.r.r.r.r.r.r.r.r.r.r.r.r.t.f.f.f.0.r.r.r.t.f.s.M.z.t.r.r.r.r.r.r.f.z.z.l.a.r.r.w.w.w.r.r.r.r.r.r.r.w.w.w.w.w.r.r.r.r.r.r.r.r.c ",
"r.r.r.r.r.r.r.r.r.r.r.r.r.d.m.M.M.z.r.r.r.f.m.M.M.z.t.r.r.r.r.r.r.r.r.r.r.r.r.q.F F S F r.r.r.r.r.w.F F D F F I r.r.r.r.r.r.r.c ",
"r.r.r.r.r.r.r.r.r.r.r.r.r.f.z.c.M.l.d.f.r.f.M.v.x.j.r.r.r.r.r.r.r.r.r.r.r.r.r.q.D D L L q.r.r.r.q.q.L L L L F I r.r.r.r.r.r.r.c ",
"r.r.r.r.r.r.r.r.r.r.r.r.r.r.r.d.v.M.M.z.r.f.5.z.t.r.r.r.r.r.r.r.r.r.r.r.r.r.t.q.n k v.p.F I r.w.F L v.v.v.p.F I r.r.r.r.r.r.r.c ",
"r.r.r.r.r.r.r.r.r.r.r.r.r.r.r.0.z.z.z.a.r.0.x.j.r.r.r.r.r.r.r.r.r.r.r.r.r.r.w.K B k z.i.U L q.q.L 8.M.M.M.p.S F r.r.r.r.r.r.r.c ",
"r.r.r.r.r.r.r.r.r.r.r.r.r.r.r.r.t.t.t.t.r.r.t.t.r.r.r.r.r.r.r.r.r.r.r.r.r.w.F F S P r.d.v.p.F L b.v.v.m.5.p.n Z r.r.r.r.r.r.r.c ",
"r.r.r.r.r.r.r.r.r.r.r.r.r.r.r.r.r.r.r.r.r.r.r.r.r.r.r.r.r.r.r.r.r.r.r.r.q.w.L L L L q.9.z.h.D J z.l.m.v.n.u.n Z r.r.r.r.r.r.r.c ",
"r.r.r.r.r.r.r.r.r.r.r.r.r.r.r.r.r.r.r.r.r.r.r.r.r.r.r.r.r.r.r.r.r.r.r.w.F L v.v.v.i.F I t.w.B Z r.d.M.x.t.w.n Z r.r.r.r.r.r.r.c ",
"r.r.r.r.r.r.r.r.r.r.r.r.r.t.f.f.f.0.r.r.r.r.r.r.r.r.r.r.r.r.r.r.r.r.r.w.S L z.a.c.h.I I q.H m Z r.0.x.a.q.L B A r.r.r.r.r.r.r.c ",
"r.r.r.r.r.r.r.r.r.r.r.r.r.f.b.v.v.z.r.r.r.r.r.r.r.r.r.r.r.r.r.r.r.r.r.w.F F F I t.r.r.L B m n Z r.r.t.w.m M D P r.r.r.r.r.r.r.c ",
"r.r.r.r.f.f.f.0.r.r.r.t.0.s.v.v.c.a.r.r.r.r.r.r.r.r.r.r.r.r.r.r.r.r.r.6.A A A G 7.r.r.q.Z M M A r.r.r.q.M Z F I r.r.r.r.r.r.r.c ",
"r.r.r.f.M.v.M.z.r.r.r.d.v.v.M.z.t.r.r.r.r.r.r.r.r.r.r.r.r.r.r.r.r.r.s 2 - - = = - b r.r.r.r.r.r.r.r.r.r.r.r.r.r.r.r.r.r.r.r.r.c ",
"r.r.r.0.c.b.M.x.f.9.r.f.x.c.c.a.r.r.r.r.r.r.r.r.r.r.r.r.r.r.r.r.r.h W I.~.~.~.~.^.F.1 s r.r.r.r.r.r.r.r.r.r.r.r.r.t.0.0.0.9.r.c ",
"r.r.r.r.r.d.M.M.M.z.t.r.r.r.r.r.r.r.r.r.r.r.r.r.r.r.r.r.r.r.r.7.E W U.U.Y.Y.Y.Y.Y.B.9 > h r.r.r.r.r.r.r.r.r.r.r.r.d.b.m.M.z.t.z ",
"r.r.r.r.r.f.c.c.b.a.t.r.r.r.r.r.r.r.r.r.r.r.r.r.r.r.r.r.r.r.e.h W U.T.N.@.@.&.&.&.=.1.,.5 h r.r.r.r.r.r.r.r.r.t.9.s.v.v.c.a.t.c ",
"r.r.r.r.r.r.r.r.r.r.r.r.r.r.r.r.r.r.r.r.r.r.r.r.r.r.r.r.r.t.2 u V.R.-.&.*.%.%.*.*.%.*.-.O.8 f r.r.r.r.r.r.r.r.d.m.m.M.z.t.r.r.c ",
"r.r.r.r.r.r.r.r.r.r.r.r.r.r.r.r.r.r.r.r.r.r.r.r.r.r.r.r.7.2 >.<.2.N.*.%.*.*.*.*.%.%.$.} X.> < t.r.r.r.r.r.r.r.f.x.x.c.a.t.r.r.c ",
"r.r.r.r.r.r.r.r.r.r.r.r.r.r.r.r.r.r.r.r.r.r.r.r.r.r.r.r.v o ,.;.=.*.*.%.*.*.*.*.%.%.%.) _ q 8 c r.r.r.r.r.r.r.r.r.r.r.r.r.r.r.c ",
"r.r.r.r.r.r.r.r.r.r.r.r.r.r.r.r.r.r.r.r.r.r.r.r.r.r.r.r.l 6 <.&.$.*.*.*.*.*.*.*.*.%.$.) ( [ e & 7.r.r.r.r.r.r.r.r.r.r.r.r.r.r.c ",
"r.r.r.r.r.r.r.r.r.r.r.r.r.r.r.r.r.r.r.r.r.r.r.r.r.r.r.v 7 3.-. .} ;.*.$.$.*.*.*.=.&...) ( [ 9 O 7.r.r.r.r.r.r.r.r.r.r.r.r.r.r.c ",
"r.r.r.r.r.r.r.r.r.r.r.r.r.r.r.r.r.r.r.r.r.r.r.r.r.r.r.f : 1.` ^ } ;.=./ #.%.%.*.=.@.^ ( _ [ t O 7.r.r.r.r.r.r.r.r.r.r.r.r.r.r.c ",
"r.r.r.r.r.r.r.r.r.r.r.r.r.r.r.r.r.r.r.r.r.r.r.r.r.r.7.E ,.;.&.] } ;.=.*.$.%.%.=...) ( ( _ ' t O 7.r.r.r.r.r.r.r.r.r.r.r.r.r.r.c ",
"r.r.r.r.r.r.r.r.r.r.r.r.r.r.r.r.r.r.r.r.r.r.r.r.r.r.3 e 2.=.;.....&.| *.*.%.*.;. .) ( ( _ ' t & 7.r.r.r.r.r.r.r.r.r.r.r.r.r.r.c ",
"r.r.r.r.r.r.r.r.r.r.r.r.r.r.r.r.r.r.r.r.r.r.r.r.r.8.* 0 :.=.$.%.=.&./ $.*.*.*.&. .( ( ( _ X.e & 7.r.r.r.r.r.r.r.r.r.r.r.r.r.r.c ",
"r.r.r.r.r.r.r.r.r.r.r.r.r.r.r.r.r.r.r.r.r.r.r.r.r.1 >.2.*.&.^ #.*.*.*.*.*.=.&.) ( ( ( _ w w y s r.r.r.r.r.r.r.r.r.r.r.r.r.r.r.c ",
"r.r.r.r.r.r.r.r.r.r.r.r.r.r.r.r.r.r.r.r.r.r.r.r.7.o O.;.*.=.&.%.*.*.%.%.=.&.) ) ( _ ( _ X.6 4 r.r.r.r.r.r.r.r.r.r.r.r.r.r.r.r.c ",
"r.r.r.r.r.r.r.r.r.r.r.r.r.r.r.r.r.r.r.r.r.r.r.r.e.. o.=.*.*.*.*.*.*.*.%...] ( _ _ ( _ X.5 Y 7.r.r.r.r.r.r.r.r.r.r.r.r.r.r.r.r.c ",
"r.r.r.r.r.r.r.r.r.r.r.r.r.r.r.r.r.r.r.r.r.r.r.r.7.. o.=.*.=.*.*.*.=.....] ( _ _ _ [ u 6 4 7.r.r.r.r.r.r.r.r.r.r.r.r.r.r.r.r.r.c ",
"r.r.r.r.r.r.r.r.r.r.r.r.r.r.r.r.r.r.r.r.r.r.r.r.e.. o.*.%.*.*.$.&.@.) ) ( _ _ _ w u R < 7.r.r.r.r.r.r.r.r.r.r.r.r.r.r.r.r.r.r.c ",
"r.r.r.r.r.r.r.r.r.r.r.r.r.r.r.r.r.r.r.r.r.r.r.r.7.O o.*.*.=.;.} ^ ( ( ) ( _ ' >.: o l r.r.r.r.r.r.r.r.r.r.r.r.r.r.r.r.r.r.r.r.c ",
"r.r.r.r.r.r.r.r.r.r.r.r.9.t.r.r.r.r.r.r.r.r.r.r.7.O o.:.&. .{ ] ( ( ( [ X.t + * h v r.r.r.r.r.r.r.r.r.r.r.r.r.r.r.r.r.r.r.r.r.c ",
"r.r.r.r.r.r.r.r.r.r.r.d.b.z.t.r.r.r.r.r.r.r.r.r.d   u +.+._ _ _ _ ' X.5 > 7 3 z r.r.r.r.r.r.r.r.r.r.r.r.r.r.r.r.r.r.r.r.r.r.r.c ",
"r.r.r.r.r.r.r.r.r.t.9.s.v.z.r.r.r.r.r.r.r.r.r.b T , r e e e e 9 e e R * 3 7.y.r.r.r.r.r.r.r.r.r.r.r.r.r.r.r.r.r.r.r.r.r.r.r.r.c ",
"r.r.r.r.r.r.r.r.r.d.b.v.M.z.t.r.r.r.r.r.r.t.g ~ ).Q.,   X # X X & < f r.r.r.r.r.r.r.r.r.r.r.r.r.r.r.r.r.r.r.r.r.r.r.r.r.r.r.r.c ",
"r.r.r.r.f.0.r.r.r.d.v.v.c.a.r.r.r.r.x z z d G./.(.!.p a J J k x 6.w.r.r.r.r.r.r.r.r.r.r.r.r.r.r.r.r.r.r.r.r.r.t.f.0.r.r.r.r.r.c ",
"r.r.r.f.v.a.r.r.r.d.v.z.9.t.r.r.l D.P.J.H.G.Q.'.Q.! V L l.b.b.i.F I r.r.r.r.r.r.r.r.r.r.r.r.r.r.r.r.r.r.r.r.r.f.b.a.t.r.r.r.r.c ",
"r.r.r.f.M.n.0.9.r.d.l.a.r.r.r.7.- W._.).)._.(.E.A.j K 8.v.M.M.a.L K r.r.r.r.r.r.r.r.r.r.r.r.r.r.r.r.r.r.r.r.0.s.M.z.t.r.r.r.r.c ",
"r.r.r.f.M.v.b.a.r.r.t.t.r.r.r.x ; W.).).).(./.Z.% k l.b.m.M.M.v.b.p.F I r.r.r.r.r.r.r.r.r.r.r.r.r.r.r.r.r.f.b.b.M.z.t.r.r.r.r.z ",
"r.r.r.f.b.b.M.z.r.r.r.r.r.r.r.6.i W.'.).).(./.S.$ j v.v.l.l.l.l.l.u.D F r.r.r.r.r.r.r.r.0.0.0.0.0.9.r.r.r.f.M.v.b.a.r.r.0.0.0.v ",
"r.r.r.r.t.d.M.z.r.r.r.r.r.r.r.q.G Q T Z.'.`./.S.@ j v.z.0.w.N N N N m Z r.r.r.r.r.r.r.d.b.b.b.b.b.a.r.r.r.f.M.z.9.t.r.d.b.b.b.4.",
"r.r.r.r.r.0.b.a.r.r.r.r.r.r.r.w.F A % T ).(./.S.% k l.a.r.L M B B B M Z r.r.r.r.r.r.r.d.c.b.M.M.M.l.9.t.r.f.b.a.r.r.9.s.v.v.b.4.",
"r.r.r.r.r.r.t.t.r.r.r.r.r.r.r.r.r.r.7.Q L.K.K.C.g r.t.t.r.r.r.r.r.r.r.r.r.r.r.r.r.r.r.r.r.d.v.M.M.m.b.z.r.r.t.t.r.d.b.v.M.z.y.c ",
"r.r.r.r.r.r.r.r.r.r.r.r.r.r.r.r.r.r.r.e.d i ; l t.r.r.r.r.r.r.r.r.r.r.r.r.r.r.r.r.r.r.r.r.f.b.b.b.b.b.z.r.r.r.r.r.d.b.b.b.a.t.z ",
"r.r.r.r.r.r.r.r.r.r.r.r.r.q.F F F F F I r.7.7.r.r.r.r.r.r.r.r.r.r.r.r.r.r.r.r.r.r.r.r.r.r.r.t.t.t.t.t.t.r.r.r.r.r.r.t.t.t.r.r.c ",
"r.r.r.r.r.r.r.r.r.r.r.r.r.q.P P P P D F r.r.r.r.r.r.r.r.t.9.9.9.t.t.r.r.r.r.r.r.r.r.r.r.r.r.r.r.r.r.r.r.r.r.r.r.r.r.r.r.r.r.r.c ",
"r.r.r.r.r.w.F F F F F F F U l.v.v.p.m Z r.r.r.r.r.r.r.d.b.v.v.v.v.z.r.r.r.r.r.r.r.r.r.r.r.r.r.r.r.r.r.r.r.r.r.r.r.r.r.r.r.r.r.c ",
"r.r.r.r.r.q.H H H P F F S L v.v.b.i.n Z r.r.r.r.r.r.t.g.v.M.M.v.b.a.r.r.r.r.r.r.r.r.r.r.r.r.r.r.r.r.r.r.r.r.r.r.r.r.r.r.r.r.r.c ",
"r.r.r.r.F L v.b.v.a.r.K m k v.x.0.w.n C r.r.r.r.r.d.b.v.M.M.M.x.t.t.r.r.r.r.r.r.r.r.r.r.r.r.r.r.r.r.r.r.r.r.r.r.r.r.r.r.r.r.r.c ",
"r.r.r.w.S L l.l.b.a.f.w.m j l.a.w.L B Z r.r.r.r.r.d.x.b.c.c.b.a.r.r.r.r.r.r.r.r.r.r.r.r.r.r.r.r.r.r.r.r.r.r.r.r.r.r.r.r.r.r.r.c ",
"r.r.r.w.F F P K t.d.b.u.m Z t.w.M M D F r.r.r.r.r.r.t.t.t.t.t.t.r.r.r.r.r.r.r.r.r.r.r.r.r.r.r.r.r.r.r.r.r.r.r.r.r.r.r.r.r.r.r.c ",
"r.r.r.w.F F F I r.d.b.u.N A r.q.M C F I r.r.r.r.r.r.r.r.r.r.r.r.r.r.r.r.r.r.r.r.r.r.r.r.r.r.r.r.r.r.r.r.r.r.r.r.r.r.r.r.r.r.r.c ",
"r.r.r.r.r.r.r.r.r.r.9.t.w.r.r.r.w.w.r.r.r.r.r.r.r.r.r.r.r.r.r.r.r.r.r.r.r.r.r.r.r.r.r.r.r.r.r.r.r.r.r.r.r.r.r.r.r.r.r.r.r.r.r.c ",
"r.r.r.r.r.r.r.r.r.r.r.r.r.r.r.r.r.r.r.r.r.r.r.r.r.r.r.r.r.r.r.r.r.r.r.r.r.r.r.r.r.r.r.r.r.r.r.r.r.r.r.r.r.r.r.r.r.r.r.r.r.r.r.c ",
"r.r.r.r.r.r.r.r.r.r.r.r.r.r.r.r.r.r.r.r.r.r.r.r.r.r.r.r.r.r.r.r.r.r.r.r.r.r.r.r.r.r.r.r.r.r.r.r.r.r.r.r.r.r.r.r.r.r.r.r.r.r.r.c ",
"r.r.r.r.r.r.r.r.r.r.r.r.r.r.r.r.r.r.r.r.r.r.r.r.r.r.r.r.r.r.r.r.r.r.r.r.r.r.r.r.r.r.r.r.r.r.r.r.r.r.r.r.r.r.r.r.r.r.r.r.r.r.r.c ",
"r.r.r.r.r.r.r.r.r.r.r.r.r.r.r.r.r.r.r.r.r.r.r.r.r.r.r.r.r.r.r.r.r.r.r.r.r.r.r.r.r.r.r.r.r.r.r.r.r.r.r.r.r.r.r.r.r.r.r.r.r.r.r.c ",
"r.r.r.r.r.r.r.r.r.r.r.r.r.r.r.r.r.r.r.r.r.r.r.r.r.r.r.r.r.r.r.r.r.r.r.r.r.r.r.r.r.r.r.r.r.r.r.r.r.r.r.r.r.r.r.r.r.r.r.r.r.r.r.c ",
"r.r.r.r.r.r.r.r.r.r.r.r.r.r.r.r.r.r.r.r.r.r.r.r.r.r.r.r.r.r.r.r.r.r.r.r.r.r.r.r.r.r.r.r.r.r.r.r.r.r.r.r.r.r.r.r.r.r.r.r.r.r.r.c ",
"r.r.r.r.r.r.r.r.r.r.r.r.r.r.r.r.r.r.r.r.r.r.r.r.r.r.r.r.r.r.r.r.r.r.r.r.r.r.r.r.r.r.r.r.r.r.r.r.r.r.r.r.r.r.r.r.r.r.r.r.r.r.r.c "
};
