/* XPM */
static char *ak5i5_00i08[] = {
/* columns rows colors chars-per-pixel */
"64 64 231 2 ",
"   c #020101",
".  c #090303",
"X  c #0D0C01",
"o  c #0B0608",
"O  c #0D0A0A",
"+  c #120B01",
"@  c #160807",
"#  c #0F1104",
"$  c #151205",
"%  c #181516",
"&  c #2D1F02",
"*  c #321F04",
"=  c #221E1F",
"-  c #33260C",
";  c #241F23",
":  c #262224",
">  c #2A2526",
",  c #2D2A2B",
"<  c #312628",
"1  c #312D2F",
"2  c #36312C",
"3  c #363334",
"4  c #3C3B3B",
"5  c #400000",
"6  c #580107",
"7  c #5C0005",
"8  c #620004",
"9  c #610008",
"0  c #402D12",
"q  c #4C3718",
"w  c #4C3619",
"e  c #513719",
"r  c #443E39",
"t  c #5F4F0D",
"y  c #68530E",
"u  c #484238",
"i  c #504532",
"p  c #3D3E49",
"a  c #463B4B",
"s  c #00415A",
"d  c #1D7F4F",
"f  c #296A57",
"g  c #2E7052",
"h  c #217857",
"j  c #0A4C66",
"k  c #044768",
"l  c #0D5366",
"z  c #135864",
"x  c #135A65",
"c  c #0C6869",
"v  c #146B6D",
"b  c #186968",
"n  c #1B736B",
"m  c #18756C",
"M  c #0E6870",
"N  c #126B70",
"B  c #206660",
"V  c #257666",
"C  c #267966",
"Z  c #444243",
"A  c #4C4848",
"S  c #53504B",
"D  c #575558",
"F  c #5D5C5B",
"G  c #6A5957",
"H  c #6F6651",
"J  c #5A4F61",
"K  c #595461",
"L  c #635F61",
"P  c #646363",
"I  c #686868",
"U  c #6C6A6B",
"Y  c #706F70",
"T  c #726F72",
"R  c #757373",
"E  c #787677",
"W  c #7C7679",
"Q  c #7B7B7A",
"!  c #BC0B02",
"~  c #BD0B0C",
"^  c #B90D0E",
"/  c #C30809",
"(  c #C10C14",
")  c #856B0F",
"_  c #83712A",
"`  c #937423",
"'  c #857856",
"]  c #82706F",
"[  c #817D7D",
"{  c #5D8A37",
"}  c #639B2E",
"|  c #649D38",
" . c #70A237",
".. c #74A53E",
"X. c #79A73C",
"o. c #76A83E",
"O. c #7CA93A",
"+. c #1D8053",
"@. c #248355",
"#. c #2A8756",
"$. c #22835A",
"%. c #298659",
"&. c #2E895D",
"*. c #318A5F",
"=. c #3C8E5E",
"-. c #309058",
";. c #3E905C",
":. c #248465",
">. c #2E8465",
",. c #2D8966",
"<. c #298769",
"1. c #2A896A",
"2. c #308663",
"3. c #368D63",
"4. c #398D61",
"5. c #398E61",
"6. c #318F68",
"7. c #369166",
"8. c #3A9362",
"9. c #3E9368",
"0. c #3A867D",
"q. c #5D984A",
"w. c #408F5C",
"e. c #41905B",
"r. c #659E46",
"t. c #699E43",
"y. c #639E49",
"u. c #66A046",
"i. c #6CA242",
"p. c #68A148",
"a. c #71A441",
"s. c #74AA42",
"d. c #44956D",
"f. c #4A9872",
"g. c #579D7B",
"h. c #59A07E",
"j. c #A5871B",
"k. c #B48E19",
"l. c #978E2D",
"z. c #9B8B2A",
"x. c #9C8D35",
"c. c #A38828",
"v. c #B69829",
"b. c #A39337",
"n. c #82AD37",
"m. c #85B036",
"M. c #C6AD38",
"N. c #FDCE1F",
"B. c #FDD01D",
"V. c #FECE23",
"C. c #FFDA28",
"Z. c #FFDB2A",
"A. c #FFDA34",
"S. c #FFE431",
"D. c #A89A48",
"F. c #ABA44C",
"G. c #918B75",
"H. c #A19B74",
"J. c #DDC14D",
"K. c #EED54D",
"L. c #FFEC49",
"P. c #FFF847",
"I. c #F4E059",
"U. c #CEC86F",
"Y. c #CBC577",
"T. c #CCC574",
"R. c #D2C67A",
"E. c #827F81",
"W. c #4E9285",
"Q. c #5EA081",
"!. c #64A887",
"~. c #6DAD91",
"^. c #77B798",
"/. c #72AAA1",
"(. c #848484",
"). c #8A8686",
"_. c #918C8D",
"`. c #92918F",
"'. c #928D93",
"]. c #959393",
"[. c #999496",
"{. c #9A9799",
"}. c #9D9A9B",
"|. c #A09A9B",
" X c #83BB9F",
".X c #A19CA4",
"XX c #86BDA3",
"oX c #95BDAC",
"OX c #A5A4A3",
"+X c #ABA6A6",
"@X c #ACABAB",
"#X c #B4AEAE",
"$X c #B7B4B3",
"%X c #BCBBBB",
"&X c #C1BDBE",
"*X c #91C3AB",
"=X c #9CC9B4",
"-X c #9BD3B8",
";X c #A5C8B6",
":X c #A9D3BF",
">X c #CBD4B6",
",X c #A2BEC9",
"<X c #C2BFC1",
"1X c #B6D9C7",
"2X c #B2D4CA",
"3X c #BBDBCC",
"4X c #BCE2CF",
"5X c #C3C3C3",
"6X c #CAC6C6",
"7X c #CCCACB",
"8X c #D3CCC8",
"9X c #CFD2CE",
"0X c #C8DBD7",
"qX c #D4D3D3",
"wX c #DBDAD8",
"eX c #E2D8D9",
"rX c #CFE8CD",
"tX c #C5E6D6",
"yX c #D5EADE",
"uX c #E2DEE2",
"iX c #C9E3E1",
"pX c #D5EBE2",
"aX c #DAEDE4",
"sX c #D6F1E4",
"dX c #DCF3E7",
"fX c #E7E8E7",
"gX c #E6F9ED",
"hX c #F4F1F1",
"jX c #F4F2F2",
"kX c #F8F8F8",
"lX c #FFFFFF",
/* pixels */
"3.3.3.3.3.3.3.3.3.3.3.3.3.3.3.3.3.3.3.3.3.3.3.3.3.3.3.3.3.3.3.3.3.3.3.3.3.3.3.3.3.3.3.3.3.3.3.3.3.3.3.3.3.3.3.3.3.3.3.3.3.3.7.g ",
"3.3.3.3.3.3.3.3.3.3.3.3.3.3.3.3.3.3.3.3.3.3.3.3.3.3.3.3.3.3.3.3.=.4.4.=.3.3.3.3.3.3.3.3.3.3.3.3.3.3.3.3.3.3.3.3.3.3.3.3.3.3.7.g ",
"3.3.3.3.3.3.3.3.3.3.3.3.3.3.3.3.3.3.3.3.3.3.3.3.3.3.3.3.3.3.3.4.n.X.X...<.3.3.3.3.3.3.3.3.3.3.3.3.3.3.3.3.3.3.3.3.3.3.3.3.3.7.g ",
"3.3.3.3.3.3.3.3.3.3.3.3.3.3.3.3.3.3.3.3.3.3.3.3.4.4.3.3.3.3.3.4...u.a.i.,.4.3.3.3.3.3.3.3.3.3.3.3.3.3.3.3.3.3.3.3.3.3.3.3.3.7.g ",
"3.3.3.3.3.3.3.3.3.3.3.3.3.3.3.3.3.3.3.3.3.3.2.=.O.i.3.3.3.3.3.3.<.2.O.a.O...>.3.3.3.3.3.3.3.3.3.3.3.3.3.3.3.3.3.3.3.3.3.3.3.7.g ",
"3.3.3.3.3.3.3.3.3.3.3.3.3.3.=.4.4.=.2.3.3.3.=.e...y.2.3.3.3.3.3.3.=.a.u.i.y.,.3.3.2.3.3.3.3.3.3.3.3.2.2.2.2.2.3.3.3.3.3.3.3.7.g ",
"3.3.3.3.3.3.3.3.3.3.3.3.3.w.O...X.a.<.3.3.=.O.....r.2.3.3.3.3.3.3.3.,.,.,.,.3.>.v v v n 4.3.3.3.3.3.M v v v v n 3.3.3.3.3.3.7.g ",
"3.3.3.3.3.3.3.3.3.3.3.3.3.=.i.r.a.i.3.=.3.4...i.u.q.2.3.3.3.3.3.3.3.3.3.3.3.3.2.v n C C 2.3.3.3.2.2.V C C C v n 3.3.3.3.3.3.7.g ",
"3.3.3.3.3.3.3.3.3.3.3.3.3.3.2.3.X.....a.<.4.X.r.,.3.3.3.3.3.3.3.3.3.3.3.3.3.3.2.j B O.r.v n 8.3.M n n.....t.M V 3.3.3.3.3.3.7.g ",
"3.3.3.3.3.3.3.3.3.3.3.3.3.3.3.4.i.r.u.y.,.=.i.q.2.3.3.3.3.3.3.3.3.3.3.3.3.3.2.>.l B i.q.V C 2.2.V C X.a...r.M n 3.3.3.3.3.3.7.g ",
"3.3.3.3.3.3.3.3.3.3.3.3.3.3.3.3.2.2.3.3.3.3.2.2.3.3.3.3.3.3.3.3.3.3.3.3.3.2.v v v n 3.e.X.r.N V n.a.i.i...t.k x 8.3.3.3.3.3.7.g ",
"3.3.3.3.3.3.3.3.3.3.3.3.3.3.3.3.3.3.3.3.3.3.3.3.3.3.3.3.3.3.3.3.3.3.3.3.2.2.V V V C >.=.i.q.M n o.u...i.u.q.k x 8.3.3.3.3.3.7.g ",
"3.3.3.3.3.3.3.3.3.3.3.3.3.3.3.3.3.3.3.3.3.3.3.3.3.3.3.3.3.3.3.3.3.3.3.2.v V n.....r.v n 4.>.j z 8.3.O.i.<.2.j x 8.3.3.3.3.3.7.g ",
"3.3.3.3.3.3.3.3.3.3.3.3.3.3.=.4.4.4.3.3.3.3.3.3.3.3.3.3.3.3.3.3.3.3.3.3.v V a.p.i.q.n V 3.C j x 8.4.a.r.<.>.l b 8.3.3.3.3.3.7.g ",
"3.3.3.3.3.3.3.3.3.3.3.3.2.=.X.......:.%.%.%.#.%.3.3.3.3.3.3.3.3.3.3.3.3.N n N v %.%.#.h s k l x 8.3.2.>.k l n n 3.3.3.3.3.3.7.g ",
"3.3.3.3.3.3.3.3.3.3.3.3.3.=...a.a.| ^.4XtXtX3X;Xd.&.3.3.9.3.3.3.3.3.3.3.n n b 0.*X1XtXpX0XW.x x 8.3.3.3.j x n n 3.3.3.3.3.3.7.g ",
"3.3.3.=.m.O.O.i.2.3.3.e.O.X...i.m W.lXL O . |.lXhXh.9.%.*.&.%.%.%.%.%.%.#.#.8.yXlXG.o . (.gX-.8.3.3.3.3.8.8.8.8.3.3.3.3.3.3.7.g ",
"3.3.3.=.X.i...u.2.3.2.;...a...| !.lX(.].5X5XI Y lXhXfXyXaXpXtXtX3X3X4XtXaX0XaXlXU Q 5X5XE.}.=X%.3.3.3.3.3.3.3.3.3.3.3.3.3.3.7.g ",
"3.3.3.3.<.3.....O.i.2.2.<.<.:.W.lXE.  %XlXlXR A lXlXhXa J J K D J D D D p lXlXlX3 [.lXlX{.  _.gX4.3.3.3.3.3.3.3.3.e.O.O.O.a.6.g ",
"3.3.3.3.3.4...i.a.y.2.3.3.3.#.yXP `.%XF +X@X  S lX5Xi v.k.j.j.j.c.j.j.j.b.i 7XlX4 . &X{.P %X(.W 2X%.3.3.3.3.3.3.2.;.a.a...r.3.g ",
"3.3.3.3.3.3.<.,.,.,.3.3.3.3.%.dXo 5XlX+X7X5XE ).E H c.K.` L.S.A.A.Z.Z.Z.L.` H E (.R 9X7X$XlX%X> 4X%.3.3.3.3.3.e.O.....y.<.,.7.g ",
"3.3.3.3.3.3.3.3.3.3.3.3.3.3.#.dX  6XlX@X5XlXlX@X. v.K.t _ I.) V.V.N.B.V.N.Z.k.  <XlXlX%X%XlX5X; 4X%.3.3.3.3.3.=.i.i.i.y.3.3.7.g ",
"3.3.3.3.3.3.3.3.3.3.3.3.3.3.&.dX.XU E   E lX$XH v.J.y c.K.t ` N.B.B.B.V.N.B.L.c.H &XlXE O R Y $X1X@.3.3.3.3.3.3.2.2.2.2.3.3.7.g ",
"3.3.3.3.3.3.3.3.3.3.3.3.3.3.3.3.lXR u F ).+X' z.P.M._ P.K.y L.Z.Z.Z.Z.Z.Z.A.Z.P._ ' +X[ D A W kX@.3.3.3.3.3.3.3.3.3.3.3.3.3.7.g ",
"3.3.3.3.3.3.3.3.3.3.3.3.3.3.3.&.9.^.!.-X@X. i F.z.b.D.c.x.D.x.x.c.z.z.z.z.x.z.l.F.2 O @X-X~.!.3.3.3.3.3.3.3.3.3.3.3.3.3.3.3.7.g ",
"3.3.3.3.3.3.3.3.3.3.3.3.3.3.3.%.d.!.!.^.lX|.@ 7 9 9 9 7 9 8 8 6 9 7 7 6 7 7 8 8 9 @ $XlX;XXX^.!.&.3.3.3.3.3.3.3.3.3.3.3.3.3.7.g ",
"3.3.3.3.3.3.3.3.3.3.3.3.3.3.d.;XhX9X6X6XwXG 6 ^ / ~ ~ ^ ~ / ! ~ ( / ~ ~ / ! ! / ( 5 ] qX8X8XeXlX&.3.3.3.3.3.3.3.3.3.3.3.3.3.7.g ",
"3.3.3.3.3.3.3.3.3.3.3.3.3.&.Q.lX8Xi & * * 0 q w w w w w q q e e e q q e e q e e q w - & * & r eX0X%.3.3.3.3.3.3.3.3.3.3.3.3.7.g ",
"3.3.3.3.3.3.3.3.3.3.3.3.3.&.Q.lX> H.R.T.U.R.R.R.Y.Y.Y.Y.T.T.T.U.T.T.T.T.R.T.Y.Y.R.R.R.T.U.R.G.u aX%.3.3.3.3.3.3.3.3.3.3.3.3.7.g ",
"3.3.3.3.3.3.3.3.3.3.3.3.3.&.!.lXlXu . X $     + X + + # $ X X + X X + $ @ + X X +     $ + X S lX~.&.3.3.3.3.3.3.3.3.3.3.3.3.7.g ",
"3.3.3.3.3.3.3.3.3.3.3.3.3.3.*.oXkXlXlXlXlXQ (.lXlXlXlXwXuXlXlXlXlXlXlXuXwXlXlXlXlXU }.lXaXyXgX=X@.3.3.3.3.3.3.3.3.3.3.3.3.3.7.g ",
"3.3.3.3.3.3.3.3.3.3.3.3.3.3.3.@.!.~.Q.oXlXY E lXlXlXfX  , lXlXlXlXlXlX<   lXlXlXlXK ].=X*.&.*.&.3.3.3.3.3.3.3.3.3.3.3.3.3.3.7.g ",
"3.3.3.3.3.3.3.3.3.3.3.3.3.3.3.3.&.&.%.d.lXR E lXlX(.  .     hXlXlXhX    .   _.lXlXF [.:X@.3.3.3.3.3.3.3.3.3.3.3.3.3.3.3.3.3.7.g ",
"3.3.3.3.3.3.3.3.3.3.3.3.3.3.3.3.3.3.*.f.lXY E lXOX. . . .   4 hXfX1   . . . . &XlXF [.2X%.3.3.3.3.3.3.3.3.3.3.3.3.3.3.3.3.3.7.g ",
"3.3.3.3.3.3.3.3.3.3.3.3.3.3.3.3.3.3.*.f.lXP E lXlX}.  .   O lXlXlXlX    .   @XlXlXD _.1X%.3.3.3.3.3.3.3.3.3.3.3.3.3.3.3.3.3.7.g ",
"3.3.3.3.3.3.3.3.3.3.3.3.3.3.3.3.3.3.*.f.lXkXF D lXlX%X  = kXlXlXlXlXhX=   qXlXlXD E hXf.*.3.3.3.3.3.3.3.3.3.3.3.3.3.3.3.3.3.7.g ",
"3.3.3.3.3.3.3.3.3.3.2.e.X.i.,.3.3.3.9.*.3XhXlX{.F lXkX6XqXhX: , , > lXqX6XlXlXr }.lX!.@.3.3.3.3.3.3.3.3.3.3.3.3.3.3.3.3.3.3.7.g ",
"3.3.3.3.3.3.3.3.3.3.3.e...u.,.3.3.3.%. XfXlX[ F OXD lXlXlXfX        kXlXlXlXA %XZ {.lXd.*.3.3.3.3.3.3.3.3.3.3.3.3.3.3.3.3.3.7.g ",
"3.3.3.3.3.3.3.3.3.=...a.a.u.2.3.&.9.XXhXlX|.U wX@X  4 Q lXlX<X6X6X&XlXlXR 4   7X7XF 6X1X@.&.&.3.3.3.3.3.3.3.3.3.3.3.3.3.3.3.7.g ",
"3.3.3.3.=.4.3.3.3.=...i.u.y.,.&.9XlXlXlX(.F fXlXOXZ %X  , , r 3 3 Z , 1   7X3 %XlXfXA [.-X^.XX9.*.3.3.3.3.3.3.3.=.=.3.3.3.3.7.g ",
"3.3.3.4.X.i.,.3.3.=...u.2.3.*.oXlXU 3 4 Q wXlXlXOX. 4 1 5X+X% %X@XO %X%X= Z o &XlXlXqXE Z 4 W lX@.3.3.3.3.3.3.;...y.2.3.3.3.7.g ",
"3.3.3.4.X.u.3.4.3.;.i.y.2.&.!.lX(.E {.  E lXlXlX@X% _.O R L O U I . I Y   {.% 6XlXlXlXE % ].Q |.tX@.3.3.3.3.=.e...r.2.3.3.3.7.g ",
"3.3.3.3.X.a.a.u.2.3.3.3.3.*.g.lX  5XlX%XqXlXlX5XF }.D % OX_.% }.].O }.OX. I OXD 9XlXlX7X7XlX5X: pX@.3.3.3.=...i.a.r.3.3.3.3.7.g ",
"3.3.3.=...i...u.2.3.3.3.3.*.g.lX  5XlX{.7X%XE E +XOX  `.).E O (.Q . ).(.].  $X{.E E 7X5X@XlX5X: sX#.3.3.3.4.X.a.i.y.3.3.4.4.7.g ",
"3.3.3.3.2.4.X.u.2.3.3.3.3.*.g.lXE [ {.P $X%XO S lX7XU ].P F P F F L F I ].U qXlX4 % 6X@XI ].E '.>X| <.3.3.4.X.u.2.2.2.e.....s.{ ",
"3.3.3.3.3.=.X.u.2.3.3.3.3.3.d.fXlX].  %XlXlXR A ,X2XkXI ].lXlXlXlXlXlX].F lX1X*X4 ].lXlX].. .XkX} i.<.3.3.=.X.u.2.3.,.;.....s.{ ",
"3.3.3.3.3.2.,.2.3.3.3.3.3.3.*.&.0XlX(.(.%X5XY (. X+.3XeXZ 5X%X%X%X%X5XZ hX1Xd *XW Q 5X5XE .XrX| ..a...a.,.3.,.2.3.e.X...a.y.1.f ",
"3.3.3.3.3.3.3.3.3.3.3.3.3.3.8.=.d.;XlXR > = #XlX4.&.3.XXhX% 1 1 1 1 ; hXXX3.&.d.kX}.: > '.gX .X.X.X.X...<.3.3.3.3.e.O.X.X.i.6.g ",
"3.3.3.3.3.3.3.3.3.3.3.3.3.2.v v v c /.iXsXdXaXd.&.3.3.+.1XdXsXsXsXsXsX1Xd 3.3.*.@.aXdXdX3X%.:.<.<.<.<.<.3.3.3.3.3.2.<.<.<.,.7.g ",
"3.3.3.3.3.3.4.4.4.4.4.4.8.2.M N N v v c #.%.%.*.3.3.3.3.:.$.+.$.$.$.@.%.3.3.3.3.3.&.%.%.%.3.3.3.3.3.3.3.3.3.3.3.3.3.3.3.3.3.7.g ",
"3.3.3.3.3.2.v v v v v v N V m.O.n...k x 8.3.3.3.3.3.2.e.O.X.X.X.X...<.3.3.3.3.3.3.3.3.3.3.3.3.3.3.3.3.3.3.3.3.3.3.3.3.3.3.3.7.g ",
"3.3.3.3.3.2.v v n n n n v C o.a.a.t.k x 8.3.3.3.3.3.2.e.a.i.i.a.a.i.,.3.3.3.3.3.3.3.3.3.3.3.3.3.3.3.3.3.3.3.3.3.3.3.3.3.3.3.7.g ",
"3.3.3.2.v V n.....u.3.>.j x X.i.<.3.k x 8.3.3.3.3.e.....a.a...i.<.2.3.3.3.3.3.3.3.3.3.3.3.3.3.3.3.3.3.3.3.3.3.3.3.3.3.3.3.3.7.g ",
"3.3.3.3.v V o.i.i.y.=.2.j b X.u.<.2.j x 8.3.3.3.3.;.a.i.i.i.i.u.,.3.3.3.3.3.3.3.3.3.3.3.3.3.3.3.3.3.3.3.3.3.3.3.3.3.3.3.3.3.7.g ",
"3.3.3.3.v n n n 3.e.o.q.j x 8.3.j l n n 8.3.3.3.3.3.3.3.3.3.3.3.3.3.3.3.3.3.3.3.3.3.3.3.3.3.3.3.3.3.3.3.3.3.3.3.3.3.3.3.3.3.7.g ",
"3.3.3.3.v n n n 3.=.a.q.l b 8.3.j x n n 8.3.3.3.3.3.3.3.3.3.3.3.3.3.3.3.3.3.3.3.3.3.3.3.3.3.3.3.3.3.3.3.3.3.3.3.3.3.3.3.3.3.7.g ",
"3.3.3.3.3.3.3.3.3.3.3.3.3.3.3.3.3.3.3.3.3.3.3.3.3.3.3.3.3.3.3.3.3.3.3.3.3.3.3.3.3.3.3.3.3.3.3.3.3.3.3.3.3.3.3.3.3.3.3.3.3.3.7.g ",
"3.3.3.3.3.3.3.3.3.3.3.3.3.3.3.3.3.3.3.3.3.3.3.3.3.3.3.3.3.3.3.3.3.3.3.3.3.3.3.3.3.3.3.3.3.3.3.3.3.3.3.3.3.3.3.3.3.3.3.3.3.3.7.g ",
"3.3.3.3.3.3.3.3.3.3.3.3.3.3.3.3.3.3.3.3.3.3.3.3.3.3.3.3.3.3.3.3.3.3.3.3.3.3.3.3.3.3.3.3.3.3.3.3.3.3.3.3.3.3.3.3.3.3.3.3.3.3.7.g ",
"3.3.3.3.3.3.3.3.3.3.3.3.3.3.3.3.3.3.3.3.3.3.3.3.3.3.3.3.3.3.3.3.3.3.3.3.3.3.3.3.3.3.3.3.3.3.3.3.3.3.3.3.3.3.3.3.3.3.3.3.3.3.7.g ",
"3.3.3.3.3.3.3.3.3.3.3.3.3.3.3.3.3.3.3.3.3.3.3.3.3.3.3.3.3.3.3.3.3.3.3.3.3.3.3.3.3.3.3.3.3.3.3.3.3.3.3.3.3.3.3.3.3.3.3.3.3.3.7.g ",
"3.3.3.3.3.3.3.3.3.3.3.3.3.3.3.3.3.3.3.3.3.3.3.3.3.3.3.3.3.3.3.3.3.3.3.3.3.3.3.3.3.3.3.3.3.3.3.3.3.3.3.3.3.3.3.3.3.3.3.3.3.3.7.g ",
"3.3.3.3.3.3.3.3.3.3.3.3.3.3.3.3.3.3.3.3.3.3.3.3.3.3.3.3.3.3.3.3.3.3.3.3.3.3.3.3.3.3.3.3.3.3.3.3.3.3.3.3.3.3.3.3.3.3.3.3.3.3.7.g ",
"3.3.3.3.3.3.3.3.3.3.3.3.3.3.3.3.3.3.3.3.3.3.3.3.3.3.3.3.3.3.3.3.3.3.3.3.3.3.3.3.3.3.3.3.3.3.3.3.3.3.3.3.3.3.3.3.3.3.3.3.3.3.7.g "
};
