/* XPM */
static char *arobm_4hhg3[] = {
/* columns rows colors chars-per-pixel */
"32 32 226 2 ",
"   c #290000",
".  c #3A0005",
"X  c #330124",
"o  c #460500",
"O  c #550002",
"+  c #580405",
"@  c #5B0D01",
"#  c #47071A",
"$  c #520B17",
"%  c #561717",
"&  c #680603",
"*  c #780000",
"=  c #681909",
"-  c #731802",
";  c #6C1C17",
":  c #4E211B",
">  c #5F2910",
",  c #782902",
"<  c #672719",
"1  c #772614",
"2  c #723113",
"3  c #4C0C29",
"4  c #54322E",
"5  c #692724",
"6  c #6E392A",
"7  c #7D421E",
"8  c #755519",
"9  c #5F463E",
"0  c #6F4C33",
"q  c #00375E",
"w  c #002D68",
"e  c #00376C",
"r  c #002671",
"t  c #583343",
"y  c #7D3C5B",
"u  c #2B7C5C",
"i  c #317E5A",
"p  c #034065",
"a  c #005368",
"s  c #015C75",
"d  c #005979",
"f  c #0F666F",
"g  c #0C7D68",
"h  c #18776C",
"j  c #006275",
"k  c #0B6472",
"l  c #097779",
"z  c #177E73",
"x  c #247A61",
"c  c #7D4748",
"v  c #7E574A",
"b  c #7A646C",
"n  c #840802",
"m  c #89191C",
"M  c #BB1402",
"N  c #813406",
"B  c #862516",
"V  c #973917",
"C  c #A7230E",
"Z  c #81322C",
"A  c #BE2A25",
"S  c #854F00",
"D  c #964807",
"F  c #9B5709",
"G  c #81481A",
"H  c #9E4816",
"J  c #985B1A",
"K  c #A1571E",
"L  c #96670D",
"P  c #996F13",
"I  c #A76718",
"U  c #A77F1D",
"Y  c #954A27",
"T  c #8B5626",
"R  c #92502B",
"E  c #884C36",
"W  c #9C5D3C",
"Q  c #A44A2F",
"!  c #A65728",
"~  c #946A36",
"^  c #9A6B35",
"/  c #AA6828",
"(  c #AA7728",
")  c #A86B39",
"_  c #AA7A36",
"`  c #B77B30",
"'  c #CA7535",
"]  c #885245",
"[  c #985B4A",
"{  c #915654",
"}  c #A85144",
"|  c #946548",
" . c #9C735A",
".. c #AD7645",
"X. c #B37759",
"o. c #865869",
"O. c #876764",
"+. c #977C65",
"@. c #A57877",
"#. c #D14A46",
"$. c #C07440",
"%. c #779A30",
"&. c #72AC34",
"*. c #76A63C",
"=. c #79AB38",
"-. c #1C8757",
";. c #248656",
":. c #278F53",
">. c #248759",
",. c #268A5C",
"<. c #2B8B5D",
"1. c #27915D",
"2. c #3B925F",
"3. c #339B5B",
"4. c #1B8C65",
"5. c #1D836D",
"6. c #1B9668",
"7. c #168176",
"8. c #1B8271",
"9. c #0C9072",
"0. c #2B8766",
"q. c #288B66",
"w. c #2D8A65",
"e. c #24856C",
"r. c #298669",
"t. c #3E8665",
"y. c #358D63",
"u. c #388E60",
"i. c #269365",
"p. c #2B9265",
"a. c #2B956A",
"s. c #26986A",
"d. c #359063",
"f. c #379667",
"g. c #3A9360",
"h. c #429D60",
"j. c #43956E",
"k. c #42A061",
"l. c #AB8512",
"z. c #81AA1E",
"x. c #AF8128",
"c. c #BA8B28",
"v. c #AE8838",
"b. c #B88638",
"n. c #BA9637",
"m. c #8EAE2E",
"M. c #87B529",
"N. c #93B12C",
"B. c #9ABB2A",
"V. c #83AB34",
"C. c #8AAE31",
"Z. c #8EB331",
"A. c #82B439",
"S. c #A1BF28",
"D. c #BBA436",
"F. c #C28B36",
"G. c #C09737",
"H. c #C4A025",
"J. c #A5C426",
"K. c #9F8556",
"L. c #A9854E",
"P. c #BA8841",
"I. c #B28B53",
"U. c #B89255",
"Y. c #BDA346",
"T. c #B29475",
"R. c #CA9945",
"E. c #CE9850",
"W. c #D69958",
"Q. c #C1AA48",
"!. c #DDA646",
"~. c #D4A64A",
"^. c #C6A757",
"/. c #D5AA53",
"(. c #DBBB55",
"). c #C99E68",
"_. c #C28C72",
"`. c #D4B76E",
"'. c #D2A871",
"]. c #E5AA6B",
"[. c #D7C559",
"{. c #E8C754",
"}. c #DAC66A",
"|. c #D8CC78",
" X c #DAD278",
".X c #FAC376",
"XX c #867589",
"oX c #9F7586",
"OX c #B97880",
"+X c #51A488",
"@X c #9F8385",
"#X c #AA8987",
"$X c #B09290",
"%X c #B89996",
"&X c #A791A3",
"*X c #92B9A6",
"=X c #C9A38F",
"-X c #D9B687",
";X c #C5A79D",
":X c #C9AAA8",
">X c #DABEA6",
",X c #C6A6B9",
"<X c #D3AAB5",
"1X c #C8B5BE",
"2X c #D2B3B6",
"3X c #DAC399",
"4X c #E4CD92",
"5X c #F4EA8D",
"6X c #FBF49C",
"7X c #E7CBA4",
"8X c #FDF6A9",
"9X c #FFFFBA",
"0X c #B8ACC5",
"qX c #D6B7CB",
"wX c #D5BFE0",
"eX c #B2C6C1",
"rX c #D9C6CA",
"tX c #C4C2D9",
"yX c #DCCAD7",
"uX c #EBC8D9",
"iX c #E8D3DE",
"pX c #F9D6DC",
"aX c #E8D6E2",
"sX c #F1DEE9",
"dX c #F8ECFA",
"fX c #F7F4F6",
/* pixels */
"y.y.y.y.y.y.y.y.y.y.y.y.y.y.y.y.0.0.y.;.rX2X,.y.y.y.y.y.y.y.y.i ",
"y.y.y.y.y.y.y.y.y.y.y.y.y.y.y.0.N.C.e.,.#X[ p.y.y.y.y.y.y.y.y.i ",
"y.y.y.y.y.y.y.y.y.y.y.0.N.r.y.y.g V.m.4.%X@.q.y.y.y.y.y.y.y.y.i ",
"y.y.y.y.y.y.y.N.C.e.w.N.*.0.y.-.*XoX9.i.%XE p.u.g.s k f g.y.d.i ",
"y.y.y.y.y.y.y.8.V.V.5.V.8.y.>.pXM * m o.#XW j g.s B.Z.s g.y.d.i ",
"y.y.y.y.y.y.y.y.r.r.y.r.y.y.4.-X- #.A m @  .M.d S.*.=.e g.y.d.i ",
"y.y.y.y.y.y.y.y.y.y.y.y.y.p.6 6X% ..B & 1 ] aXq a.C.8.p g.y.y.i ",
"y.y.0.w.y.y.r.N.N.e.y.,.wX:X( l.~.).4 X E T.rXq h.q.w h g.y.y.i ",
"y.0.B.V.e.0.N.=.z y.y.a.: c.'.D.P J !.~ 0 _ &X3.y.y.k.2.y.0.y.i ",
"y.y.z C.m.r.e.e.u.y.y.i./ U P.( I F.[.J | < @X,.y.y.y.y.0.N.Z.x ",
"y.y.y.e.e.y.y.y.y.y.,.:XN 6XQ.P ).v.v.E.G _ O.sX;.y.y.y.N.*.7.i ",
"y.y.y.y.y.y.y.y.y.y.,.:X0 `. X0 ].n.F b.0 T.4.;.y.y.y.y.r.r.g.i ",
"y.y.y.y.y.y.y.y.y.-.yX;Xv -X= _ 1 H X.O.% E s.w.w.y.y.y.y.y.y.i ",
"y.y.y.y.y.y.y.y.,.1X, R.G ..x.I Q.I [ 6.W 5 $.Y ,X<.y.y.y.y.y.i ",
"y.y.y.y.y.y.y.,.<XN .XG G.5XD.`.n., I.1 ).^.> ) . 2X<.y.y.y.y.i ",
"y.y.y.y.y.y.y.;.dX2 R T 5XS [.Y.U. X` ^ $ < L.9 #Xc d.y.y.y.y.i ",
"y.y.y.y.y.y.y.p.b W.- {.P 4Xv.L.[.^.R.V 7 W ' v 6.p.y.y.y.y.y.i ",
"y.y.y.y.y.y.-.qXB & + T./.8X6X/. Xn.D +.tX. O K iX-.y.y.y.y.y.i ",
"y.y.y.y.y.;.uXn.' < 6.dX@ }.|.( F V R 4.>XP _ ; 0 sX<.y.y.y.y.i ",
"y.y.y.y.0.M.) !.& s.i.5 F.l.D.l.(.Q ( < 2 ~ %Xs.p.>.y.y.y.y.d.i ",
"y.0.N.5.;.dXW.o fXa rXH D `  XI / x.! Q 6 0X-.y.y.y.y.w.C.r.d.i ",
"y.0.V.V.4._.J @Xa B.&.= ..U.b.W.~ / / ! Y 3 a.0.y.y.0.m.*.r.y.u ",
"y.y.5.N.5.F {.+ dXa 2X!.=  .'.O & R [.( c.o dX&.V.z 0.m.8.r.Z.%.",
"y.y.y.r.y.4.;X$X:.3._.n.] O n C n } ^ ~.Y.< % A.*.N.e.r.y.N.=.h ",
"y.y.y.2.g.2.1.d s l - 9X  . @.OX9.t /.}.( T F qXg 5.u.y.y.5.e.i ",
"y.y.g.d s k k J.J.r H.P.# XX&.&.z.dXK.o 7X8 {.o uX,.y.y.y.y.d.i ",
"y.u.s J.Z.p.e B.7._.8X. # &X&.=.7.1.X : 8XT L ; eX<.y.y.y.y.y.i ",
"y.2.k j w.N.e f.w T /.# $ iXe.0.y.p.XXc b.8 R.+X>.y.y.y.y.y.y.i ",
"y.y.g.g.y.w.g.y.:.sX4X> y -.y.y.y.>.yXU.`.Z 6.y.y.y.y.y.y.y.y.i ",
"y.y.y.y.y.y.y.y.y.;.6.. ,X<.y.y.y.y.-.3X@ { p.y.y.y.y.y.y.y.y.i ",
"y.y.y.y.y.y.y.y.y.q.'.> i.y.y.y.y.y.>.rX& X.i.y.y.y.y.y.y.y.y.i ",
"j.j.j.j.j.j.j.j.j.j.f.j.j.j.j.j.j.j.j.i.=X>Xd.j.j.j.j.j.j.j.j.t."
};
