/* XPM */
static char *asua2_fsruc[] = {
/* columns rows colors chars-per-pixel */
"32 32 226 2 ",
"   c #320003",
".  c #3C0000",
"X  c #31000A",
"o  c #2C0025",
"O  c #470802",
"+  c #580402",
"@  c #5D1602",
"#  c #450618",
"$  c #520E18",
"%  c #50131F",
"&  c #670502",
"*  c #740504",
"=  c #691B08",
"-  c #731704",
";  c #671A19",
":  c #4F2417",
">  c #5E2514",
",  c #762702",
"<  c #6F360E",
"1  c #672616",
"2  c #782212",
"3  c #7C3918",
"4  c #430328",
"5  c #4A2526",
"6  c #713329",
"7  c #7E4B13",
"8  c #735317",
"9  c #5B443C",
"0  c #6F4629",
"q  c #7C4E33",
"w  c #00375C",
"e  c #002966",
"r  c #013A69",
"t  c #563442",
"y  c #7B3B59",
"u  c #034869",
"i  c #005669",
"p  c #015B75",
"a  c #005A7A",
"s  c #086E6E",
"d  c #056676",
"f  c #0A6371",
"g  c #157E74",
"h  c #197D71",
"j  c #217A76",
"k  c #7C4E4B",
"l  c #706041",
"z  c #7A6571",
"x  c #850601",
"c  c #88131C",
"v  c #833405",
"b  c #86251A",
"n  c #963714",
"m  c #A5200B",
"M  c #C01603",
"N  c #C12A25",
"B  c #954706",
"V  c #8D520F",
"C  c #985609",
"Z  c #884B1D",
"A  c #994818",
"S  c #A35A1D",
"D  c #96690A",
"F  c #956E1A",
"G  c #A6660E",
"H  c #A26B1E",
"J  c #A27716",
"K  c #88472B",
"L  c #964829",
"P  c #895825",
"I  c #9C5C27",
"U  c #884C39",
"Y  c #974E34",
"T  c #8A563A",
"R  c #94583C",
"E  c #AB4925",
"W  c #A35037",
"Q  c #966F31",
"!  c #996C35",
"~  c #AA6826",
"^  c #A97725",
"/  c #B57B2E",
"(  c #A46C3A",
")  c #AB7935",
"_  c #CC7837",
"`  c #8A4F4F",
"'  c #985949",
"]  c #A95143",
"[  c #926B4E",
"{  c #A4794B",
"}  c #B1744A",
"|  c #B47A5B",
" . c #8A6565",
".. c #9C7F69",
"X. c #AA7A71",
"o. c #D04745",
"O. c #C17441",
"+. c #7DAD18",
"@. c #6CAB2F",
"#. c #7CAB2A",
"$. c #79A93A",
"%. c #158254",
"&. c #1A8654",
"*. c #1C865B",
"=. c #1B925C",
"-. c #238556",
";. c #238659",
":. c #258A5B",
">. c #2A8B5C",
",. c #388E5E",
"<. c #2E9A58",
"1. c #3B925F",
"2. c #0D8868",
"3. c #1A8967",
"4. c #1E836E",
"5. c #0A9B6D",
"6. c #1A9466",
"7. c #188373",
"8. c #258C62",
"9. c #2A8867",
"0. c #2C8A65",
"q. c #25856B",
"w. c #298669",
"e. c #3E8465",
"r. c #358D63",
"t. c #388F61",
"y. c #378268",
"u. c #239666",
"i. c #2C9265",
"p. c #2D936A",
"a. c #379263",
"s. c #3B9260",
"d. c #389667",
"f. c #3E9E76",
"g. c #13A16F",
"h. c #38A361",
"j. c #6FA340",
"k. c #408665",
"l. c #4B8C6F",
"z. c #429D61",
"x. c #43956E",
"c. c #43A161",
"v. c #9F850E",
"b. c #AF8513",
"n. c #AE812B",
"m. c #B79524",
"M. c #AC8736",
"N. c #B58536",
"B. c #BB9739",
"V. c #8AAF28",
"C. c #92AF2D",
"Z. c #88B22A",
"A. c #93B22C",
"S. c #9AB829",
"D. c #84AB34",
"F. c #8AAD32",
"G. c #81A03D",
"H. c #87B234",
"J. c #A2B823",
"K. c #BCA439",
"L. c #C18C2D",
"P. c #C18937",
"I. c #9DCA21",
"U. c #A6C225",
"Y. c #9F8654",
"T. c #AB8B4D",
"R. c #B78C51",
"E. c #BCA445",
"W. c #B5916E",
"Q. c #B4A27A",
"!. c #C18442",
"~. c #CD9547",
"^. c #D69B56",
"/. c #C2AA4C",
"(. c #D8A445",
"). c #C7A959",
"_. c #DBAA52",
"`. c #D8B859",
"'. c #E0A452",
"]. c #CAA066",
"[. c #D2B371",
"{. c #EEB271",
"}. c #D6C95B",
"|. c #E7C846",
" X c #E4C65B",
".X c #DFC66A",
"XX c #D7CB73",
"oX c #DBD47A",
"OX c #F8C274",
"+X c #EEE17F",
"@X c #17568C",
"#X c #8C7686",
"$X c #A97D83",
"%X c #9D8286",
"&X c #B78886",
"*X c #AD9087",
"=X c #AE9598",
"-X c #B69994",
";X c #B59AA8",
":X c #8ABCA7",
">X c #CAAB8E",
",X c #E0B98F",
"<X c #C7A4A7",
"1X c #CCB1AA",
"2X c #D3B1B3",
"3X c #E5D68B",
"4X c #E2C79A",
"5X c #FCF89A",
"6X c #D9CEAB",
"7X c #E3C5A0",
"8X c #F3E7A3",
"9X c #FDF5A9",
"0X c #C6BAC9",
"qX c #D6B6C6",
"wX c #DECACD",
"eX c #D7CBD9",
"rX c #E5CBD8",
"tX c #F0D1DB",
"yX c #FFFFC1",
"uX c #CEC2EB",
"iX c #ECD7E3",
"pX c #F0DAF0",
"aX c #F3E8EF",
"sX c #EEEBF1",
"dX c #F9E5FB",
"fX c #FDF7FF",
/* pixels */
"r.r.r.r.r.r.r.r.r.:.2XwX;.r.r.r.w.9.r.r.r.r.r.r.r.r.r.r.r.r.r.k.",
"r.r.r.r.r.r.r.r.r.0.' *X3.r.r.9.S.F.7.r.r.r.r.r.r.r.r.r.r.r.r.k.",
"r.r.r.r.r.r.r.0.9.8.X.=XZ.q.8.>.h F.A.q.s.r.r.r.r.r.t.t.r.r.a.k.",
"r.r.r.r.r.r.r.A.F.7.K -X@.6.$X:X&.q.q.s.f f s.t.a.p f f s.r.a.k.",
"r.r.r.r.r.r.r.4.F.$.R *Xz b * M tX:.r.r.r S.a s.p S.H.d s.r.r.e.",
"r.r.r.r.r.r.r.r.q.2.| + c N o.- >X6.s.p s r.S.a U.j.$.r s.r.r.e.",
"r.r.r.r.r.r.r.0.*.rXU 2 * b { O 5X6 p S.F.a d.r p.C.7.r s.r.r.e.",
"r.r.q.q.r.r.q.A.V.0XQ.U o 5 ]._.b.^ 1XuX*.1.e u z.9.e h s.r.r.e.",
"r.9.J.D.4.0.S.D.s =X) 0 T (.C D K.[.L.5 d.r.z.z.r.r.c.1.r.w.9.k.",
"r.r.g F.C.q.4.q.&.%X1 [ P }.P.G ^ R.J ) 6.r.r.r.r.r.r.r.0.A.A.w.",
"r.r.r.4.q.r.r.-.dX .) Z ^.M.N.].J E.5Xv <X:.r.r.r.r.r.r.S.$.7.k.",
"r.r.r.r.r.r.r.r.-.8.&Xq P.C B.{.0 3X[.l 1X&.r.r.r.r.r.r.q.w.a.k.",
"r.r.r.r.r.r.r.:.p.u.U %  .| A = ) = ,X` <XeX&.r.r.r.r.r.r.r.r.e.",
"r.r.r.r.r.r.:.qXZ O.; R g.' ~ /.G ^ ( K (., 0X;.r.r.r.r.r.r.r.e.",
"r.r.r.r.r.:.2X. } > ).].2 R., B.`.K.8XB.7 OXv <X:.r.r.r.r.r.r.e.",
"r.r.r.r.r.i.` &X9 { 1 $ ! / oXR./.}.V +X7 Y < sX-.r.r.r.r.r.r.e.",
"r.r.r.r.r.r.i.=.k _ W 3 n ~.).}.T.M.3XF |.- '.z :.r.r.r.r.r.r.k.",
"r.r.r.r.r.r.%.iXS +   eXY.B B.oX`.5X9X_.W.+ & b qX&.r.r.r.r.r.k.",
"r.r.r.r.r.-.pXq ; ( D 2X5.L n C n.XXXX@ fX6.> _ B.tX;.r.r.r.r.k.",
"r.r.0.r.0.F.@.3.u.-XQ 3 ; ^ E `.b.K.v.P.6 u.u.& (.( *.r.r.r.r.k.",
"r.9.A.h r.F.4.r.1.i 0X6 W E n.~ H 3X/ B A wX%.fXO ^.aX*.D.w.r.e.",
"r.9.F.D.w.w.r.s.p I.4 L I ~ ~ ! ^.N.R.} - 6.0.%.%XI W.#.$.q.0.y.",
"r.r.4.A.q.r.r.s.i fXO m.~ }.Y & + [...= (.2X+.pX+ |.C H.7.q.F.G.",
"r.r.r.q.r.r.r.1.h.; > E.(.Q ] x m x + ` m.W.2.V.=X<X2.q.,.S.$.j ",
"r.r.r.1.1.1.s.u rXC P ^ .X_.t 5.X.$XX   yX- p.4.3.3.t.r.r.4.q.k.",
"r.r.s.a p f s tXO  X8 7X. Y.dX#.Z.2.#X4 !.m.3.r.t.t.r.r.r.r.r.k.",
"r.r.p U.F.i.w 6X; D P 9X: o @.$.g >.;X#   9X&X8.r.r.r.r.r.r.r.k.",
"r.,.f d 0.A.r <.@X~.8 N.k #X8.w.r.>.iX$ # _.Z i.r.r.r.r.r.r.r.k.",
"r.r.s.s.r.9.s.r.1.6.6 [.T.rX>.r.r.r.=.y > 4XaX-.r.r.r.r.r.r.r.e.",
"r.r.r.r.r.r.r.r.r.i.` @ 4X%.r.r.r.r.>.;X. 6.-.r.r.r.r.r.r.r.r.e.",
"r.r.r.r.r.r.r.r.r.8.| & wX;.r.r.r.r.r.u.@ ].8.r.r.r.r.r.r.r.r.e.",
"x.x.x.x.x.x.x.x.x.d.,X>X8.x.x.x.x.x.x.x.f.d.x.x.x.x.x.x.x.x.x.l."
};
