/* XPM */
static char *au8qn_na26o[] = {
/* columns rows colors chars-per-pixel */
"64 64 230 2 ",
"   c #000000",
".  c #150F10",
"X  c #230D00",
"o  c #2C190E",
"O  c #2B2414",
"+  c #0F1521",
"@  c #35302C",
"#  c #59030A",
"$  c #4F1315",
"%  c #690A0F",
"&  c #4A2B16",
"*  c #59341A",
"=  c #762217",
"-  c #702F17",
";  c #483725",
":  c #5B3A24",
">  c #50302A",
",  c #543E35",
"<  c #71322B",
"1  c #384537",
"2  c #574A2D",
"3  c #4D4237",
"4  c #584C37",
"5  c #694429",
"6  c #754724",
"7  c #6E4C31",
"8  c #645433",
"9  c #7B693F",
"0  c #313E4D",
"q  c #7A3B43",
"w  c #3B5047",
"e  c #2E7052",
"r  c #377558",
"t  c #0A4C66",
"y  c #034669",
"u  c #0E5465",
"i  c #0C5268",
"p  c #145963",
"a  c #135A65",
"s  c #0F676F",
"d  c #196766",
"f  c #146C6D",
"g  c #16706D",
"h  c #1B736B",
"j  c #1E786C",
"k  c #0E6870",
"l  c #116B70",
"z  c #216661",
"x  c #247666",
"c  c #267965",
"v  c #2A7C64",
"b  c #217569",
"n  c #3F7860",
"m  c #4E524B",
"M  c #66564A",
"N  c #6C4D50",
"B  c #4D6D58",
"V  c #7C6844",
"C  c #7B5960",
"Z  c #467963",
"A  c #577D67",
"S  c #727470",
"D  c #850008",
"F  c #8D0F17",
"G  c #970916",
"H  c #941418",
"J  c #A10513",
"K  c #862F17",
"L  c #871A23",
"P  c #9D1E26",
"I  c #892225",
"U  c #86352A",
"Y  c #94322D",
"T  c #843738",
"R  c #85570E",
"E  c #8A4C1E",
"W  c #974913",
"Q  c #A04115",
"!  c #A75815",
"~  c #834E2A",
"^  c #885F27",
"/  c #8B552B",
"(  c #965728",
")  c #8F4735",
"_  c #865837",
"`  c #A55928",
"'  c #8F662D",
"]  c #8C6B38",
"[  c #996639",
"{  c #A9622E",
"}  c #B5682C",
"|  c #AC712F",
" . c #A76A36",
".. c #B56731",
"X. c #A7783D",
"o. c #B8793A",
"O. c #C46E35",
"+. c #C87432",
"@. c #813F48",
"#. c #8C5A4F",
"$. c #866444",
"%. c #887445",
"&. c #957A47",
"*. c #8B7058",
"=. c #BA7C46",
"-. c #90706D",
";. c #867A77",
":. c #A36D7A",
">. c #5D8238",
",. c #74A53E",
"<. c #79A73C",
"1. c #76A83E",
"2. c #7CA93A",
"3. c #24855C",
"4. c #2D8A5D",
"5. c #328C5F",
"6. c #3C8E5E",
"7. c #3E905C",
"8. c #1F846F",
"9. c #2D8465",
"0. c #2E8A65",
"q. c #27856A",
"w. c #298769",
"e. c #2A8969",
"r. c #318663",
"t. c #368D63",
"y. c #328A64",
"u. c #398D61",
"i. c #398E62",
"p. c #348E69",
"a. c #369165",
"s. c #369166",
"d. c #3A9261",
"f. c #3C9861",
"g. c #359368",
"h. c #3D946A",
"j. c #3C9A6D",
"k. c #349071",
"l. c #5D9548",
"z. c #5D9A4B",
"x. c #408F5C",
"c. c #41915B",
"v. c #659E46",
"b. c #699E43",
"n. c #639E49",
"m. c #66A046",
"M. c #6CA242",
"N. c #71A441",
"B. c #75A942",
"V. c #71A151",
"C. c #4A886C",
"Z. c #45936D",
"A. c #508F70",
"S. c #479A75",
"D. c #569778",
"F. c #718C75",
"G. c #4FA27C",
"H. c #B7900D",
"J. c #968028",
"K. c #B08E31",
"L. c #82AD37",
"P. c #85B036",
"I. c #C19012",
"U. c #C9AA0C",
"Y. c #CE9639",
"T. c #CCAC2B",
"R. c #DBBA2B",
"E. c #E2BF2F",
"W. c #E8C72A",
"Q. c #F3CD25",
"!. c #FCD627",
"~. c #FCD629",
"^. c #FFDA2B",
"/. c #E3C232",
"(. c #F7D430",
"). c #FFE12C",
"_. c #95824B",
"`. c #988755",
"'. c #B48F4E",
"]. c #AC9557",
"[. c #B79A57",
"{. c #B59A5A",
"}. c #83B74E",
"|. c #BAA55A",
" X c #938E6D",
".X c #A99B73",
"XX c #BCA164",
"oX c #CA8844",
"OX c #D18C4A",
"+X c #D59249",
"@X c #EA9F4B",
"#X c #D4B84C",
"$X c #F7A746",
"%X c #FFB64C",
"&X c #F7A558",
"*X c #C9AC63",
"=X c #CBB669",
"-X c #D9BB67",
";X c #DBC24D",
":X c #EBC66C",
">X c #F1CA6F",
",X c #F2CC71",
"<X c #F5D374",
"1X c #779489",
"2X c #769692",
"3X c #57A483",
"4X c #6FA991",
"5X c #6CAA94",
"6X c #90908F",
"7X c #999A99",
"8X c #8CA79B",
"9X c #B7AB96",
"0X c #AD9BA2",
"qX c #94B2A9",
"wX c #A7AAAA",
"eX c #B2B3B0",
"rX c #B7B8B9",
"tX c #C2BCB7",
"yX c #D1CCB7",
"uX c #E1D6A7",
"iX c #BDC4C5",
"pX c #C8CACC",
"aX c #D8D7DA",
"sX c #E2D6D7",
"dX c #D9DDE7",
"fX c #E8E7E9",
"gX c #EDEBF5",
"hX c #EEF0F5",
"jX c #F3F6F8",
"kX c #FFFFFF",
/* pixels */
"t.t.t.t.t.t.t.t.t.t.t.t.t.t.t.t.t.t.t.t.t.t.t.t.t.t.t.t.t.t.t.t.t.t.t.t.t.t.t.t.t.t.t.t.t.t.t.t.t.t.t.t.t.t.t.t.t.t.t.t.t.t.s.e ",
"t.t.t.t.t.t.t.t.t.t.t.t.t.t.t.t.t.t.t.t.t.t.t.t.t.t.t.t.t.t.t.t.6.u.u.6.y.t.t.t.t.t.t.t.t.t.t.t.t.t.t.t.t.t.t.t.t.t.t.t.t.t.s.e ",
"t.t.t.t.t.t.t.t.t.t.t.t.t.t.t.t.t.t.t.t.t.t.t.t.t.t.t.t.t.t.t.u.L.<.<.,.w.t.t.t.t.t.t.t.t.t.t.t.t.t.t.t.t.t.t.t.t.t.t.t.t.t.s.e ",
"t.t.t.t.t.t.t.t.t.t.t.t.t.t.t.t.t.t.t.t.t.t.t.t.u.u.t.t.t.t.t.u.,.m.N.M.0.u.y.t.t.t.t.t.t.t.t.t.t.t.t.t.t.t.t.t.t.t.t.t.t.t.s.e ",
"t.t.t.t.t.t.t.t.t.t.t.t.t.t.t.t.t.t.t.t.t.t.y.6.2.M.y.t.t.t.t.t.w.y.2.N.2.,.0.t.t.t.t.t.t.t.t.t.t.t.t.t.t.t.t.t.t.t.t.t.t.t.s.e ",
"t.t.t.t.t.t.t.t.t.t.t.t.t.t.6.u.u.6.y.t.t.t.6.c.,.n.y.t.t.t.t.t.t.6.N.m.M.n.0.t.y.y.y.y.t.t.t.t.t.t.y.y.y.y.y.y.t.t.t.t.t.t.s.e ",
"t.t.t.t.t.t.t.t.t.t.t.t.y.x.2.,.<.N.w.t.t.6.2.,.,.v.y.t.t.t.t.t.t.t.0.0.0.0.t.0.f f f h u.t.t.t.t.t.s f f f f h t.t.t.t.t.t.s.e ",
"t.t.t.t.t.t.t.t.t.t.t.t.t.6.M.v.N.M.t.6.y.u.,.M.m.z.y.t.t.t.t.t.t.t.t.t.t.t.t.r.f h c v y.y.t.t.r.r.x c c c g j t.t.t.t.t.t.s.e ",
"t.t.t.t.t.t.t.t.t.t.t.t.t.t.y.t.<.,.,.N.w.u.<.v.0.y.t.t.t.t.t.t.t.t.t.t.t.t.t.r.t z 2.v.f g d.t.k h L.,.,.b.k b t.t.t.t.t.t.s.e ",
"t.t.t.t.t.t.t.t.t.t.t.t.t.t.t.u.M.v.m.n.0.6.M.z.y.t.t.t.t.t.t.t.t.t.t.t.t.t.y.9.u z M.z.x v y.r.x v <.N.,.v.k h t.t.t.t.t.t.s.e ",
"t.t.t.t.t.t.t.t.t.t.t.t.t.t.t.t.y.y.y.t.t.t.y.y.t.t.t.t.t.t.t.t.t.t.t.t.t.y.f f g h t.c.<.v.l b L.N.M.M.,.b.y a s.t.t.t.t.t.s.e ",
"t.t.t.t.t.t.t.t.t.t.t.t.t.t.t.t.t.t.t.t.t.t.t.t.t.t.t.t.t.t.t.t.t.t.t.t.r.r.x x x v 0.6.M.z.k h 1.m.,.M.m.z.y a s.t.t.t.t.t.s.e ",
"t.t.t.t.t.t.t.t.t.t.t.t.t.t.y.y.y.t.t.t.t.t.t.t.t.t.t.t.t.t.t.t.t.t.t.y.f b L.,.,.v.f j s.0.t p d.t.2.M.w.r.t p s.t.t.t.t.t.s.e ",
"t.t.t.t.t.t.t.t.t.t.t.t.t.t.6.u.u.u.y.t.t.t.t.t.t.t.t.t.t.t.t.t.t.t.t.y.f b N.m.M.z.g b t.v t a d.t.N.v.w.9.i d s.t.t.t.t.t.s.e ",
"t.t.t.t.t.t.t.t.t.t.t.t.y.6.<.,.,.,.w.t.t.t.t.t.t.t.t.t.t.t.t.t.t.t.t.y.l g f f y.y.d.r.t t u p d.t.y.0.y u h j t.t.t.t.t.t.s.e ",
"t.t.t.t.t.t.t.t.t.t.t.t.y.6.,.N.N.M.w.t.t.t.t.t.t.t.t.t.t.t.t.t.t.t.t.y.f h h j t.t.t.9.u u u a d.t.t.y.t a g j t.t.t.t.t.t.s.e ",
"t.t.t.6.P.2.2.M.y.t.y.c.2.<.,.M.8.0.t.t.t.t.t.t.t.t.t.t.t.t.t.t.t.t.t.t.d.d.d.d.t.t.t.t.d.d.d.d.t.t.t.t.f.d.d.d.t.t.t.t.t.t.s.e ",
"t.t.t.6.<.M.,.m.y.t.y.7.,.N.,.M.0.u.t.u.t.u.t.t.t.t.t.t.t.t.t.s.Z s.t.t.t.t.t.t.t.t.t.u.t.t.t.t.t.t.t.t.t.t.t.t.t.t.t.t.t.t.s.e ",
"t.t.t.y.q.y.,.,.2.M.y.y.w.w.w.w.t.u.t.u.u.t.t.t.5.Z.Z.y.Z.j.S.V 6 F.G.h.t.t.Z S.h.t.t.t.t.t.t.t.t.t.t.t.t.t.t.t.y.c.2.2.2.N.p.e ",
"t.t.t.t.t.u.,.M.N.n.y.t.t.t.t.t.t.t.t.t.t.t.t.y.G.m r.S.1X6XM $X|  .6X1XS.j.1 B g.t.t.t.t.t.s.t.t.t.t.t.t.t.t.t.y.7.N.N.,.v.y.e ",
"t.t.t.t.t.t.w.e.e.0.t.t.t.t.t.t.t.t.t.t.t.t.t.0.S - m q # D 6 %X[ $X# % < m 4 [ h.t.t.t.t.t.t.t.t.t.t.t.t.t.t.c.2.,.,.n.w.0.s.e ",
"t.t.t.t.t.t.t.t.t.t.t.t.t.t.t.t.t.t.t.t.t.u.t.qX$. .$ ! I.# +XoX7 $X- W H.= 5 ` A 5.y.t.t.t.t.t.t.t.t.t.t.t.t.6.M.M.M.n.y.t.s.e ",
"t.t.t.t.t.t.t.t.t.t.t.t.t.t.t.t.t.t.t.t.t.4.A.S ( ( [ % U > $XoX' %X/ - = _ [ ` M 1XD.4.t.t.t.t.t.t.t.t.t.t.t.t.y.y.y.y.t.t.s.e ",
"t.t.t.t.t.t.t.t.t.t.t.t.t.t.t.t.t.t.t.t.S.3XjXaX[ ( =.[ {.&.Y.Y.' @X[ _._ OX/ ! 7XkXeXg.t.t.t.t.t.t.t.t.t.t.t.t.t.t.t.t.t.t.s.e ",
"t.t.t.t.t.t.t.t.t.t.t.t.t.t.t.t.t.t.t.h.B wXkXdX7 +.* @XX.J.E.W.Q.E.T.' &X: } E rXkXpXw r.t.t.t.t.t.t.t.t.t.t.t.t.t.t.t.t.t.s.e ",
"t.t.t.t.t.t.t.t.t.t.t.t.t.t.t.t.t.u.t.s.4 : rXkX3 } ..: %. X~.W.R.Q.*X`.2 / +.; fXjX-.o 1X0.t.t.t.t.t.t.t.t.t.t.t.t.t.t.t.t.s.e ",
"t.t.t.t.t.t.t.t.t.t.t.t.t.t.t.t.t.t.t.g.B ( [ ;.7X& } *.+ m uX6X@ yX.X+ S [ * 7XeX$./ _ 2X4.t.t.t.t.t.t.t.t.t.t.t.t.t.t.t.t.s.e ",
"t.t.t.t.t.t.t.t.t.t.t.t.t.t.t.t.t.t.t.D.@ ../ o.OX .6 ;X_.yXkXkXaXkXfX|.|.K._ | oX/ } 5 1X0.t.t.t.t.t.t.t.t.t.t.t.t.t.t.t.t.s.e ",
"t.t.t.t.t.t.t.t.t.t.t.t.t.t.t.t.t.t.g.m H * ..( 5 OXX.).W.yXjXjXpXjXgX#X!.E.=. .~ ..( # , j.t.t.t.t.t.t.t.t.t.t.t.t.t.t.t.t.s.e ",
"t.t.t.t.t.t.t.t.t.t.t.t.t.t.t.t.t.y.3X> H.* 5 +.{ ( ^ ).Q.yXfXfXaXfXdX;X~.R.< ( +.{ & U.- D.t.t.t.t.t.t.t.t.t.t.t.t.t.t.t.t.s.e ",
"t.t.t.t.t.t.t.t.t.t.t.t.t.t.t.t.t.t.A.P H Y ].6 ( +.| (.~.;XfXkXkXhX-XQ.^.Y.O.} ( 9 U K L n t.t.t.t.t.t.t.t.t.t.t.t.t.t.t.t.s.e ",
"t.t.t.t.t.t.t.t.t.t.t.t.t.t.t.t.t.s.r H J ) <X*X9 o < K.).!./.-X=X;X!.~.).6 : ; ].<X) J G B s.t.t.t.t.t.t.t.t.t.t.t.t.t.t.t.s.e ",
"t.t.t.t.t.t.t.t.t.t.t.t.t.t.t.t.t.t.C.4X5X X:X:X*X    o R.^.~.!.!.~.^.(.^     O ,X:X X5X5XZ.t.t.t.t.t.t.t.t.t.t.t.t.t.t.t.t.s.e ",
"t.t.t.t.t.t.t.t.t.t.t.t.t.t.t.t.t.t.r 3 3 $.{.{.{.  o &X+XK.(.^.!.^.T.'.&X7   O {.{.$., , Z s.t.t.t.t.t.t.t.t.t.t.t.t.t.t.t.s.e ",
"t.t.t.t.t.t.t.t.t.t.t.t.t.t.t.t.t.t.C.P J U *X2 ; 5 OX .~ ` ` * M E ..~ _ oX[ o 2 `.U G H Z s.t.t.t.t.t.t.t.t.t.t.t.t.t.t.t.s.e ",
"t.t.t.t.t.t.t.t.t.t.t.t.t.t.t.t.t.y.3X< H.6 *X_.; | { { } ( M aXkX;.E } ..{ | 6 8 -XU U.5 S.t.t.t.t.t.t.t.t.t.t.t.t.t.t.t.t.s.e ",
"t.t.t.t.t.t.t.t.t.t.y.c.<.M.0.t.t.y.j.; ! K '.<X=X8 X X M rXkXpX7XkXiX;.X o . {.<X[.H Q ; S.t.t.t.t.t.t.t.t.t.t.t.t.t.t.t.t.s.e ",
"t.t.t.t.t.t.t.t.t.t.t.c.,.m.0.t.t.t.s.F.D F *.*X{.{.O m kXkXeX    S kXkX7X  2 |.{.-.I D F.g.t.t.t.t.t.t.t.t.t.t.t.t.t.t.t.t.s.e ",
"t.t.t.t.t.t.t.t.t.6.,.N.N.m.y.t.t.t.t.Z.-.sXpX] ].'.9XkXkXwX        S kXkXrX`.[.] 0XhX-.D.t.t.t.t.t.t.t.t.t.t.t.t.t.t.t.t.t.s.e ",
"t.t.t.t.6.u.t.t.t.6.,.M.m.n.y.t.t.t.r.h.qX-.T ) XXyXkXkXeX             XkXkXaX.XT T N rXh.y.t.t.t.t.t.t.t.t.t.t.6.6.t.t.t.t.s.e ",
"t.t.t.u.<.M.0.t.y.6.,.m.y.t.t.t.t.y.f f k.M hXhXfXkXkXtX&.&.%.2 ; 8 V %..XkXkXjXfXkX;.4X4.t.t.t.t.t.t.t.t.t.y.7.,.n.y.t.t.t.s.e ",
"t.t.t.u.<.m.t.u.t.7.M.n.y.t.t.t.y.y.h b d qXfXkXkXkX6X#X].].:X,X,X>X].*X|.*.jXkXkXkXiX3.u.t.t.t.t.t.t.t.t.t.6.c.,.v.y.t.t.t.s.e ",
"t.t.t.t.<.N.N.m.y.t.t.t.t.t.t.y.f b 2.N.N.v.4XeXkXkX< Y _ XX-X-X-X-X*X_ Y I aXkXaX8XZ.y.t.t.t.t.t.t.t.t.t.6.,.M.N.v.y.t.y.t.s.e ",
"t.t.t.6.,.M.,.m.y.t.t.t.t.t.t.t.f j 2.M.M.v.3.A.gXkXT J W - I #.9X= = W G P aXkXtX4.5.t.u.u.u.u.u.u.t.t.y.u.<.N.M.n.t.t.u.u.s.e ",
"t.t.t.t.y.u.<.m.y.t.t.t.t.t.t.t.f g f g t.u.2.V.2X8X4 L R W J #.aXD K R L , 8XwXD.4.t.c.,.,.,.,.,.M.w.t.y.u.<.m.y.y.y.x.,.,.B.>.",
"t.t.t.t.t.6.<.m.y.t.t.t.t.t.t.y.f g f h t.6.<.l.y z }.F.m :.@.C eXq :.0 C.j.t.4.5.t.t.c.,.N.N.N.N.M.w.y.y.6.<.m.y.t.0.6.,.,.B.>.",
"t.t.t.t.t.y.0.y.t.t.t.t.t.t.t.t.u.u.u.u.t.t.y.y.d.t.0.0.g.j.j.h.Z.Z.j.g.t.t.t.t.t.t.t.t.e.u.B.M.M.N.,.N.e.y.0.y.t.c.<.,.N.n.e.e ",
"t.t.t.t.t.t.t.t.t.t.t.t.t.t.d.d.d.d.d.d.t.t.t.t.t.t.t.t.t.t.t.t.y.t.t.t.t.t.t.t.t.t.t.t.y.x.2.<.<.<.<.,.w.t.t.t.t.x.2.<.<.M.p.e ",
"t.t.t.t.t.t.t.t.t.t.t.t.t.r.f f f f f f d.t.t.t.t.t.t.t.t.t.t.t.t.t.t.t.t.t.t.t.t.t.t.t.t.y.w.w.w.w.w.w.t.t.t.t.t.y.w.w.w.0.s.e ",
"t.t.t.t.t.t.u.u.u.u.u.u.d.y.k l l f h h d.t.t.t.t.t.t.t.0.0.0.0.0.y.t.t.t.t.t.t.t.t.t.t.t.t.t.t.t.t.t.t.t.t.t.t.t.t.t.t.t.t.s.e ",
"t.t.t.t.t.y.f f f f f f f x P.2.L.,.y u d.t.t.t.t.t.y.c.2.<.<.<.<.,.w.t.t.t.t.t.t.t.t.t.t.t.t.t.t.t.t.t.t.t.t.t.t.t.t.t.t.t.s.e ",
"t.t.t.t.t.y.f f g g h g g c 1.N.N.b.y a d.t.t.t.t.t.y.6.N.M.M.N.,.M.0.t.t.t.t.t.t.t.t.t.t.t.t.t.t.t.t.t.t.t.t.t.t.t.t.t.t.t.s.e ",
"t.t.t.y.f b L.,.,.m.t.9.t p <.M.w.y.y a d.t.t.t.t.c.,.,.N.N.,.M.w.y.t.t.t.t.t.t.t.t.t.t.t.t.t.t.t.t.t.t.t.t.t.t.t.t.t.t.t.t.s.e ",
"t.t.t.y.f b 1.M.M.n.5.r.t d <.m.w.r.t a d.t.t.t.t.7.N.M.M.M.M.m.e.t.t.t.t.t.t.t.t.t.t.t.t.t.t.t.t.t.t.t.t.t.t.t.t.t.t.t.t.t.s.e ",
"t.t.t.y.f g h j t.c.1.l.t a d.y.t u h h d.t.t.t.t.t.t.t.t.t.t.t.t.t.t.t.t.t.t.t.t.t.t.t.t.t.t.t.t.t.t.t.t.t.t.t.t.t.t.t.t.t.s.e ",
"t.t.t.y.f h h j t.6.N.l.i d d.y.t a j j d.t.t.t.t.t.t.t.t.t.t.t.t.t.t.t.t.t.t.t.t.t.t.t.t.t.t.t.t.t.t.t.t.t.t.t.t.t.t.t.t.t.s.e ",
"t.t.t.t.t.t.t.t.t.t.t.t.t.y.t.t.t.t.t.t.t.t.t.t.t.t.t.t.t.t.t.t.t.t.t.t.t.t.t.t.t.t.t.t.t.t.t.t.t.t.t.t.t.t.t.t.t.t.t.t.t.t.s.e ",
"t.t.t.t.t.t.t.t.t.t.t.t.t.t.t.t.t.t.t.t.t.t.t.t.t.t.t.t.t.t.t.t.t.t.t.t.t.t.t.t.t.t.t.t.t.t.t.t.t.t.t.t.t.t.t.t.t.t.t.t.t.t.s.e ",
"t.t.t.t.t.t.t.t.t.t.t.t.t.t.t.t.t.t.t.t.t.t.t.t.t.t.t.t.t.t.t.t.t.t.t.t.t.t.t.t.t.t.t.t.t.t.t.t.t.t.t.t.t.t.t.t.t.t.t.t.t.t.s.e ",
"t.t.t.t.t.t.t.t.t.t.t.t.t.t.t.t.t.t.t.t.t.t.t.t.t.t.t.t.t.t.t.t.t.t.t.t.t.t.t.t.t.t.t.t.t.t.t.t.t.t.t.t.t.t.t.t.t.t.t.t.t.t.s.e ",
"t.t.t.t.t.t.t.t.t.t.t.t.t.t.t.t.t.t.t.t.t.t.t.t.t.t.t.t.t.t.t.t.t.t.t.t.t.t.t.t.t.t.t.t.t.t.t.t.t.t.t.t.t.t.t.t.t.t.t.t.t.t.s.e ",
"t.t.t.t.t.t.t.t.t.t.t.t.t.t.t.t.t.t.t.t.t.t.t.t.t.t.t.t.t.t.t.t.t.t.t.t.t.t.t.t.t.t.t.t.t.t.t.t.t.t.t.t.t.t.t.t.t.t.t.t.t.t.s.e ",
"t.t.t.t.t.t.t.t.t.t.t.t.t.t.t.t.t.t.t.t.t.t.t.t.t.t.t.t.t.t.t.t.t.t.t.t.t.t.t.t.t.t.t.t.t.t.t.t.t.t.t.t.t.t.t.t.t.t.t.t.t.t.s.e ",
"t.t.t.t.t.t.t.t.t.t.t.t.t.t.t.t.t.t.t.t.t.t.t.t.t.t.t.t.t.t.t.t.t.t.t.t.t.t.t.t.t.t.t.t.t.t.t.t.t.t.t.t.t.t.t.t.t.t.t.t.t.t.s.e "
};
