/* XPM */
static char *adgz3_ze9cb[] = {
/* columns rows colors chars-per-pixel */
"64 64 59 1 ",
"  c gray1",
". c #060606",
"X c gray4",
"o c #0E0E0E",
"O c #131313",
"+ c gray8",
"@ c gray10",
"# c gray11",
"$ c gray13",
"% c gray15",
"& c gray17",
"* c #2F2F2F",
"= c #313131",
"- c #343434",
"; c #3A3A3A",
": c gray24",
"> c #434343",
", c gray27",
"< c #484848",
"1 c #4C4C4C",
"2 c #515151",
"3 c #555555",
"4 c #5B5B5B",
"5 c #5D5D5D",
"6 c gray38",
"7 c #676767",
"8 c gray42",
"9 c #6C6C6C",
"0 c gray44",
"q c #777777",
"w c #797979",
"e c #7C7C7C",
"r c #808080",
"t c gray53",
"y c #898989",
"u c gray55",
"i c #929292",
"p c gray59",
"a c #989898",
"s c #9D9D9D",
"d c gray64",
"f c #A4A4A4",
"g c gray66",
"h c #ACACAC",
"j c #B2B2B2",
"k c gray71",
"l c #B9B9B9",
"z c gray74",
"x c gray76",
"c c gray77",
"v c #C8C8C8",
"b c gray80",
"n c #D2D2D2",
"m c gray83",
"M c gray86",
"N c #DDDDDD",
"B c #E1E1E1",
"V c #E4E4E4",
"C c gray92",
/* pixels */
"@-=*=*=+@@+===**=**==&#$-&+#==**>:::::=*===**===*=*@@@+-*::::=-@",
"-gppass@&&$psppaaapadq-5gr$:saayVmmmMNfpaapaapaaaat%&&@guMmMNgf-",
"*puytqe@&%%80tyw0ruew8<5e6#-q0ywbxxxkjptyyyyyyrqwuq%&%@arcxkkte*",
"*atur-;%&&%$$qp<*0a5*5sw--%$$$penccciryyyyyyyi0*1pw$&&@atcviy1;#",
"*atrq,1$&&&%%9r3>9t6>5r8-;-=%&t9vllziyyyyyyyrr9>3r9%&&@u0zzte31$",
"*aq-,pp@&%%&%%+qs3*8a6+%$:ae$%$Xsrytytyyyyyu7*3sq@$%&&%$+yu>-wd=",
"=sw-<ip#%%%%&%$qa4-8a6#%#:iw#%%Osyyuyyuuyyyi9-4aq#%$$&&&@uu,-ws=",
"@-<srO@%@fs=$&&#@$@4a6@<diuysi$Osu-*wi<&0p4=*$$@#%:si$%&@uyip1-#",
"#-1sy$%@.pi$+%&%&%#7h6X-ueetyy#Ojs;*ta1%ef8>;%&&$X%ur++&+sapa1-@",
"=gq+#%%fpyyis;%&&&&$O2dfnvvzyt#&@Oia,*ef:+#%%&%$2Cvyypg+&@@==ef=",
"=dq$%$#ptrtty=#$%%$%$2aavxxktt@$&#up1;wd,$&&%$$@,nkttypO$%&::ed=",
"@-&$=yevzzxzcuy2=9i2$*&3mxxxzzep+$**&%**&%%$2yizlcxzztuei%%&&&=@",
"@&$$=utvcxxcvpi1-qs2$&#2mxxxcxtfo%$$%%%%$%%@2isbcxxczyyua$%$%$%+",
"@%:wrzjcxxcpiyyer42;%&$3nxzxxxri0qwe-%&#6ew0pzlxzxxcl,<up--0eqt*",
"+#:aavcxxccyyyyus3-*%&$3Mvccvcrtuuip=@#+0aitfvxcvcvnx*&sa;-ruid=",
"*e7-2vxxcuayyyu6,9r<$&$<fppppptyyu22900w1-7ydvjupay45ee1<wqyu2>#",
"=d0@;nvvnyuyuia<&wf4#%+-ptttytytpa-*taua>O8ahnjrype*;ad%&apps:$+",
"*a0#-daaf13ty628w3,-$>00uyyyyyyp<30q52wp,$;>8fpye25q023qq43<,*&@",
"*p9#;puti&*up,&ef,#%$3fpyyiuyyuf$*pa,*wd,%%@1iyiw&,au=%fd;:%$#@+",
"-xy$&32uu78668844-%&$:26ie57yt5588667867-%&$2pw4687668857=-&%7u*",
":Bs@##@diaa;*es;#%&$$#@>sw&>pu*#gs;*ep1;*%%@2dq&<st*;ad%-$&%#fC>",
":Md11%%865655ri:%&$:4,$;855688559865ri<-&$:23655697568957%%&#aM:",
":Mkir#$###+uaip:$$+6f5@$@;dt=;sg%=ppui:$%+6f5o>fe=<py=&df$&$@aN:",
":Mkau:,$&%%80901>2<edq:;$;q6-;0q*-9990;#<19p5@:w6=<ut220q%$12fM:",
":mxvxisO%$%#@#OepxMbbkuq+$+@$#@#%%#@@+$XdVgy4@$@#$;uipfX@$@zMvM:",
":mxxlty-:>>&&&%68gcxchpe-::>:>%&&&&%;><:dvgs0;;%&%-q00e#$1,jckc;",
":Mxcztuuiup*$%%%ouvxzcckyiiipi#%%&&%eilbcxxvhu0+%&%$$$$$Xmvcxii*",
";vlljtyyyyi:-*%&Oivxxxcjryutee*:%&%$wykcxxccgy0=-%&%*%%,*ccxcpp*",
"*ptttyyyyuyui;%&+pvcxxcjtyuw-:pfO&&%wyjcxxxcgruiw$&&%%OBccxxcpp*",
"*ayyyyyyuttuu;%&+ivzczchryuw:>us+&%$wykczxxcftyu0$&%%*OMxxzxcpp*",
"=pyyyyytp*-tu;%&&#o3ytrtyyyuiu=>$&&$wyjvprtrtu0*2ar$=ayvxxcxxpp*",
"*ayyyyuag$&pf:%+O##9gpytutyuaa%-XO%%wtzMstyyyu9$>pw$*urvzxxvnap=",
"*pyyyuy%$gd@o%#tj1$#.,pyyyuw&=dasg&$wieetyyyyyuspuw$*irvxxctwta=",
"-duyyip**iu*%%$0a,$&$3suyupr=;aiia&$riiiyyyyyyuuipe$*itbvvvitya=",
"#,2ie::itui*%&#0a,%&%&%,aq;1ut;,$&%&&&;;quyyyu0;;%&%*iyyytuyyya*",
"#:1ir--pyup*%$@9p>$%%&$>se;1ii;,@$&&%$-=qiyyyiq=-$&%*puyyyyyyua=",
"*y0<2eeyp*;%%igkxye1%%%*;-&*;;&@yr&&&$8t4,9i9>4t8$%%&;*pi<<eu42$",
"*sq=,piid+%&$fbxbsp3#%$##$&%$$$Xdp&%&$ws2*8a8*2sw$&$$%+ss-=tp1;@",
"=ptw022:>%&&$fcxcau5*2q0q5%%%&w9ip%&&%;;7e6<6e7;:%-q0%%,-ww329t*",
"=diie*-$%&&+odvxvau5&5spiq$&&%itry#@%&&+qf5%4a8@$+*ue+@%+ss1;ws=",
"%46utqw#&%$ialxxvaye0816i0$&%%xjjl99-%&%::5qei9@;0wkj8w#%,,=&0s*",
"#>2ppas@&#Ozbxxcnstyi7&1sw$&%&mxcvui*@$&%@7dpa0o-uivxrpX#$%%$wg=",
"#-;2222$#84zxxcgduyyue7852%&%&nxxcyy86-%&$>32235qhhxzgk38&%&&,4$",
"@&$$#$$#oducvcviryyyyuaw&=%&%&nxxvuuia;#%&%##O:aabcxxbnyd@$%%#@+",
"@&&&&&%41iyfgfguyyyyyw7862%&%&nxxb87tu63=%&%:28ggcxczfhri13-=<4$",
"@&%$$$#gaytttrryyyyyi8%2fw$%#$nxcn-*eiid<$&$3sdncxxcxrrytpa1-rh=",
"#=-<,,,07uyuyyyyyyue073404$*44vcgl3390tp>%%$2iavxxzhhtyyyyu528r&",
"#,3sppao.sutuyuyyyp4%4d9o##,NMzbqtia,&qs>#&$1isvxclrryytyyyia1-@",
"$34wwuy@#e0yteqtuew6<8p9@*:2lkxbeuwq329r1:=#3iavzkhtyyyyyyyew44$",
"=fw=>ui+&$@ti,*wa2*9aii9@>aptybmei;=ra1%wf3@2pabketyyytyyui>=wf=",
"*y0<3uu#&&$0w3,9e1=5wqw6#;eqqqghqr1<qr4<8r<#1ruzhtyyyyuyuww3<0y*",
"#:2iuui@&%%%$wa:$%$$$$%$%%%%$$$@>-ui<-ws>#%%=;2ityyyyyyyp;-rp2>#",
"$<2yrty@%**%$qu>#****&%&&&&%==*&>-ty1:qi,%%%-,4ityyttyyru;;wy1:#",
"=dq@$$$&+sp*%$$%@0pup7#&&&$;iiifO%:-ep2:*%&#3ayyyuw;>ui=:$%$$%&@",
"-ge$&%%@Xau@oOOO.6iyi4o@@#$-uyyd @>,yd3,=&#O2dppppr=:ps-<&%&%&*@",
"+@#%&%$fpyymNMMMBftyyupase$-uyyyaf&$#@%$&@8g5o@@#=,au=-$$%&%&&&@",
"+@@@#%%fattxxxzxcperrtyupw$;spytyi+oOo+@$@5a5@%%*>3ai>,%&%%#@@#+",
"=suir$%%Optzccxxxxccvgy0-;%&$%iyyrvvvbsp3-8p8;;%&&%%%%&%%&%epus=",
"=puir#$%@syxxxxxcxxxchu0=-%%%%ittexcccai3=8a8--%%&%%&%&###@wyta*",
"*aw,2rr#%-*lcxxxxxxxvi;4y7$&%&vlllxxxcpyrt6>6y9-;%&&%&Oxhhgzzpp=",
"=sw=,pp@&%@lvccxccccmy%3sw$%$%ncxxxxxcptup6*6sq-;%%&%$oBcvccvpp*",
"$34w023$%&$iapapppaw38w81<$=0qvxxxxxxcpi5<7e715e8-;&&q7bxzcapua*",
"$,4du:>&&*$uaipipps7=7fr;:%:daNmmmmmmMgs4-qfq-5fy>>%-spNmmMdipf-",
"@#$==##+@@+========%@%=*@$+@=*:::::::>==$#&=&#%-&##+@-&>:::====@"
};
