/* XPM */
static char *a9gf0_i29y0[] = {
/* columns rows colors chars-per-pixel */
"32 32 54 1 ",
"  c #0B0B0B",
". c gray6",
"X c gray7",
"o c #151515",
"O c gray10",
"+ c gray12",
"@ c gray13",
"# c #252525",
"$ c #2A2A2A",
"% c #2F2F2F",
"& c #323232",
"* c #353535",
"= c gray23",
"- c #3F3F3F",
"; c #414141",
": c #444444",
"> c #494949",
", c #4C4C4C",
"< c #515151",
"1 c gray34",
"2 c #5B5B5B",
"3 c #5F5F5F",
"4 c gray38",
"5 c #676767",
"6 c DimGray",
"7 c gray43",
"8 c gray45",
"9 c gray46",
"0 c #797979",
"q c gray49",
"w c #838383",
"e c #868686",
"r c #8B8B8B",
"t c #8E8E8E",
"y c gray57",
"u c #959595",
"i c #9B9B9B",
"p c gray61",
"a c gray64",
"s c #A5A5A5",
"d c gray66",
"f c #AFAFAF",
"g c gray69",
"h c #B4B4B4",
"j c #BBBBBB",
"k c #BCBCBC",
"l c #C0C0C0",
"z c gray77",
"x c #CACACA",
"c c gray80",
"v c #D2D2D2",
"b c #D7D7D7",
"n c #D8D8D8",
"m c gainsboro",
/* pixels */
":45-O-64442$5+72rwr433345=O-8rw:",
"4i8=#*7w5r201+,yncstttu5e1+3hzt=",
"576>@@&2736>$5o:fsrtry563&@*0e3,",
";64*;:+*,;ro4t3 a<t2t7*,$:-O1e5:",
">5&*90-+@%34hst.45554*#o1r8=*57:",
",*&wddr-=,#8vza<.5%5#+;3fhp8=+;:",
"o=wjxlsq54+%nzcu;,@O,:yzxcyq5&<*",
"&3dckpee6>@%lfgeu9>:6rlhgs7358t,",
"6;9ky0e535@,teey8,9p@2du01554q<X",
"7>,e63625O&rt9tq-e:w%X8w16454#%*",
"y7O,e548o$&@w;e*u-u-@%8<8266&+5i",
"eh2+o>y5$,y@@t$p@tr#$y%7,8553+7t",
"wvg2$#o;dnzr@@%O#O@+cs;OO4y<o8mq",
"wxpti5@+>vlltuu@#@rczxs:#@++9bg1",
"2rerty6O1bzlee%fO@wlzxuu>@O0vzg2",
"3tru329OX&iwrra#X@wvrwt-9,3gzxj2",
"5yy145X<eo$ptt@sgOyrrrrua>1fcdw4",
"@014i4o;8O#%u=p=o#@%etu<#+5yrry4",
"416i4+4ch7O+@#$.a@+y-r>q,++4720#",
"5y2&$o1vh8=uq+@eyo##t;0>O3>O3934",
"&qi1o3zxje9;u++vze+@$qa*<fa:@$<7",
"@&=#:avhrrrq-@+bxye@@*$3slza,O$@",
"+@O<ryuyrte>w+Xvb-yw%+3dlxdte2>2",
"#4915yrrtw,9=@acu0>i$O8jxdtete7=",
"14q<%705e2qtO0dme<9<9$9kftert94<",
"-6t2O&35;$,>#<;328282$:tyrtt948:",
",41*;;$-#5<O@#34O577$O2ey60q:-,@",
";&O;0e880te12#pu1@1%@<22356>$@++",
"=2&;0fcckaat4#3rt662#t;+$<>#+&2-",
"5w4&=yxzzxk31@oficvi465-#@+;5wd4",
"<48,O4kggfr19@>ncxcu0286;$*umxf3",
"+1:@+=323,$5@@6ewwe5$4&1:+:0e83;"
};
